<?xml version="1.0" encoding="utf-8"?>
<!-- Generator: Adobe Illustrator 19.1.0, SVG Export Plug-In . SVG Version: 6.00 Build 0)  -->
<svg version="1.1" id="Layer_1" xmlns="http://www.w3.org/2000/svg" xmlns:xlink="http://www.w3.org/1999/xlink" x="0px" y="0px"
	 viewBox="-41 164.9 512 512" style="enable-background:new -41 164.9 512 512;" xml:space="preserve">
<style type="text/css">
	.st0{fill:#FFDE00;}
</style>
<g>
	<g>
		<rect x="-37.8" y="640.8" class="st0" width="505.5" height="33"/>
	</g>
</g>
<g>
	<g>
		<path class="st0" d="M214.9,168.3c-22.6,9.9-38.5,40-38.5,60.4c0,21.2,17.2,38.5,38.5,38.5s38.5-17.2,38.5-38.5
			C253.4,208.3,237.5,178.2,214.9,168.3z"/>
	</g>
</g>
<g>
	<g>
		<path d="M368.7,366H236.9v-66H193v66H61.1c-30.2,0-55,24.7-55,55v5.5c23.3,0,36,10.5,45.2,18.1c8,6.6,12.8,10.6,24.4,10.6
			c11.5,0,16.3-3.9,24.3-10.6c9.3-7.6,21.9-18.1,45.2-18.1s36,10.5,45.2,18.1c8,6.6,12.8,10.6,24.4,10.6c11.5,0,16.3-3.9,24.3-10.6
			c9.3-7.6,21.9-18.1,45.2-18.1s36,10.5,45.2,18.1c8,6.6,12.8,10.6,24.4,10.6c11.6,0,16.3-3.9,24.4-10.6
			c9.3-7.6,21.9-18.1,45.2-18.1V421C423.7,390.8,398.9,366,368.7,366z"/>
	</g>
</g>
<g>
	<g>
		<path d="M399.3,470c-9.3,7.6-21.9,18.1-45.2,18.1c-23.3,0-36-10.5-45.2-18.1c-8-6.6-12.8-10.6-24.4-10.6
			c-11.5,0-16.3,3.9-24.3,10.6c-9.3,7.6-21.9,18.1-45.2,18.1s-36-10.5-45.2-18.1c-8-6.6-12.8-10.6-24.4-10.6
			c-11.5,0-16.3,3.9-24.3,10.6c-9.3,7.6-21.9,18.1-45.2,18.1s-36-10.5-45.2-18.1c-8-6.6-12.8-10.6-24.4-10.6v148.4h417.6V459.4
			C412.2,459.4,407.3,463.5,399.3,470z"/>
	</g>
</g>
</svg>
