<?xml version="1.0" encoding="utf-8"?>
<!-- Generator: Adobe Illustrator 19.2.1, SVG Export Plug-In . SVG Version: 6.00 Build 0)  -->
<svg version="1.1" id="Слой_1" xmlns="http://www.w3.org/2000/svg" xmlns:xlink="http://www.w3.org/1999/xlink" x="0px" y="0px"
	 viewBox="0 0 345.8 269.3" style="enable-background:new 0 0 345.8 269.3;" xml:space="preserve">
<style type="text/css">
	.st0{fill:#FFFFFF;}
	.st1{fill:#0D0F0F;}
	.st2{fill:#F6DA46;}
</style>
<ellipse class="st0" cx="125.5" cy="156.3" rx="75.1" ry="69.2"/>
<g>
	<g>
		<g>
			<path class="st1" d="M13.9,153.6c0-20.9,6.4-41.7,18.1-59.1c-0.3,0-0.7,0-1,0c-3.1,0-6.1-1.2-8.2-3.4l-8-8
				c-2.2-2.3-3.4-5.3-3.4-8.4s1.2-6,3.4-8.1l18.1-18.1c2.2-2.2,5.2-3.4,8.3-3.4s6.1,1.2,8.2,3.4l8,8c2.2,2.3,3.4,5.3,3.4,8.4
				c0,0.2,0,0.5,0,0.8c11.6-7.9,24.7-13.4,38.4-16.1c-5-1.3-8.7-5.9-8.7-11.3V21.6c0-6.4,5.2-11.6,11.6-11.6h36
				c6.4,0,11.6,5.2,11.6,11.6v16.7c0,5.4-3.7,10-8.7,11.3c13.8,2.8,26.8,8.2,38.5,16.1c0-0.4,0-0.7,0-1.1c0-3.1,1.2-6,3.4-8.1l8-8
				c2.2-2.2,5.2-3.4,8.3-3.4s6.1,1.2,8.2,3.4l18.1,18.1c2.2,2.3,3.4,5.3,3.4,8.4s-1.2,6-3.4,8.1l-8,8c-2.2,2.2-5.2,3.4-8.3,3.4
				c-0.4,0-0.7,0-1,0c11.6,17.3,18,38.1,18,59.1c0,58.5-47.6,106.2-106.2,106.2C61.4,259.8,13.7,212,13.9,153.6z M49,153.5
				c0,39.2,31.8,71,71,71s71-31.8,71-71s-31.9-71-71-71C80.8,82.6,49,114.3,49,153.5z"/>
			<path class="st0" d="M102,15.8h36c3.1,0,5.6,2.5,5.6,5.6v16.7c0,3.1-2.5,5.6-5.6,5.6h-6.2V54c18.9,2.3,36.2,9.8,50.4,21l5.6-5.6
				l-0.8-0.8c-2.2-2.2-2.2-5.8,0-8l8-8c1.1-1.1,2.5-1.7,4-1.7s2.9,0.6,4,1.7l18.1,18.1c2.2,2.2,2.2,5.8,0,8l-8,8
				c-1.1,1.1-2.6,1.7-4,1.7c-1.5,0-2.9-0.6-4-1.7l-0.8-0.8l-5.6,5.6c13.5,17,21.5,38.6,21.5,61.9c0,55.2-45,100.2-100.2,100.2
				s-100.2-45-100.2-100.2c0-23.3,8.1-44.9,21.5-61.9l-5.6-5.6l-0.8,0.8c-1.1,1.1-2.5,1.7-4,1.7c-1.5,0-2.9-0.6-4-1.7l-8-8
				c-2.2-2.2-2.2-5.8,0-8L37,52.6c1.1-1.1,2.5-1.7,4-1.7s2.9,0.6,4,1.7l8,8c2.2,2.2,2.2,5.8,0,8l-0.8,0.8l5.6,5.6
				c14.3-11.3,31.5-18.8,50.4-21V43.7H102c-3.1,0-5.6-2.5-5.6-5.6V21.4C96.4,18.3,98.9,15.8,102,15.8 M120,230.5
				c42.4,0,76.9-34.6,77-77c0-42.5-34.6-77-77-77c-42.5,0-77,34.6-77,77C43,196,77.6,230.5,120,230.5 M102,3.8
				c-9.8,0-17.7,7.9-17.6,17.6v16.7c0,3,0.8,5.8,2.1,8.3c-7.6,2.4-15,5.6-22,9.6c-0.8-1.5-1.8-2.8-3-4l-8-8
				c-3.3-3.3-7.8-5.2-12.5-5.2s-9.1,1.8-12.5,5.2L10.4,62.1c-3.3,3.3-5.2,7.7-5.2,12.4c0,4.7,1.8,9.2,5.2,12.6l8,8
				c1.2,1.2,2.6,2.3,4.1,3.1C13,115,7.9,134.1,7.9,153.4c0,61.9,50.3,112.2,112.2,112.2c61.9,0,112.2-50.3,112.2-112.2
				c0-19.4-5.1-38.5-14.6-55.3c1.4-0.8,2.8-1.8,4-3l8-8c3.3-3.3,5.2-7.7,5.2-12.4c0-4.7-1.8-9.2-5.2-12.6L211.6,44
				c-3.3-3.3-7.8-5.2-12.5-5.2s-9.1,1.8-12.5,5.2l-8,8c-1.3,1.2-2.3,2.5-3.1,4c-7-4-14.4-7.2-22-9.6c1.3-2.4,2.1-5.3,2.1-8.3V21.4
				c0-9.7-7.9-17.6-17.6-17.6H102L102,3.8z M120,218.5c-35.8,0-65-29.1-65-65s29.2-65,65-65c35.9,0,65,29.1,65,65
				S155.8,218.5,120,218.5L120,218.5z"/>
		</g>
		<g>
			<path class="st2" d="M234.7,206.3c-1.6,0-3.2-0.2-4.9-0.8c-1.6-0.5-2.9-1.7-3.6-3.2s-0.7-3.3-0.1-4.8c2.5-6.2,4.5-12.4,5.8-18.4
				c0.6-2.7,3.1-4.7,5.9-4.7h50.8c0.4,0,0.7,0,1.1,0.1c8.2,0.6,14.8,7.5,14.8,15.9c0,8.8-7.1,15.9-15.9,15.9H234.7z"/>
			<path class="st0" d="M237.8,180.3h50.8v0.1c5.5,0,9.9,4.5,9.9,9.9c0,5.5-4.5,9.9-9.9,9.9h-54c-1.1,0-2-0.2-3-0.5
				C234.2,193.5,236.3,187,237.8,180.3 M237.8,168.3c-5.6,0-10.5,3.9-11.7,9.4c-1.2,5.7-3.1,11.5-5.5,17.4c-1.2,3.1-1.2,6.6,0.2,9.6
				s3.9,5.3,7.1,6.4c2.3,0.7,4.5,1.1,6.8,1.1h53.9c12.1,0,21.9-9.8,21.9-21.9c0-11.5-8.9-21-20.1-21.9c-0.6-0.1-1.2-0.1-1.8-0.1
				H237.8L237.8,168.3z"/>
		</g>
		<g>
			<path class="st2" d="M319.4,132.9h-81.5c-2.9,0-5.3-2-5.9-4.7c-1.4-6.4-3.4-12.6-5.8-18.4c-0.7-1.6-0.6-3.4,0.1-4.9
				c0.8-1.6,2.2-2.7,3.8-3.2c1.3-0.3,2.8-0.7,4.6-0.7h84.7c8.8,0,15.9,7.1,15.9,15.9S328.2,132.8,319.4,132.9L319.4,132.9z"/>
			<path class="st0" d="M234.7,107h84.8c5.5,0,9.9,4.5,9.9,9.9c0,5.5-4.5,9.9-9.9,9.9H238c-1.5-6.6-3.6-13.1-6.2-19.4
				C232.6,107.2,233.7,106.9,234.7,107 M234.7,94.9c-2.5,0-4.7,0.5-6.2,0.9c-3.3,0.9-6,3.2-7.5,6.3s-1.6,6.6-0.3,9.8
				c2.3,5.5,4.1,11.4,5.5,17.4c1.2,5.5,6.1,9.4,11.7,9.4h81.5c12.1,0,21.9-9.8,21.9-21.9c0-12.1-9.8-21.9-21.9-21.9H234.7
				L234.7,94.9z"/>
		</g>
		<g>
			<path class="st2" d="M240.4,169.5c-1.7,0-3.3-0.7-4.4-1.9s-1.7-2.9-1.6-4.5c0.2-2.9,0.4-6.3,0.4-9.6c0-3.5-0.2-6.8-0.4-9.4
				c-0.1-1.6,0.5-3.3,1.6-4.5c1.1-1.2,2.7-1.9,4.4-1.9h65.1c8.8,0,15.9,7.1,15.9,15.9s-7.1,15.9-15.9,15.9H240.4z"/>
			<path class="st0" d="M240.4,143.7L240.4,143.7 M240.4,143.8h65.1c5.5,0,9.9,4.5,9.9,9.9s-4.5,9.9-9.9,9.9h-65.1
				c0.2-3.3,0.4-6.6,0.4-10S240.7,147,240.4,143.8 M240.4,131.7c-6.6,0-12,5.4-12,11.9c0,0.4,0.1,0.8,0.1,1.2
				c0.3,3.5,0.4,6.2,0.4,8.7c0,3.1-0.2,6.3-0.4,9.3c-0.2,3.3,0.9,6.5,3.2,8.9c2.2,2.4,5.4,3.8,8.7,3.8h65.1
				c12.1,0,21.9-9.8,21.9-21.9s-9.8-21.9-21.9-21.9H240.4L240.4,131.7L240.4,131.7z"/>
		</g>
		<g>
			<path class="st1" d="M120.4,175.5L120.4,175.5c-11.8,0-21.3-9.5-21.4-21.1c-0.1-11.7,9.4-21.3,21.1-21.4h0.1c5.7,0,11,2.3,15,6.2
				l36,2.6c6.4,0.4,11.3,5.6,11.4,12.1c-0.1,6.3-4.9,11.6-11.2,12.1l-36,3.1C131.5,173,126.2,175.3,120.4,175.5L120.4,175.5z
				 M119.9,153.6c-0.3,0.4-0.3,0.8-0.1,1c0.1,0.1,0.3,0.2,0.5,0.2c0.1,0,0.3,0,0.5-0.2c0.1,0,0.2-0.1,0.2-0.4c0-0.1-0.1-0.4-0.2-0.5
				s-0.3-0.2-0.5-0.2S119.9,153.5,119.9,153.6z"/>
			<path class="st0" d="M120.1,138.9c5,0,9.4,2.3,12.1,5.9l38.5,2.7c3.3,0.2,5.8,2.8,5.8,6.1c0,3.3-2.4,6-5.6,6.2l-38.5,3.4
				c-2.8,3.7-7.1,6.1-12.1,6.2h-0.1c-8.4,0-15.2-6.7-15.3-15.1C104.9,145.9,111.6,139,120.1,138.9L120.1,138.9 M120.3,160.8
				c1.7,0,3.5-0.7,4.8-2c2.6-2.7,2.5-6.9-0.1-9.5c-1.3-1.3-3-1.9-4.7-1.9c-1.8,0-3.5,0.7-4.8,2c-2.6,2.7-2.5,6.9,0.1,9.5
				C116.9,160.3,118.6,160.8,120.3,160.8 M120.1,126.9l-0.2,0c-7.3,0.1-14.1,3-19.2,8.2c-5.1,5.2-7.9,12-7.8,19.3
				c0.1,14.9,12.4,27,27.3,27h0.2h0.1c6.6-0.1,12.7-2.4,17.5-6.6l33.9-3c9.4-0.7,16.7-8.6,16.7-18.1v-0.1c-0.1-9.7-7.4-17.4-17-18
				l-34-2.4C132.7,129.3,126.6,126.9,120.1,126.9L120.1,126.9z"/>
		</g>
		<g>
			<path class="st1" d="M95.2,122.1c-4.4,0-8.5-2.4-10.7-6.3c-1.7-2.9-2.1-6.2-1.2-9.4s3-5.9,5.8-7.4c1.9-1,4-1.6,6.1-1.6
				c4.4,0,8.5,2.4,10.7,6.3c2.2,3.8,2.1,8.5-0.1,12.3c0,0.2-0.1,0.3-0.2,0.4c-1.2,1.7-2.6,3-4.2,4c0,0.1-0.1,0.1-0.1,0.1
				C99.4,121.6,97.3,122.1,95.2,122.1L95.2,122.1z"/>
			<path class="st0" d="M95.2,103.6c2.2,0,4.3,1.1,5.4,3.2s1,4.4-0.1,6.3c-0.6,0.8-1.3,1.6-2.3,2.2c-1,0.5-2.1,0.8-3.1,0.8
				c-2.1,0-4.3-1.2-5.4-3.2c-1.7-3-0.6-6.8,2.4-8.5C93.1,103.9,94.2,103.6,95.2,103.6 M95.2,91.6c-3.1,0-6.2,0.8-9,2.3
				c-4.2,2.4-7.3,6.3-8.6,11s-0.7,9.7,1.7,13.9c3.2,5.7,9.3,9.3,15.9,9.3c3.2,0,6.3-0.8,9.1-2.4c0.1,0,0.1-0.1,0.2-0.1
				c2.3-1.4,4.3-3.3,6-5.7c0.2-0.3,0.3-0.5,0.5-0.8c3.3-5.6,3.4-12.6,0.2-18.2c-0.1,0-0.1-0.1-0.1-0.1
				C107.8,95.1,101.7,91.6,95.2,91.6L95.2,91.6z"/>
		</g>
		<g>
			<path class="st1" d="M120.4,115.6c-6.7,0-12.2-5.5-12.2-12.3c0-6.7,5.5-12.2,12.3-12.2c6.7,0,12.2,5.5,12.2,12.3
				c0,2.2-0.6,4.3-1.7,6.2c-2.2,3.7-6.2,6-10.5,6H120.4z"/>
			<path class="st0" d="M120.4,97.1c3.5,0,6.2,2.9,6.2,6.3c0,1.1-0.3,2.2-0.8,3.1c-1.1,1.8-3.1,3.1-5.3,3.1c-0.1,0-0.1,0-0.2,0
				c-3.4,0-6.2-2.8-6.2-6.3C114.1,99.8,116.9,97.1,120.4,97.1 M120.4,85.1c-10.1,0-18.3,8.2-18.3,18.2c0,10,8.1,18.2,18.1,18.3
				c0.1,0,0.2,0,0.3,0c6.4,0,12.3-3.4,15.6-9c0.1,0,0.1-0.1,0.1-0.1c1.6-2.8,2.4-5.9,2.4-9.1C138.6,93.3,130.4,85.1,120.4,85.1
				L120.4,85.1z"/>
		</g>
		<g>
			<path class="st1" d="M119.5,216.2c-3.3,0-6.3-1.4-8.6-3.7c-2.3-2.3-3.5-5.4-3.5-8.6c-0.1-3.2,1.1-6.2,3.4-8.5
				c2.3-2.4,5.5-3.7,8.8-3.7h0.1c6.7,0.1,12.1,5.6,12.1,12.3c0,2.1-0.6,4.2-1.7,6.1c-2.2,3.7-6.2,6-10.5,6L119.5,216.2z"/>
			<path class="st0" d="M119.5,197.7c3.5,0.1,6.2,2.9,6.3,6.3c0,1.2-0.3,2.2-0.8,3.1c-1.1,1.8-3.1,3.1-5.3,3.1c-0.1,0-0.1,0-0.2,0
				c-3.5,0-6.3-2.8-6.2-6.3C113.2,200.5,116,197.7,119.5,197.7 M119.5,185.7c-4.8,0-9.6,2-13,5.4c-3.4,3.5-5.2,8-5.2,12.7
				c0,4.8,1.8,9.3,5.2,12.8c3.3,3.4,7.9,5.4,12.7,5.5c0.1,0,0.3,0,0.4,0c6.4,0,12.3-3.4,15.6-9c0.1,0,0.1-0.1,0.1-0.1
				c1.6-2.7,2.4-5.9,2.4-9c0-9.9-8.1-18.1-18-18.3C119.6,185.7,119.6,185.7,119.5,185.7L119.5,185.7z"/>
		</g>
		<g>
			<path class="st1" d="M94.5,209.2c-2.3,0-4.4-0.6-6.2-1.7c-2.9-1.7-4.9-4.4-5.7-7.6c-0.8-3.2-0.3-6.5,1.4-9.3
				c2.2-3.6,6.2-5.9,10.5-5.9c2.2,0,4.3,0.6,6.2,1.7c2.9,1.7,4.9,4.4,5.7,7.6c0.7,3.2,0.3,6.4-1.4,9.2
				C102.8,206.8,98.8,209.2,94.5,209.2L94.5,209.2z"/>
			<path class="st0" d="M94.4,190.7c1.1,0,2.2,0.3,3.1,0.8c3,1.7,4,5.6,2.2,8.5c-1.1,2-3.2,3.1-5.3,3.1c-1.1,0-2.2-0.3-3.2-0.9
				c-3-1.7-4-5.6-2.2-8.5C90.2,191.8,92.3,190.7,94.4,190.7 M94.4,178.7c-6.3,0-12.3,3.4-15.7,8.8c-2.6,4.1-3.3,9-2.1,13.8
				c1.2,4.7,4.2,8.8,8.4,11.3c2.8,1.7,6,2.6,9.3,2.6c6.5,0,12.5-3.5,15.7-9c2.5-4.1,3.2-9,2-13.7c-1.1-4.7-4.2-8.8-8.4-11.3
				C100.8,179.6,97.6,178.7,94.4,178.7L94.4,178.7z"/>
		</g>
		<g>
			<path class="st1" d="M76.2,190.7c-4.4,0-8.5-2.4-10.7-6.3c-3.3-6-1.2-13.4,4.7-16.7c1.8-1,3.9-1.5,6-1.5c4.5,0,8.6,2.4,10.7,6.2
				c2.1,3.8,2.1,8.3-0.1,12.2c-1.1,1.9-2.7,3.5-4.6,4.5C80.4,190.2,78.3,190.7,76.2,190.7L76.2,190.7z"/>
			<path class="st0" d="M76.2,172.2c2.2,0,4.3,1.2,5.4,3.2c1.1,2.1,1,4.4-0.1,6.3c-0.5,0.9-1.3,1.7-2.3,2.2s-2.1,0.8-3.1,0.8
				c-2.1,0-4.3-1.2-5.4-3.2c-1.6-3-0.6-6.8,2.4-8.5C74.1,172.5,75.2,172.2,76.2,172.2 M76.2,160.2c-3.1,0-6.2,0.8-8.8,2.3
				c-8.8,4.8-12,16-7.1,24.8c3.2,5.8,9.3,9.4,15.9,9.4c3.1,0,6.2-0.8,8.9-2.3c2.8-1.5,5.3-3.9,6.9-6.8c3.2-5.7,3.3-12.5,0.1-18.1
				C88.9,163.8,82.8,160.2,76.2,160.2L76.2,160.2z"/>
		</g>
		<g>
			<path class="st1" d="M164.6,140.8c-3.3,0-6.4-1.2-8.7-3.6c-2.3-2.3-3.5-5.4-3.5-8.7c0-6.8,5.5-12.2,12.3-12.2h0.1
				c6.7,0.1,12.1,5.6,12.1,12.3c0,2.1-0.6,4.2-1.7,6.1c-2.2,3.7-6.2,6-10.5,6L164.6,140.8z"/>
			<path class="st0" d="M164.6,122.3c3.5,0.1,6.2,2.9,6.2,6.3c0,1.2-0.3,2.2-0.8,3.1c-1.1,1.8-3.1,3.1-5.3,3.1c-0.1,0-0.1,0-0.2,0
				c-3.5,0-6.3-2.8-6.2-6.3C158.3,125.1,161.2,122.3,164.6,122.3 M164.6,110.3c-10,0-18.2,8.1-18.3,18.1c0,4.8,1.8,9.4,5.2,12.9
				c3.4,3.4,8,5.4,12.9,5.4c0.1,0,0.2,0,0.3,0c6.4,0,12.3-3.4,15.6-9c0.1,0,0.1-0.1,0.1-0.1c1.6-2.7,2.4-5.9,2.4-9
				c0-9.9-8.1-18.1-18-18.3C164.7,110.3,164.7,110.3,164.6,110.3L164.6,110.3z"/>
		</g>
		<g>
			<path class="st1" d="M163.2,191.4c-2.2,0-4.3-0.6-6.3-1.7c-5.7-3.4-7.7-10.9-4.3-16.8c0-0.1,0.1-0.1,0.1-0.2
				c2.2-3.6,6.3-5.8,10.5-5.8c2.2,0,4.4,0.6,6.2,1.7c2.9,1.7,4.9,4.4,5.7,7.6c0.8,3.2,0.3,6.5-1.3,9.2
				C171.6,189.1,167.5,191.4,163.2,191.4L163.2,191.4z"/>
			<path class="st0" d="M163.3,172.9c1.1,0,2.1,0.3,3.2,0.9c3,1.7,4,5.6,2.2,8.5c-1.2,2-3.2,3.1-5.4,3.1c-1.1,0-2.2-0.3-3.2-0.9
				c-3-1.7-3.9-5.6-2.2-8.6C159.1,174,161.2,172.9,163.3,172.9 M163.3,160.9c-6.3,0-12.3,3.3-15.6,8.6c-0.1,0.2-0.1,0.3-0.2,0.4
				c-5,8.7-2.1,19.9,6.5,24.9c2.8,1.7,6,2.6,9.3,2.6c6.4,0,12.4-3.4,15.7-8.9c2.5-4.2,3.2-9.1,2-13.8c-1.2-4.7-4.3-8.7-8.4-11.2
				C169.8,161.8,166.6,160.9,163.3,160.9L163.3,160.9z"/>
		</g>
		<g>
			<path class="st1" d="M57.3,153.3c0-6.7,5.5-12.2,12.3-12.2c3.3,0,6.5,1.3,8.8,3.7c2.3,2.3,3.5,5.4,3.5,8.6c0,2.2-0.6,4.2-1.7,6.1
				c-2.2,3.7-6.2,6-10.6,6C62.9,165.4,57.4,159.9,57.3,153.3z"/>
			<path class="st0" d="M69.7,146.9c3.5,0,6.3,2.9,6.2,6.3c0,1.1-0.3,2.1-0.9,3.1c-1,1.9-3.1,3.1-5.4,3.1c-3.4,0-6.2-2.9-6.2-6.3
				C63.4,149.8,66.2,146.9,69.7,146.9 M69.7,134.9c-10.1,0-18.3,8.2-18.3,18.3c0,10.1,8.2,18.3,18.2,18.3c6.5,0,12.5-3.5,15.8-9
				c1.7-2.9,2.6-6,2.6-9.2c0.1-4.8-1.8-9.4-5.2-12.9C79.3,136.8,74.7,134.9,69.7,134.9L69.7,134.9z"/>
		</g>
		<g>
			<path class="st1" d="M75,139.8c-4.5,0-8.5-2.4-10.8-6.3c-3.2-5.9-1.1-13.4,4.8-16.7c1.9-1,3.9-1.5,6-1.5c4.4,0,8.5,2.4,10.7,6.2
				c0.1,0,0.1,0.1,0.1,0.1c2.1,3.8,2.1,8.3-0.1,12.1c-0.1,0.1-0.1,0.2-0.2,0.3c-1.1,1.8-2.6,3.2-4.4,4.2
				C79.2,139.2,77.1,139.8,75,139.8L75,139.8z"/>
			<path class="st0" d="M75.1,121.3c2.1,0,4.2,1.2,5.5,3.2c1.1,2,1,4.4-0.1,6.3c-0.6,0.9-1.4,1.6-2.4,2.2c-1,0.5-2.1,0.8-3.1,0.8
				c-2.1,0-4.3-1.2-5.4-3.2c-1.7-3-0.7-6.8,2.4-8.5C73,121.6,74.1,121.3,75.1,121.3 M75.1,109.3c-3.1,0-6.2,0.8-8.6,2.4
				c-0.1,0-0.1,0-0.1,0c-8.8,4.9-11.9,16-7.1,24.8c3.2,5.8,9.3,9.4,15.9,9.4c3.1,0,6.3-0.8,9-2.4c2.6-1.5,4.8-3.6,6.5-6.2
				c0.1-0.2,0.2-0.4,0.3-0.6c3.1-5.6,3.2-12.4,0.1-18c0-0.1-0.1-0.1-0.1-0.2C87.7,112.8,81.6,109.3,75.1,109.3L75.1,109.3z"/>
		</g>
		<g>
			<path class="st1" d="M145.6,122.6c-2.1,0-4.2-0.5-6-1.6c-0.3-0.1-0.5-0.3-0.8-0.5c-5.5-3.5-7.2-10.8-3.9-16.4
				c2.2-3.8,6.2-6.1,10.6-6.1c2.2,0,4.3,0.6,6.2,1.7l0,0c0.1,0.1,0.2,0.1,0.3,0.2c2.8,1.7,4.8,4.3,5.6,7.5c0.8,3.2,0.3,6.5-1.4,9.2
				C154,120.3,149.9,122.6,145.6,122.6L145.6,122.6z"/>
			<path class="st0" d="M145.5,104.1c1.1,0,2.2,0.3,3.3,0.9c0,0,0.1,0,0.1,0.1c0,0,0,0.1,0.1,0.1c3,1.7,4,5.6,2.2,8.5
				c-1.2,2-3.3,3.1-5.4,3.1c-1.1,0-2.2-0.3-3.2-0.9c0,0-0.1,0-0.1-0.1c-0.1,0-0.1,0-0.1-0.1c0,0,0,0-0.1,0c-3-1.7-3.9-5.6-2.2-8.5
				C141.3,105.1,143.3,104.1,145.5,104.1 M145.5,92.1c-6.5,0-12.5,3.5-15.8,8.9c-5,8.5-2.3,19.4,5.9,24.6c0.4,0.3,0.9,0.6,1.3,0.8
				c2.7,1.4,5.7,2.2,8.7,2.2c6.4,0,12.4-3.4,15.7-8.9c2.6-4.2,3.3-9.1,2.1-13.8c-1.1-4.5-4-8.4-7.9-10.9c-0.4-0.3-0.9-0.6-1.4-0.8
				C151.5,92.8,148.5,92.1,145.5,92.1L145.5,92.1z"/>
		</g>
		<g>
			<path class="st1" d="M134,203.4c-3.4-5.9-1.3-13.3,4.6-16.7c1.9-1,4-1.6,6.1-1.6c4.5,0,8.6,2.5,10.7,6.3
				c2.1,3.8,2.1,8.5-0.1,12.2c-1,1.8-2.6,3.4-4.4,4.5c-0.1,0-0.1,0.1-0.2,0.1c-1.8,1-3.8,1.5-5.9,1.5
				C140.3,209.8,136.2,207.3,134,203.4z"/>
			<path class="st0" d="M144.7,191.2c2.2,0,4.3,1.2,5.4,3.2c1.1,2.1,1,4.4-0.1,6.3c-0.5,0.9-1.3,1.7-2.3,2.3c-0.9,0.5-2,0.8-3,0.8
				c-2.2,0-4.4-1.2-5.5-3.2c-1.7-3.1-0.6-6.9,2.4-8.6C142.6,191.5,143.7,191.2,144.7,191.2 M144.7,179.2c-3.1,0-6.3,0.9-9.1,2.5
				c-8.6,5-11.7,16.2-6.8,24.9c3.2,5.7,9.3,9.2,15.9,9.2c3,0,6.1-0.8,8.8-2.3c0.2-0.1,0.3-0.1,0.4-0.2c2.7-1.6,5-3.9,6.5-6.6
				c3.3-5.5,3.3-12.5,0.2-18.1C157.4,182.8,151.3,179.2,144.7,179.2L144.7,179.2z"/>
		</g>
	</g>
</g>
</svg>
