<?xml version="1.0" encoding="utf-8"?>
<!-- Generator: Adobe Illustrator 19.0.0, SVG Export Plug-In . SVG Version: 6.00 Build 0)  -->
<svg version="1.1" xmlns="http://www.w3.org/2000/svg" xmlns:xlink="http://www.w3.org/1999/xlink" x="0px" y="0px" 
	 viewBox="0 0 435.9 348.9" style="enable-background:new 0 0 435.9 348.9;" xml:space="preserve">
<style type="text/css">
	.st0{fill:#0D1272;}
	.st1{fill:#B6E1E9;}
	.st2{fill:#601A7A;}
	.st3{fill:#0091B0;}
	.st4{fill:#FFFFFF;}
	.st5{fill:#82577F;}
	.st6{fill:#80C7D6;}
	.st7{fill:#55B8CC;}
	.st8{fill:#0094B3;}
	.st9{fill:#0091D1;}
	.st10{fill:url(#XMLID_2_);}
	.st11{fill:#C6E7EE;}
	.st12{fill:#0071BC;}
</style>
<g id="Gear-5">
	<path id="XMLID_633_" class="st0" d="M235.4,154.1l4.2-4.9l-2.1-3l-6.1,2.3c-0.9-1.1-1.8-2.2-2.8-3.3l3.3-5.5l-2.6-2.6l-5.6,3.3
		c-1.1-1-2.2-1.9-3.3-2.8l2.3-6l-3-2.1l-4.9,4.2c-1.2-0.8-2.5-1.5-3.7-2.1l1.2-6.3l-3.3-1.6l-4.1,5c-1.3-0.5-2.7-1-4-1.4l0.1-6.5
		l-3.6-1l-3.2,5.7c-1.4-0.3-2.8-0.5-4.2-0.7l-1-6.4l-3.7-0.3l-2.2,6.1c-1.4,0-2.9,0-4.3,0l-2.1-6.1l-3.7,0.3l-1.1,6.4
		c-1.4,0.2-2.8,0.5-4.2,0.8l-3.2-5.6l-3.6,0.9l0.1,6.5c-1.4,0.5-2.7,1-4,1.5l-4.1-5l-3.3,1.6l1.2,6.4c-1.3,0.7-2.5,1.4-3.7,2.2
		l-4.9-4.2l-3,2.1l2.3,6.1c-1.1,0.9-2.2,1.8-3.3,2.8l-5.5-3.3l-2.6,2.6l3.3,5.6c-1,1.1-1.9,2.2-2.8,3.3l-6-2.3l-2.1,3l4.2,4.9
		c-0.8,1.2-1.5,2.5-2.1,3.7l-6.3-1.2l-1.6,3.3l5,4.1c-0.5,1.3-1,2.7-1.4,4l-6.5-0.1l-1,3.6l5.7,3.2c-0.3,1.4-0.5,2.8-0.7,4.2l-6.4,1
		l-0.3,3.7l6.1,2.2c0,1.4,0,2.9,0,4.3L111,193l0.3,3.7l6.4,1.1c0.2,1.4,0.5,2.8,0.8,4.2l-5.6,3.2l1,3.6l6.5-0.1c0.5,1.4,1,2.7,1.5,4
		l-5,4.1l1.6,3.3l6.4-1.2c0.7,1.3,1.4,2.5,2.2,3.7l-4.2,4.9l2.1,3l6.1-2.3c0.9,1.1,1.8,2.2,2.8,3.3l-3.3,5.5l2.6,2.6l5.6-3.3
		c1.1,1,2.2,1.9,3.3,2.8l-2.3,6l3,2.1l4.9-4.2c1.2,0.8,2.5,1.5,3.7,2.1l-1.2,6.3l3.3,1.6l4.1-5c1.3,0.5,2.7,1,4,1.4l-0.1,6.5l3.6,1
		l3.2-5.7c1.4,0.3,2.8,0.5,4.2,0.7l1,6.4l3.7,0.3l2.2-6.1c1.4,0,2.9,0,4.3,0l2.1,6.1l3.7-0.3l1.1-6.4c1.4-0.2,2.8-0.5,4.2-0.8
		l3.2,5.6l3.6-1l-0.1-6.5c1.4-0.4,2.7-0.9,4-1.5l4.1,5l3.3-1.6l-1.2-6.4c1.3-0.7,2.5-1.4,3.7-2.2l4.9,4.2l3-2.1l-2.3-6.1
		c1.1-0.9,2.2-1.8,3.3-2.8l5.5,3.3l2.6-2.6l-3.3-5.6c1-1.1,1.9-2.2,2.8-3.3l6,2.3l2.1-3l-4.2-4.9c0.8-1.2,1.5-2.5,2.1-3.7l6.3,1.2
		l1.6-3.3l-5-4.1c0.5-1.3,1-2.7,1.4-4.1l6.5,0.1l1-3.6l-5.7-3.2c0.3-1.4,0.5-2.8,0.7-4.2l6.4-1l0.3-3.7l-6.1-2.2c0-1.4,0-2.9,0-4.3
		l6.1-2.1L251,180l-6.4-1.1c-0.2-1.4-0.5-2.8-0.8-4.2l5.6-3.2l-1-3.6l-6.5,0.1c-0.5-1.4-0.9-2.7-1.5-4l5-4.1l-1.6-3.3l-6.4,1.2
		C236.9,156.6,236.2,155.4,235.4,154.1z M212.1,232.6c-24.4,17.1-58.1,11.1-75.2-13.3c-17.1-24.4-11.2-58.1,13.3-75.2
		c24.4-17.1,58.1-11.1,75.2,13.3S236.5,215.5,212.1,232.6z"/>
</g>
<g id="Man-2-Arm-Left">
	<g id="XMLID_530_">
		<g id="XMLID_531_">
			<g id="XMLID_532_">
				<g id="XMLID_533_">
					<path id="XMLID_538_" class="st1" d="M387,293.2c0.1,0.1,0.2,0.1,0.3,0.1c0.1-0.1,0.1-0.2,0.1-0.3l-0.3-0.5
						c-0.1-0.1-0.2-0.1-0.3-0.1c-0.1,0.1-0.1,0.2-0.1,0.3L387,293.2z"/>
					<path id="XMLID_537_" class="st1" d="M386.4,292.1c-0.1-0.1,0-0.3,0.1-0.3l1.3-0.7c0.1-0.1,0.3,0,0.3,0.1l0.5,0.8
						c0.1,0.1,0,0.3-0.1,0.3l-1.3,0.7c-0.1,0.1-0.3,0-0.3-0.1L386.4,292.1z"/>
					<path id="XMLID_536_" class="st1" d="M388.4,292.5c0.1,0.1,0.2,0.1,0.3,0.1c0.1-0.1,0.1-0.2,0.1-0.3l-0.3-0.5
						c-0.1-0.1-0.2-0.1-0.3-0.1c-0.1,0.1-0.1,0.2-0.1,0.3L388.4,292.5z"/>
					<path id="XMLID_535_" class="st1" d="M387.9,292.7c0.1,0.1,0.2,0.1,0.3,0.1c0.1-0.1,0.1-0.2,0.1-0.3L388,292
						c-0.1-0.1-0.2-0.1-0.3-0.1c-0.1,0.1-0.1,0.2-0.1,0.3L387.9,292.7z"/>
					<path id="XMLID_534_" class="st1" d="M387.5,293c0.1,0.1,0.2,0.1,0.3,0.1c0.1-0.1,0.1-0.2,0.1-0.3l-0.3-0.5
						c-0.1-0.1-0.2-0.1-0.3-0.1c-0.1,0.1-0.1,0.2-0.1,0.3L387.5,293z"/>
				</g>
			</g>
		</g>
	</g>
	<g id="XMLID_528_">
		<path id="XMLID_529_" class="st2" d="M392.7,274.2c4.7,1,2.8,6.6-0.8,5.5c-10.4-3.2-14.4,2-4.1,11.4l-1.3,0.7
			C366.1,277.3,381.7,272,392.7,274.2z"/>
	</g>
	<path id="XMLID_527_" class="st1" d="M398.2,284.9c0.1,0,0.2,0,0.3-0.1c0-0.1,0-0.2-0.1-0.3l-0.7-0.2c-0.1,0-0.2,0-0.3,0.1
		c0,0.1,0,0.2,0.1,0.3L398.2,284.9z"/>
	<path id="XMLID_486_" class="st1" d="M388.6,291.6c0.1,0,0.2,0,0.3-0.1c0-0.1,0-0.2-0.1-0.3l-0.7-0.2c-0.1,0-0.2,0-0.3,0.1
		c0,0.1,0,0.2,0.1,0.3L388.6,291.6z"/>
</g>
<g id="Man-2-Head">
	<g id="XMLID_517_">
		<g id="XMLID_519_">
			<g id="XMLID_522_">
				<path id="XMLID_523_" class="st1" d="M398.4,277.9c0.4,1,1.2,2.8,1.2,2.9c0.1,0.1,0,0.3,0.1,0.4s0.3,0.2,0.4,0.1
					c-0.1,0.1-0.2,0.3-0.1,0.4c0.1,0.1,0.3,0.4,0.3,0.4l-0.6,0.4c0,0,0.7,0.6,1.6,1.2c0.9,0.6,1.8,0.5,2.9-0.2
					c1.3-0.8,1.4-2.4,0.8-3.5c-0.4-0.8-1.5-3.8-1.7-5C402.9,273,397.9,276.5,398.4,277.9z"/>
			</g>
			<circle id="XMLID_521_" class="st2" cx="401.7" cy="282.8" r="0.3"/>
			<circle id="XMLID_520_" class="st2" cx="402.3" cy="282.5" r="0.3"/>
		</g>
		<path id="XMLID_518_" class="st2" d="M406,282.3c0.4,0.6,0.1,1.4-0.6,1.7c-0.6,0.2-1,0.7-0.8,1c-0.7-0.1-1.2-0.8-1-1.5
			c0.3-0.6,1.1-1.3,1.8-1.7c-0.3-0.2-0.7-1.6-0.4-1.8C405.9,280.1,406.8,281.6,406,282.3z"/>
	</g>
</g>
<g id="Man-2-Leg-Left">
	<g id="XMLID_513_">
		<g id="XMLID_515_">
			<path id="XMLID_516_" class="st2" d="M383.6,258c-11.9-1.8-17.5-4.4-25.5-16.9c0.3-0.2,1-0.7,1.3-0.9c9.4,10.5,15.3,11,28.7,10.8
				C393.2,251,391,259.1,383.6,258z"/>
		</g>
		<path id="XMLID_514_" class="st2" d="M357.7,240.6c-0.3-0.1-1.1,0.2-1.3,0.6c-0.2,0.4-1.1,0.6-0.8-0.1c0.3-0.7,1.5-1.5,2-1.4
			c-0.1-0.1-0.2-0.2-0.2-0.2l0.9-0.7l0.6,1L357.7,240.6z"/>
	</g>
</g>
<g id="Man-2-Leg-Right">
	<g id="XMLID_509_">
		<g id="XMLID_511_">
			<path id="XMLID_512_" class="st2" d="M387.7,252.3c-1.8-12.2,6.8-26.7,23-16c-0.1,0.3-0.5,1.1-0.7,1.4c-16-7.9-16.4,4.4-15,13.1
				C395.6,254.3,388.5,257.3,387.7,252.3z"/>
		</g>
		<path id="XMLID_510_" class="st2" d="M411.2,236.6c0.3,0,0.9-0.7,0.9-1.1c0-0.4,0.6-0.8,0.7,0c0.1,0.8-0.6,1.8-1,1.9
			c0.1,0.1,0.3,0.1,0.3,0.1l-0.5,1.1l-1-0.6L411.2,236.6z"/>
	</g>
</g>
<g id="Man-2-Scope">
	<polygon id="XMLID_526_" class="st2" points="380.4,306.4 400.9,284 400.6,283.6 400.2,283.3 375.6,300.1 	"/>
	<g id="XMLID_524_">
		<path id="XMLID_525_" class="st0" d="M388.8,297.2l7.8-8.4c-0.3-0.6-1.1-1.5-1.7-1.9l-9.5,6.5C386.4,294.2,388,295.9,388.8,297.2z
			"/>
	</g>
	<g id="XMLID_483_">
		<path id="XMLID_485_" class="st0" d="M375.6,300.1c-0.6,0.8-0.1,2.6,1.1,4.1c1.2,1.5,2.8,2.5,3.8,2.1c1-0.5,0.8-2.5-0.7-4.4
			C378.2,300,376.3,299.2,375.6,300.1z"/>
		<path id="XMLID_484_" class="st1" d="M376,300.7c-0.6,0.6-0.1,2.2,0.9,3.5s2.4,2.1,3.1,1.7c0.8-0.4,0.6-2.1-0.6-3.6
			C378.1,300.6,376.6,300,376,300.7L376,300.7z"/>
	</g>
</g>
<g id="Man-2-Body">
	<g id="XMLID_506_">
		<g id="XMLID_507_">
			<path id="XMLID_508_" class="st2" d="M406.8,272.4c-4.2,3.5-9.9,6.5-13.9,7.4c-3.2,0.7-10.3-14.5-12-26.7
				c3.9-0.8,11.3-2.2,15.1-3C398.6,260.5,410.4,269.4,406.8,272.4z"/>
		</g>
	</g>
	<g id="XMLID_502_">
		<g id="XMLID_504_">
			<path id="XMLID_505_" class="st1" d="M401.3,275.5l-1.7,0.8l0.6,0.8c0.4-0.2,0.9-0.4,1.3-0.6L401.3,275.5z"/>
		</g>
		<path id="XMLID_503_" class="st1" d="M400.9,275.6l-1,0.5c0,0-3.1-4.6-7.9-10.6c0.2-1,0.5-2.4,0.5-2.4s1.7,0.3,2.5,0.5
			C398.6,270.8,400.9,275.6,400.9,275.6z"/>
	</g>
</g>
<g id="Man-2-Arm-Right">
	<g id="XMLID_487_">
		<g id="XMLID_500_">
			<path id="XMLID_501_" class="st2" d="M404.9,268.1c3.7,3-0.8,7.1-3.4,4.4c-7.5-7.9-12.1,0.9-4.1,11.9l-1.3,0.7
				C381.2,266.7,397,261.7,404.9,268.1z"/>
		</g>
		<g id="XMLID_496_">
			<g id="XMLID_498_">
				<path id="XMLID_499_" class="st3" d="M395.4,270.4c1.3-0.8,4-0.3,6.2,2.1c2.1,2.2,6.4-1.7,3.4-4.4c-3.8-3.3-8.7-4.7-12.3-2.6
					l0,0c-3.2,1.8-5.4,6-1.3,13.9c0.5,0.4,1,0.6,1.4,0.5c0.7-0.2,1.5-0.4,2.4-0.7c-1.2-2.8-1.4-5.3-1.1-6.7
					C394.3,271.4,394.7,270.7,395.4,270.4z"/>
			</g>
			<path id="XMLID_497_" class="st2" d="M404.9,268.1c3.6,3.1-0.8,7.1-3.4,4.4c-7.5-7.9-12.1,0.9-4.1,11.9l-1.3,0.7
				C381.2,266.7,396.5,260.7,404.9,268.1z"/>
		</g>
		<g id="XMLID_488_">
			<g id="XMLID_489_">
				<g id="XMLID_490_">
					<path id="XMLID_495_" class="st1" d="M396.7,286.5c0.1,0.1,0.2,0.1,0.3,0.1c0.1-0.1,0.1-0.2,0.1-0.3l-0.3-0.5
						c-0.1-0.1-0.2-0.1-0.3-0.1c-0.1,0.1-0.1,0.2-0.1,0.3L396.7,286.5z"/>
					<path id="XMLID_494_" class="st1" d="M396.1,285.4c-0.1-0.1,0-0.3,0.1-0.3l1.3-0.7c0.1-0.1,0.3,0,0.3,0.1l0.5,0.8
						c0.1,0.1,0,0.3-0.1,0.3l-1.3,0.7c-0.1,0.1-0.3,0-0.3-0.1L396.1,285.4z"/>
					<path id="XMLID_493_" class="st1" d="M398.1,285.8c0.1,0.1,0.2,0.1,0.3,0.1c0.1-0.1,0.1-0.2,0.1-0.3l-0.3-0.5
						c-0.1-0.1-0.2-0.1-0.3-0.1c-0.1,0.1-0.1,0.2-0.1,0.3L398.1,285.8z"/>
					<path id="XMLID_492_" class="st1" d="M397.6,286c0.1,0.1,0.2,0.1,0.3,0.1c0.1-0.1,0.1-0.2,0.1-0.3l-0.3-0.5
						c-0.1-0.1-0.2-0.1-0.3-0.1c-0.1,0.1-0.1,0.2-0.1,0.3L397.6,286z"/>
					<path id="XMLID_491_" class="st1" d="M397.2,286.3c0.1,0.1,0.2,0.1,0.3,0.1c0.1-0.1,0.1-0.2,0.1-0.3l-0.3-0.5
						c-0.1-0.1-0.2-0.1-0.3-0.1c-0.1,0.1-0.1,0.2-0.1,0.3L397.2,286.3z"/>
				</g>
			</g>
		</g>
	</g>
</g>
<g id="Man-1-Head">
	<g id="XMLID_581_">
		<g id="XMLID_583_">
			<g id="XMLID_586_">
				<path id="XMLID_587_" class="st1" d="M42,287.1c-1.1,0.4-2.3,0.2-3.3-0.9c-1.1-1.2-0.9-1.8-0.1-3.5c0,0,0.3-2.6-0.1-3.8
					c0.1-0.8,6-3.1,6.3-1.9c0.4,1.6,0.3,5.9-0.1,7c-0.1,0.4-0.3,0.8-0.6,0.7c0,0.4-0.1,0.5-0.3,0.6c-0.1,0.1-0.5,0.4-0.5,0.4
					l0.5,0.6C44,286.3,43.1,286.7,42,287.1z"/>
			</g>
			<circle id="XMLID_585_" class="st2" cx="41.8" cy="286.1" r="0.3"/>
			<circle id="XMLID_584_" class="st2" cx="41.3" cy="285.6" r="0.3"/>
		</g>
		<path id="XMLID_582_" class="st2" d="M37.4,284.6c-0.4,0.5-0.3,1.2,0.3,1.6c0.5,0.3,0.8,0.8,0.6,1c0.7,0.1,1.1-0.6,1-1.2
			s-1-1.5-1.2-1.7c0.3-0.1,0.8-1.3,0.6-1.6C37.8,282.7,36.8,283.9,37.4,284.6z"/>
	</g>
</g>
<g id="Man-1-Arm-Right__x26__Bag">
	<g id="XMLID_579_">
		<path id="XMLID_580_" class="st2" d="M46.9,281.2c-17.3-13.6,0.1-20.5,9.5-7.8l-1.3,1.8c-7.2-8.2-15.3-6.2-7.5,1.1
			C49.6,278.2,48,281.5,46.9,281.2z"/>
	</g>
	<g id="Man-1-Bag">
		<g id="XMLID_564_">
			<path id="XMLID_578_" class="st4" d="M55.8,276.5c0,0.2-0.1,0.3-0.3,0.4c-0.2,0-0.3-0.1-0.4-0.3l-0.2-1.1c0-0.2,0.1-0.3,0.3-0.4
				c0.2,0,0.3,0.1,0.4,0.3L55.8,276.5z"/>
			<path id="XMLID_577_" class="st4" d="M56.9,273.3c-0.2-0.1-0.4-0.1-0.5,0.1l-1.3,1.8c-0.1,0.2-0.1,0.4,0.1,0.5l1.2,0.8
				c0.2,0.1,0.4,0.1,0.5-0.1l1.3-1.8c0.1-0.2,0.1-0.4-0.1-0.5L56.9,273.3z"/>
			<g id="XMLID_573_">
				<path id="XMLID_574_" class="st5" d="M52.9,275.8l-0.4-0.3l-1.1,1.6c0,0.1-0.1,0.1-0.1,0.1c-0.1,0-0.2,0-0.2-0.1l-3.2-2.2
					c-0.1-0.1-0.2-0.2-0.1-0.3l1.1-1.6l-0.4-0.3l-1.1,1.6c-0.2,0.4-0.1,0.8,0.2,1.1l3.2,2.2c0.2,0.1,0.4,0.2,0.6,0.2
					c0.2,0,0.4-0.1,0.5-0.3L52.9,275.8L52.9,275.8z"/>
			</g>
			<g id="XMLID_569_">
				<path id="XMLID_570_" class="st5" d="M49.3,265.5c0.3-0.5,1-0.6,1.5-0.3l8.2,5.7c0.5,0.3,0.6,1,0.3,1.5l-3.7,5.4
					c-0.3,0.5-1,0.6-1.5,0.3l-8.2-5.7c-0.5-0.3-0.6-1-0.3-1.5L49.3,265.5z"/>
			</g>
			<path id="XMLID_568_" class="st1" d="M58.5,274.5c0.1,0.1,0.2,0.3,0.1,0.4c-0.1,0.1-0.3,0.2-0.4,0.1l-0.8-0.5
				c-0.1-0.1-0.2-0.3-0.1-0.4c0.1-0.1,0.3-0.2,0.4-0.1L58.5,274.5z"/>
			<path id="XMLID_567_" class="st1" d="M57.2,276.4c0.1,0.1,0.2,0.3,0.1,0.4c-0.1,0.1-0.3,0.2-0.4,0.1l-0.8-0.5
				c-0.1-0.1-0.2-0.3-0.1-0.4c0.1-0.1,0.3-0.2,0.4-0.1L57.2,276.4z"/>
			<path id="XMLID_566_" class="st1" d="M57.6,275.8c0.1,0.1,0.2,0.3,0.1,0.4c-0.1,0.1-0.3,0.2-0.4,0.1l-0.8-0.5
				c-0.1-0.1-0.2-0.3-0.1-0.4c0.1-0.1,0.3-0.2,0.4-0.1L57.6,275.8z"/>
			<path id="XMLID_565_" class="st1" d="M58.1,275.1c0.1,0.1,0.2,0.3,0.1,0.4c-0.1,0.1-0.3,0.2-0.4,0.1l-0.8-0.5
				c-0.1-0.1-0.2-0.3-0.1-0.4c0.1-0.1,0.3-0.2,0.4-0.1L58.1,275.1z"/>
		</g>
	</g>
</g>
<g id="Man-1-Arm-Left">
	<g id="XMLID_562_">
		<path id="XMLID_563_" class="st2" d="M35.4,278.9c-10.3-2.1-20.5-7.6-18.3-22l2.2-0.1c0.5,10.9,6,15.5,15.5,16.3
			C38,273.4,39.6,279.8,35.4,278.9z"/>
	</g>
	<g id="XMLID_544_">
		<g id="XMLID_551_">
			<path id="XMLID_552_" class="st1" d="M16.8,256.6c0,0.2,0.2,0.4,0.4,0.4l2.2-0.1c0.2,0,0.4-0.2,0.4-0.4l-0.1-1.4
				c0-0.2-0.2-0.4-0.4-0.4l-2.2,0.1c-0.2,0-0.4,0.2-0.4,0.4L16.8,256.6z"/>
		</g>
		<path id="XMLID_550_" class="st1" d="M19.9,255.5c0.1-0.1,0.3-0.1,0.5,0c0.1,0.1,0.1,0.3,0,0.5l-0.8,0.9c-0.1,0.1-0.3,0.1-0.5,0
			c-0.1-0.1-0.1-0.3,0-0.5L19.9,255.5z"/>
		<g id="XMLID_545_">
			<path id="XMLID_549_" class="st1" d="M16.6,254.6c0-0.2,0.1-0.3,0.3-0.3c0.2,0,0.3,0.1,0.3,0.3v0.6c0,0.2-0.1,0.3-0.3,0.3
				c-0.2,0-0.3-0.1-0.3-0.3V254.6z"/>
			<path id="XMLID_548_" class="st1" d="M19,254.5c0-0.2,0.1-0.3,0.3-0.3c0.2,0,0.3,0.1,0.3,0.3v0.6c0,0.2-0.1,0.3-0.3,0.3
				c-0.2,0-0.3-0.1-0.3-0.3V254.5z"/>
			<path id="XMLID_547_" class="st1" d="M18.2,254.6c0-0.2,0.1-0.3,0.3-0.3c0.2,0,0.3,0.1,0.3,0.3v0.6c0,0.2-0.1,0.3-0.3,0.3
				c-0.2,0-0.3-0.1-0.3-0.3V254.6z"/>
			<path id="XMLID_546_" class="st1" d="M17.4,254.6c0-0.2,0.1-0.3,0.3-0.3c0.2,0,0.3,0.1,0.3,0.3v0.6c0,0.2-0.1,0.3-0.3,0.3
				c-0.2,0-0.3-0.1-0.3-0.3V254.6z"/>
		</g>
	</g>
</g>
<g id="Man-1-Body">
	<path id="XMLID_561_" class="st2" d="M46.9,281.2c0,0,1.1-13.1,6.8-23c-5-2.9-9.5-5.5-12.7-7.4c-6.6,11.3-7.3,20-5.6,28
		C36.6,279.2,46.9,281.2,46.9,281.2z"/>
</g>
<g id="Man-1-Leg-Left">
	<g id="XMLID_553_">
		<path id="XMLID_556_" class="st2" d="M41.9,223.2c0.1-0.3,0.8-0.6,1.3-0.5c0.4,0,0.9-0.5,0.2-0.7c-1-0.2-1.9,0.1-2.1,0.5
			c0-0.1,0-0.3,0-0.3l-1.1,0.2l0.3,1.1L41.9,223.2z"/>
		<g id="XMLID_554_">
			<path id="XMLID_555_" class="st2" d="M52.9,256.1c-1.3-6.9-7.2-24.7-10.9-32.3c-0.4,0.1,0,0-1.6,0.2c2.8,7.8,3.8,20.2,4.7,29.8
				C45.6,258.9,53.8,261.1,52.9,256.1z"/>
		</g>
	</g>
</g>
<g id="Man-1-Leg-Right">
	<g id="XMLID_557_">
		<path id="XMLID_560_" class="st2" d="M51.2,243.8l0.9-1.2c-0.1-0.3,0.1-1.1,0.5-1.3s0.3-0.9-0.4-0.6c-0.7,0.3-1.2,1.4-1.1,1.8
			c-0.1-0.1-0.3-0.2-0.3-0.2l-0.7,0.9L51.2,243.8z"/>
		<g id="XMLID_558_">
			<path id="XMLID_559_" class="st2" d="M43.9,257.7c18.6,6.6,29.8-2.9,8.7-14.9c-0.2,0.3-0.7,1-0.9,1.3c14.5,10.2,7.6,13.8-6.5,7.2
				C40.6,249.2,39.2,256,43.9,257.7z"/>
		</g>
	</g>
</g>
<g id="Man-1-Tie">
	<g id="XMLID_540_">
		<g id="XMLID_542_">
			<path id="XMLID_543_" class="st6" d="M43.3,279.1c-0.4,0.8,0.7,1.1,1,0.4c3-7-2.9-11.8-9.4-14.6c-1,0.5-2.4,1.2-2.4,1.2
				s0.9,1.8,1.2,2.4C40,270.1,45.7,273.6,43.3,279.1z"/>
		</g>
		<polygon id="XMLID_541_" class="st6" points="42.8,280.4 44.1,280.7 44.7,279.4 43,278.8 		"/>
	</g>
</g>
<g id="Woman-3-Arm-Left">
	<polygon id="XMLID_128_" class="st1" points="350.2,85.2 342.5,74.9 341.4,75.8 348.7,85.9 352.1,90.3 353.9,89.3 	"/>
	<g id="XMLID_118_">
		<path id="XMLID_126_" class="st1" d="M342.4,74.9c-0.1,0-0.2-0.1-0.2-0.3l0.1-0.8c0-0.1,0.1-0.2,0.3-0.2l0,0
			c0.1,0,0.2,0.1,0.2,0.3l-0.1,0.8C342.6,74.9,342.5,75,342.4,74.9z"/>
		<g id="XMLID_119_">
			<g id="XMLID_120_">
				<path id="XMLID_125_" class="st1" d="M341.1,75.8c0.1,0.1,0.2,0.1,0.4,0l1.1-0.9c0.1-0.1,0.1-0.2,0-0.4l-0.5-0.6
					c-0.1-0.1-0.2-0.1-0.4,0l-1.1,0.9c-0.1,0.1-0.1,0.2,0,0.4L341.1,75.8z"/>
				<path id="XMLID_124_" class="st1" d="M342.1,74.3c0.1-0.1,0.1-0.2,0-0.3l-0.6-0.8c-0.1-0.1-0.2-0.1-0.3,0s-0.1,0.2,0,0.3
					l0.6,0.8C341.8,74.4,342,74.4,342.1,74.3z"/>
				<path id="XMLID_123_" class="st1" d="M341.7,74.6c0.1-0.1,0.1-0.2,0-0.3l-0.6-0.8c-0.1-0.1-0.2-0.1-0.3,0s-0.1,0.2,0,0.3
					l0.6,0.8C341.4,74.7,341.6,74.7,341.7,74.6z"/>
				<path id="XMLID_122_" class="st1" d="M341.3,74.9c0.1-0.1,0.1-0.2,0-0.3l-0.6-0.8c-0.1-0.1-0.2-0.1-0.3,0s-0.1,0.2,0,0.3
					l0.6,0.8C341.1,75,341.2,75,341.3,74.9z"/>
				<path id="XMLID_121_" class="st1" d="M340.9,75.2c0.1-0.1,0.1-0.2,0-0.3l-0.6-0.8c-0.1-0.1-0.2-0.1-0.3,0s-0.1,0.2,0,0.3
					l0.6,0.8C340.7,75.3,340.8,75.3,340.9,75.2z"/>
			</g>
		</g>
	</g>
</g>
<g id="Woman-3-Arm-Left-Sleeve">
	<polygon id="XMLID_127_" class="st2" points="358.1,93.8 352.5,87.3 350.6,88.9 356.6,95.5 	"/>
</g>
<g id="Woman-3-Leg-Right">
	<g id="XMLID_113_">
		<path id="XMLID_116_" class="st1" d="M372.3,122.2c1.6,1,18.6,10,18.6,10l-1.1-1.4c-2.7-1.3-6.1-3.9-8.4-6
			c-2.3-2.2-3.1-2.6-3.6-2.8c-0.6-0.2-2.8-1.3-2.8-1.3l-4.4-0.9L372.3,122.2z"/>
		<path id="XMLID_115_" class="st2" d="M388.9,130.3c0,0,0.3-0.4,0.8-0.4c0.5,0.6,1.9,1.6,1.9,1.6l-0.1,0.2L388.9,130.3z"/>
		<polygon id="XMLID_114_" class="st2" points="390.9,132.2 390.2,133.7 390.4,131.9 		"/>
	</g>
</g>
<g id="Woman-3-Leg-Left">
	<g id="XMLID_109_">
		<path id="XMLID_112_" class="st1" d="M362.1,122.2C361.7,124,360,141,360,141l0.9-1.5c0.2-3,1.3-7.1,2.4-10.1
			c1.1-3,1.2-3.8,1.2-4.4s-0.1-2.5-0.1-2.5L362.1,122.2z"/>
		<path id="XMLID_111_" class="st2" d="M361,138.4c0,0,0.5,0.2,0.6,0.6c-0.4,0.6-0.8,2.4-0.8,2.4h-0.2L361,138.4z"/>
		<polygon id="XMLID_110_" class="st2" points="360,141 358.4,140.9 360.1,140.5 		"/>
	</g>
</g>
<g id="Woman-3-Skirt">
	<path id="XMLID_108_" class="st2" d="M369.4,105.5c0.7,1,2.4,1.6,3.3,4.4c0.9,2.9,3.7,10.8,3.7,10.8l-15.1,2.5
		c0,0,3.5-15.3,3.8-16.9C365.4,104.4,369,105,369.4,105.5z"/>
</g>
<g id="Woman-3-Head">
	<g id="XMLID_98_">
		<g id="XMLID_99_">
			<path id="XMLID_106_" class="st2" d="M353.4,81.6c-1.2,0.6-3.4,3.3-3.4,4.8c0,0.9,1.5,2.1,2.3,2.3
				C353.2,88.9,354.9,80.8,353.4,81.6z"/>
			<g id="XMLID_104_">
				<path id="XMLID_105_" class="st4" d="M356.5,88.6c2.3-2.3,0.9-5.5-0.4-6.5c-1.1-0.8-2-0.6-2.7-0.3c-1.1,0.5-2.8,3.7-2.8,3.7h0.6
					c0,0-0.1,1.5,0.3,2.2c1,1.7,2.8,1.4,5.2,4.2c0.9,1,0.9-0.1,0.9-0.6C356.6,90.2,355.9,89.2,356.5,88.6z"/>
			</g>
			<path id="XMLID_103_" class="st2" d="M353.2,82c-0.3,1.1,1.1,2,2.3,3c1.3,1.1,0.8,4-0.2,4.6c2.2-0.3,4.1-0.7,5.1-1
				c0.5-5.1-3.1-7.3-4.5-7.5c-1.7-0.2-2.9,0.2-3.9,2C352.4,82.8,352.5,82.7,353.2,82z"/>
			<g id="XMLID_100_">
				<circle id="XMLID_102_" class="st2" cx="352.3" cy="84" r="0.3"/>
				<circle id="XMLID_101_" class="st2" cx="353.1" cy="84.2" r="0.3"/>
			</g>
		</g>
	</g>
</g>
<g id="Woman-3-Body">
	<path id="XMLID_107_" class="st7" d="M356,92.4c0.5-0.4,1.9-1.3,2.5-1.7c3.5,4,5.3,13.3,11,14.9c-0.8,0.6-3.9,1.6-4.8,2.2
		c-0.3-1.7-3.6-5.5-5.5-7.7C358.3,100.2,356.6,94,356,92.4z"/>
	<polygon id="XMLID_97_" class="st4" points="356.1,92.3 357,93.6 358.7,98 357.4,93.3 357.9,91.1 	"/>
	<path id="XMLID_96_" class="st2" d="M359.7,89.9l-1.8,1.2l0.6,7.2l-2.5-5.9l-0.4,0.3c0,0,2.1,5.4,1.4,6.7c0.5,0.7,1.4,1.1,2.2,0.8
		c2,2.5,4.3,6.9,5.3,8.5c0.6-0.4,5.5-2.8,6.3-3.3c-3.4-0.1-7.9-7.6-9.2-12C360.7,90.3,359.7,89.9,359.7,89.9z"/>
	<polygon id="XMLID_91_" class="st8" points="358.7,97.7 359.5,94.1 359.5,94.1 358.5,93.6 359.3,93 358.3,91.2 358.2,91.2 
		359.3,93 358.4,93.6 358.5,93.7 359.5,94.1 	"/>
</g>
<g id="Woman-3-Arm-Right">
	<g id="XMLID_52_">
		
			<rect id="XMLID_90_" x="372.9" y="93.9" transform="matrix(-0.5679 0.8231 -0.8231 -0.5679 674.4097 -158.0051)" class="st2" width="11.6" height="8.3"/>
		<polygon id="XMLID_89_" class="st4" points="382.6,94 382.6,93.9 376.6,102.5 372.9,99.9 372.9,100 376.7,102.6 		"/>
		<g id="XMLID_86_">
			<path id="XMLID_88_" class="st2" d="M377.2,94.1l-1.3-0.9c-0.3-0.2-0.7-0.1-0.9,0.2l-1.9,2.7c-0.2,0.3-0.2,0.7,0.1,0.9l1.3,0.9
				l0.3-0.4l-1.3-0.9c-0.1-0.1-0.1-0.2,0-0.3l1.9-2.7c0.1-0.1,0.2-0.1,0.3-0.1l1.3,0.9L377.2,94.1z"/>
		</g>
		<g id="XMLID_53_">
			<polygon id="XMLID_85_" class="st1" points="381.3,99.4 372.1,92.7 366.7,91.5 366.5,93.5 371.7,94.4 380.6,100.6 			"/>
			<path id="XMLID_84_" class="st2" d="M360.4,89.7c1,0.1,10.3,2.2,10.3,2.2l-0.2,2.8c0,0-9-1.4-10.5-1.6S358.7,89.5,360.4,89.7z"/>
			<g id="XMLID_54_">
				<g id="XMLID_55_">
					<path id="XMLID_83_" class="st1" d="M380.7,100.5c0.1,0,0.3,0.1,0.3,0.2l0.2,0.8c0,0.1-0.1,0.3-0.2,0.3l0,0
						c-0.1,0-0.3-0.1-0.3-0.2l-0.2-0.8C380.5,100.7,380.6,100.5,380.7,100.5z"/>
					<g id="XMLID_56_">
						<g id="XMLID_57_">
							<path id="XMLID_82_" class="st1" d="M381.7,99.3c-0.1-0.1-0.3,0-0.3,0.1l-0.8,1.2c-0.1,0.1,0,0.3,0.1,0.3l0.6,0.4
								c0.1,0.1,0.3,0,0.3-0.1l0.8-1.2c0.1-0.1,0-0.3-0.1-0.3L381.7,99.3z"/>
							<g id="XMLID_58_">
								<path id="XMLID_81_" class="st1" d="M381.5,101c-0.1-0.1-0.1-0.2-0.1-0.3c0.1-0.1,0.2-0.1,0.3-0.1l0.4,0.3
									c0.1,0.1,0.1,0.2,0.1,0.3l0,0c-0.1,0.1-0.2,0.1-0.3,0.1L381.5,101z"/>
								<path id="XMLID_80_" class="st1" d="M381.3,101.4c-0.1-0.1-0.1-0.2-0.1-0.3c0.1-0.1,0.2-0.1,0.3-0.1l0.4,0.3
									c0.1,0.1,0.1,0.2,0.1,0.3l0,0c-0.1,0.1-0.2,0.1-0.3,0.1L381.3,101.4z"/>
								<path id="XMLID_79_" class="st1" d="M381.7,100.2c0.1-0.1,0.2-0.1,0.3-0.1l0.4,0.3c0.1,0.1,0.1,0.2,0.1,0.3l0,0
									c-0.1,0.1-0.2,0.1-0.3,0.1l-0.4-0.3C381.7,100.5,381.6,100.3,381.7,100.2z"/>
								<path id="XMLID_60_" class="st1" d="M382.1,100.1c-0.1-0.1-0.1-0.2-0.1-0.3c0.1-0.1,0.2-0.1,0.3-0.1l0.4,0.3
									c0.1,0.1,0.1,0.2,0.1,0.3c-0.1,0.1-0.2,0.1-0.3,0.1L382.1,100.1z"/>
							</g>
						</g>
					</g>
				</g>
			</g>
		</g>
	</g>
</g>
<g id="Woman-2-Head">
	<g id="XMLID_622_">
		<g id="XMLID_623_">
			<g id="XMLID_624_">
				<path id="XMLID_632_" class="st2" d="M217.8,71.1c0.6-0.4,2-0.5,2.8,0.4C221.5,72.4,216.9,71.7,217.8,71.1z"/>
				<g id="XMLID_630_">
					<path id="XMLID_631_" class="st4" d="M221.1,77.8c-3.6,0.7-5.2-2.5-4.6-4.2c0.3-0.9,0.6-2.3,1.3-2.5c1.3-0.3,5,1.1,5,1.1
						l-0.5,0.4c0,0,1.2,1.2,1.3,2.1c0.3,1.6-0.8,3.2-0.8,6.1c0,1.4-1.1,1.2-1.1,0.1C221.6,80,221.2,78.4,221.1,77.8z"/>
				</g>
				<g id="XMLID_627_">
					<path id="XMLID_629_" class="st2" d="M220.7,72c0.2,0.1,0.2,0.3,0.1,0.5c-0.1,0.2-0.3,0.2-0.5,0.1s-0.2-0.3-0.1-0.5
						C220.3,71.9,220.5,71.8,220.7,72z"/>
					<circle id="XMLID_628_" class="st2" cx="219.9" cy="72.8" r="0.4"/>
				</g>
				<path id="XMLID_626_" class="st2" d="M221.1,77.8c-2.4,0.3-3.4-1.1-2.1-1.3c0-2.1,0.2-5.2-1.1-5.4c-2-0.4-3.9,1.9-3.6,4.1
					C214.7,78,218.9,79.1,221.1,77.8z"/>
				<path id="XMLID_625_" class="st2" d="M215.4,76.7c0-0.9,0.4-3.1-1.4-3.4c-1-0.1-2,0.4-1.8,1.4C212.6,76.1,214.4,77.4,215.4,76.7
					z"/>
			</g>
		</g>
	</g>
</g>
<g id="Woman-2-Leg-Right">
	<g id="XMLID_618_">
		<path id="XMLID_621_" class="st1" d="M220.9,114.6l3.8-1.7l0.4,4c0.9,1.3,5,21.4,5,21.4l-1.2-1.5c-0.8-3.2-2.6-8.8-4.7-11.6
			c-1.9-2.5-0.5-5.1-0.7-6.6L220.9,114.6z"/>
		<path id="XMLID_620_" class="st2" d="M228.6,135.6c0,0-0.5,0.3-0.6,0.7c0.5,0.6,1.3,2.4,1.3,2.4l0.2-0.1L228.6,135.6z"/>
		<polygon id="XMLID_619_" class="st2" points="230.1,138.3 231.9,137.9 230,137.7 		"/>
	</g>
</g>
<g id="Woman-2-Leg-Left">
	<g id="XMLID_614_">
		<path id="XMLID_617_" class="st1" d="M217.9,114.1l3.9,1.3l-2.4,3.2c-0.3,1.5-10.8,19.1-10.8,19.1l0.1-1.9
			c1.6-2.9,4.1-8.2,4.5-11.7c0.3-3.2,3.1-4.1,4-5.3L217.9,114.1z"/>
		<path id="XMLID_616_" class="st2" d="M209.3,134.7c0,0-0.6-0.1-0.9,0.1c-0.1,0.8-0.7,2.7-0.7,2.7l0.2,0.1L209.3,134.7z"/>
		<polygon id="XMLID_615_" class="st2" points="208.6,137.8 210.1,138.6 208.8,137.2 		"/>
	</g>
</g>
<g id="Woman-2-Skirt">
	<path id="XMLID_613_" class="st2" d="M220.7,99.5c-1.5,1.7-3.3,1.4-4.8,4.7c-1.4,3,0.5,14.2,0.5,14.2l10.1,0.7l-3.1-19.6
		L220.7,99.5z"/>
</g>
<g id="Woman-2-Body">
	<path id="XMLID_609_" class="st9" d="M223.7,81.2c-0.7-0.1-2.5-0.3-3.3-0.4c-3.4,5.9,2.8,9,3.8,8.3C225.1,88.8,224,83.1,223.7,81.2
		z"/>
	<polygon id="XMLID_608_" class="st4" points="223.2,81.2 224,87.9 221.2,80.9 	"/>
	<path id="XMLID_607_" class="st2" d="M219,80.8c0.9-0.2,2.2,0.1,2.2,0.1l3.1,7.3l-0.6-7.1h0.5c0,0,0.7,6.4,2.1,7.2
		c-0.1,0.9-0.8,1.8-1.7,1.9c0.3,3.7-0.4,8.2,0.2,11.2c-0.8,0-6.8-0.3-7.9-0.3c3.1-2.1,1.9-12.8,1.2-17.7
		C218,81.6,218.4,80.9,219,80.8z"/>
	<polygon id="XMLID_606_" class="st8" points="224.2,89.2 220.4,84.9 221.5,83.8 220.2,83.2 220.9,81.1 220.9,81.1 220.3,83.2 
		221.6,83.7 220.5,84.9 224.3,89.1 	"/>
</g>
<g id="Woman-2-Arms__x26__Flag_Pole">
	<polygon id="XMLID_610_" class="st1" points="241.1,72.8 229.6,80.8 223.7,81.4 223.9,83.1 230,82.5 241.3,74 	"/>
	<g id="Layer_56">
		
			<rect id="XMLID_602_" x="243" y="0" transform="matrix(-0.999 -4.544935e-02 4.544935e-02 -0.999 484.7488 92.1196)" class="st0" width="0.8" height="81.1"/>
	</g>
	<g id="Layer_55">
		<g id="XMLID_596_">
			<path id="XMLID_601_" class="st1" d="M242.4,65.9h0.5c0.1,0,0.2,0.1,0.2,0.2s-0.1,0.2-0.2,0.2h-0.5c-0.1,0-0.2-0.1-0.2-0.2
				S242.3,65.9,242.4,65.9z"/>
			<path id="XMLID_600_" class="st1" d="M242.4,65.5h0.5c0.1,0,0.2,0.1,0.2,0.2s-0.1,0.2-0.2,0.2h-0.5c-0.1,0-0.2-0.1-0.2-0.2
				S242.3,65.5,242.4,65.5z"/>
			<path id="XMLID_599_" class="st1" d="M242.4,65h0.5c0.1,0,0.2,0.1,0.2,0.2s-0.1,0.2-0.2,0.2h-0.5c-0.1,0-0.2-0.1-0.2-0.2
				S242.3,65,242.4,65z"/>
			<path id="XMLID_598_" class="st1" d="M241.5,64.6l0.6-0.5c0.1-0.1,0.2-0.1,0.3,0s0.1,0.2,0,0.3l-0.6,0.5c-0.1,0.1-0.2,0.1-0.3,0
				S241.4,64.7,241.5,64.6z"/>
			<path id="XMLID_597_" class="st1" d="M242.4,64.6h0.5c0.1,0,0.2,0.1,0.2,0.2S243,65,242.9,65h-0.5c-0.1,0-0.2-0.1-0.2-0.2
				S242.3,64.6,242.4,64.6z"/>
		</g>
	</g>
	<g id="Layer_54">
		<path id="XMLID_595_" class="st1" d="M241.3,72.5h0.9c0.1,0,0.2,0.1,0.2,0.2l-0.1,1.3c0,0.1-0.1,0.2-0.2,0.2h-0.9
			c-0.1,0-0.2-0.1-0.2-0.2l0.1-1.3C241.1,72.6,241.2,72.5,241.3,72.5z"/>
		<g id="XMLID_590_">
			<path id="XMLID_594_" class="st1" d="M242,73.8h0.5c0.1,0,0.2,0.1,0.2,0.2s-0.1,0.2-0.2,0.2H242c-0.1,0-0.2-0.1-0.2-0.2
				S241.9,73.8,242,73.8z"/>
			<path id="XMLID_593_" class="st1" d="M242,73.4h0.5c0.1,0,0.2,0.1,0.2,0.2s-0.1,0.2-0.2,0.2H242c-0.1,0-0.2-0.1-0.2-0.2
				S241.9,73.4,242,73.4z"/>
			<path id="XMLID_592_" class="st1" d="M242.1,73h0.5c0.1,0,0.2,0.1,0.2,0.2s-0.1,0.2-0.2,0.2h-0.5c-0.1,0-0.2-0.1-0.2-0.2
				C241.9,73,242,73,242.1,73z"/>
			<path id="XMLID_591_" class="st1" d="M242.1,72.5h0.5c0.1,0,0.2,0.1,0.2,0.2s-0.1,0.2-0.2,0.2h-0.5c-0.1,0-0.2-0.1-0.2-0.2
				C241.9,72.6,242,72.5,242.1,72.5z"/>
		</g>
	</g>
	<path id="XMLID_603_" class="st1" d="M241.1,72.5l0.6-0.5c0.1-0.1,0.2-0.1,0.3,0s0.1,0.2,0,0.3l-0.6,0.5c-0.1,0.1-0.2,0.1-0.3,0
		C241,72.7,241,72.6,241.1,72.5z"/>
	<path id="XMLID_604_" class="st1" d="M241.6,64.6h0.9c0.1,0,0.2,0.1,0.2,0.2l-0.1,1.3c0,0.1-0.1,0.2-0.2,0.2h-0.9
		c-0.1,0-0.2-0.1-0.2-0.2l0.1-1.3C241.4,64.6,241.5,64.6,241.6,64.6z"/>
	<polygon id="XMLID_612_" class="st1" points="241.4,65.1 230.4,76.9 224.7,80.8 225.9,82 231.6,78.4 242.1,66 	"/>
</g>
<g id="Woman-2-Arm-Left-Sleeve">
	<path id="XMLID_611_" class="st2" d="M221.9,81.6c0.8-0.4,7.9-5.1,7.9-5.1l1.6,2.8c0,0-6.1,4.1-7.4,4.9
		C223.3,84.6,221,82,221.9,81.6z"/>
</g>
<g id="Woman-2-Arm-Right-Sleeve">
	<path id="XMLID_605_" class="st2" d="M219,80.8c0.9-0.1,9.6-0.4,9.6-0.4l0.4,2.9c0,0-7.7,0.7-9.5,0.7C218.9,84,218.1,81,219,80.8z"
		/>
</g>
<g id="Woman-2-Flag">
	<path id="XMLID_589_" class="st1" d="M244.9,0l-1.5,32c-7.1,8.3-19.5,11.1-29.2,3.4c-9.5-7.5-22.2-3.9-28.6,4.4
		c-2.8-5.7,2.3-18.1-2.3-26.7c6.5-8.6,19.8-10.8,31.1-4.5C225.8,14.9,237.3,9.5,244.9,0z"/>
</g>
<g id="Woman-1-Arm-Right">
	<polygon id="XMLID_453_" class="st1" points="117.4,149 120.2,148.8 115.5,141.9 113.1,141.5 113,141.1 113.7,140.9 112.9,140.6 
		113,139.7 114.5,139.3 116.1,140.4 123.8,149.4 118.3,150.8 	"/>
</g>
<g id="Woman-1-Arm-Right-Sleeve">
	
		<linearGradient id="XMLID_2_" gradientUnits="userSpaceOnUse" x1="1250.1086" y1="-38.9359" x2="1252.5443" y2="-43.6791" gradientTransform="matrix(0.3711 -0.9286 -0.9286 -0.3711 -386.3415 1296.7438)">
		<stop  offset="0" style="stop-color:#84567E"/>
		<stop  offset="1" style="stop-color:#63295C"/>
	</linearGradient>
	<path id="XMLID_451_" class="st10" d="M107.4,149.3l11.2-0.5l0.5,2.2c0,0-8.6,1.5-10.5,1.4C106.6,152.2,107.4,149.3,107.4,149.3z"
		/>
</g>
<g id="Woman-1-Leg-Right">
	<g id="XMLID_454_">
		<path id="XMLID_457_" class="st1" d="M118.5,178c1.3,1.5,11.7,16.3,11.7,16.3l-1.6-1c-1.7-2.6-4.8-5.9-7.4-8
			c-2.6-2.2-3.1-2.9-3.4-3.5c-0.3-0.6-1.1-2.4-1.1-2.4L118.5,178z"/>
		<path id="XMLID_456_" class="st2" d="M128,192.4c0,0-0.4,0.4-0.3,0.8c0.7,0.4,1.9,1.8,1.9,1.8l0.2-0.2L128,192.4z"/>
		<polygon id="XMLID_455_" class="st2" points="130.2,194.3 131.7,193.3 129.9,193.8 		"/>
	</g>
</g>
<g id="Woman-1-Leg-Left">
	<g id="XMLID_458_">
		<path id="XMLID_461_" class="st1" d="M104.2,182.8l2.9-1.1v4.5c-0.4,0.9-16.9,12.8-16.9,12.8l0.9-1.6c2.6-1.8,5.8-5,7.9-7.6
			c2.1-2.6,2.8-3.1,3.4-3.4c0.6-0.3,2.3-1.2,2.3-1.2L104.2,182.8z"/>
		<path id="XMLID_460_" class="st2" d="M92,196.6c0,0-0.4-0.4-0.9-0.3c-0.4,0.7-1.8,2-1.8,2l0.2,0.2L92,196.6z"/>
		<polygon id="XMLID_459_" class="st2" points="90.2,198.9 91.1,200.4 90.6,198.6 		"/>
	</g>
</g>
<g id="Woman-1-Skirt">
	<path id="XMLID_452_" class="st2" d="M104.5,168.5c-0.5,1.2-2.3,2-2.7,5.2c-0.4,3.1,1.6,11.4,1.6,11.4l16.9-6.3
		c0,0-9.8-8.5-10.3-10.4S104.8,167.9,104.5,168.5z"/>
</g>
<g id="Woman-1-Body">
	<path id="XMLID_449_" class="st9" d="M106.9,149.3c-0.7,0.1-2.4,0.2-3.1,0.2c-2.1,5.9,4.4,14.4,0.8,19.6c1.1-0.1,4.6-0.3,5.7-0.4
		c-0.9-1.6-1-7.8-0.8-10.9C110.1,157.2,107.5,151,106.9,149.3z"/>
	<polygon id="XMLID_448_" class="st4" points="106.4,149.3 108.3,155.6 104.5,149.5 	"/>
	<path id="XMLID_447_" class="st2" d="M103.7,149.6l0.8-0.1l4.3,6.3l-1.9-6.5l0.5-0.1c0,0,1.8,5.9,3.3,6.4c0,0.9-0.4,1.8-1.3,2.1
		c0,3.4,1.1,9.5,1.3,11.4c-0.8,0.1-6.5,0.5-7.5,0.6c2.7-2.4,1.4-11.3-0.4-15.7C103,150.7,103.7,149.6,103.7,149.6z"/>
	<polygon id="XMLID_446_" class="st8" points="108.8,156.7 104.4,153.4 105.2,152.1 103.9,151.8 104.1,149.7 104.2,149.7 104,151.7 
		105.4,152 104.5,153.3 	"/>
</g>
<g id="Woman-1-Head">
	<path id="XMLID_481_" class="st2" d="M101.3,139.5c0.6-0.3,2-0.3,2.7,0.7C104.6,141.1,100.4,139.9,101.3,139.5z"/>
	<g id="XMLID_479_">
		<path id="XMLID_480_" class="st4" d="M103.6,146.2c-3.5,0.2-4.7-2.9-3.9-4.5c0.4-0.8,0.8-2.1,1.5-2.2c1.2-0.2,4.6,1.6,4.6,1.6
			l-0.5,0.4c0,0,1,1.2,1.1,2.1c0.1,1.6-1,2.8-0.5,5.5c0.3,1.4-0.9,1.3-1.1,0.3C104.5,147,104,146.6,103.6,146.2z"/>
	</g>
	<g id="XMLID_476_">
		<circle id="XMLID_478_" class="st2" cx="103.7" cy="140.9" r="0.3"/>
		<circle id="XMLID_477_" class="st2" cx="103" cy="141.4" r="0.3"/>
	</g>
	<path id="XMLID_475_" class="st2" d="M103.6,146.2c-2.3,0-3.1-1.5-1.9-1.5c0.3-2,0.8-4.9-0.5-5.3c-1.9-0.6-3.9,1.4-3.8,3.5
		C97.5,145.8,101.5,147.2,103.6,146.2z"/>
	<path id="XMLID_474_" class="st2" d="M98.4,144.5c0.1-0.8,0.7-2.9-1-3.4c-1-0.2-2,0.1-1.8,1.2C95.8,143.7,97.4,145.1,98.4,144.5z"
		/>
</g>
<g id="Woman-1-Bag">
	<g id="XMLID_467_">
		<path id="XMLID_468_" class="st2" d="M79.5,166.4l0.1-0.4l1.4,0.5c0.1,0,0.1,0,0.1,0l0.1-0.1l1-3c0-0.1,0-0.2-0.1-0.3l-1.4-0.5
			l0.1-0.4l1.4,0.5c0.3,0.1,0.5,0.5,0.4,0.8l-1,3c0,0.2-0.2,0.3-0.3,0.4c-0.2,0.1-0.3,0.1-0.5,0.1L79.5,166.4L79.5,166.4z"/>
	</g>
	<g id="XMLID_463_">
		<path id="XMLID_464_" class="st2" d="M76.7,158.1c-0.5-0.1-1,0.1-1.1,0.6l-2.4,7.6c-0.1,0.5,0.1,1,0.6,1.1l5,1.6
			c0.5,0.1,1-0.1,1.1-0.6l2.4-7.6c0.1-0.5-0.1-1-0.6-1.1L76.7,158.1z"/>
	</g>
</g>
<g id="Woman-1-Arm-Left">
	<polygon id="XMLID_462_" class="st1" points="81.1,165.5 81.5,164 82.5,163.8 84.6,164.3 95.2,158.7 97.2,156.8 98.5,157.8 
		95.9,160.4 84.3,165.9 81.5,167.2 81.3,166.8 82.3,166 	"/>
</g>
<g id="Woman-1-Arm-Left-Sleeve">
	<path id="XMLID_450_" class="st2" d="M103.7,149.5c-0.9-0.2-8.6,8.2-8.6,8.2l2,2.1c0,0,5.3-5.2,5.7-5.8
		C103.1,153.5,104.6,149.7,103.7,149.5z"/>
</g>
<g id="Arrow-Left-2">
	<g id="XMLID_400_">
		<path id="XMLID_402_" class="st9" d="M75.9,252.6v-0.2l0.4-0.1v0.2L75.9,252.6z M75.4,251c-0.2-0.6-0.3-1.2-0.5-1.8l0.5-0.1
			c0.1,0.6,0.3,1.2,0.5,1.8L75.4,251z M74.6,247.7c-0.1-0.6-0.2-1.2-0.3-1.8l0.5-0.1c0.1,0.6,0.2,1.2,0.3,1.8L74.6,247.7z
			 M74.1,244.3c-0.1-0.6-0.1-1.2-0.2-1.9h0.5c0.1,0.6,0.1,1.2,0.2,1.8L74.1,244.3z M73.8,240.9c0-0.6,0-1.2-0.1-1.9h0.5
			c0,0.6,0,1.2,0,1.8L73.8,240.9z M74.2,237.5h-0.5c0-0.6,0-1.2,0.1-1.9h0.5C74.3,236.2,74.2,236.9,74.2,237.5z M74.5,234.1H74
			c0.1-0.6,0.1-1.2,0.2-1.9l0.5,0.1C74.6,232.9,74.5,233.5,74.5,234.1z M74.9,230.8l-0.5-0.1c0.1-0.6,0.2-1.2,0.4-1.8l0.5,0.1
			C75.2,229.5,75,230.2,74.9,230.8z M75.7,227.5l-0.4-0.1c0.2-0.6,0.3-1.2,0.5-1.8l0.4,0.1C76,226.3,75.8,226.9,75.7,227.5z
			 M76.7,224.2l-0.4-0.2c0.2-0.6,0.4-1.2,0.6-1.7l0.4,0.2C77.1,223.1,76.9,223.7,76.7,224.2z M77.9,221.1l-0.4-0.2
			c0.2-0.6,0.5-1.1,0.8-1.7l0.4,0.2C78.4,220,78.1,220.5,77.9,221.1z M79.3,218l-0.4-0.2c0.3-0.5,0.6-1.1,0.9-1.6l0.4,0.2
			C79.9,217,79.6,217.5,79.3,218z M81,215.1l-0.4-0.2c0.3-0.5,0.7-1,1-1.6l0.4,0.3C81.7,214.1,81.4,214.6,81,215.1z M82.9,212.3
			l-0.4-0.3c0.4-0.5,0.8-1,1.1-1.5l0.4,0.3C83.7,211.3,83.3,211.8,82.9,212.3z M85.1,209.7l-0.4-0.3c0.4-0.5,0.8-0.9,1.2-1.4
			l0.3,0.3C85.9,208.7,85.5,209.2,85.1,209.7z M87.4,207.2l-0.3-0.3c0.4-0.4,0.9-0.9,1.3-1.3l0.3,0.3
			C88.2,206.3,87.8,206.8,87.4,207.2z M89.8,204.9l-0.3-0.4c0.5-0.4,1-0.8,1.4-1.2l0.3,0.4C90.8,204.1,90.3,204.5,89.8,204.9z
			 M92.5,202.8l-0.3-0.4c0.5-0.4,1-0.7,1.5-1.1l0.3,0.4C93.5,202.1,93,202.4,92.5,202.8z M95.3,200.9l-0.2-0.4
			c0.5-0.3,1.1-0.6,1.6-1l0.2,0.4C96.4,200.3,95.8,200.6,95.3,200.9z M98.3,199.2l-0.2-0.4c0.6-0.3,1.1-0.6,1.7-0.8l0.2,0.4
			C99.4,198.7,98.8,198.9,98.3,199.2z M101.3,197.8l-0.2-0.4c0.6-0.2,1.2-0.5,1.7-0.7l0.2,0.4C102.5,197.3,101.9,197.5,101.3,197.8z
			 M104.5,196.6l-0.1-0.4c0.6-0.2,1.2-0.4,1.8-0.6l0.1,0.4C105.7,196.2,105.1,196.4,104.5,196.6z M107.7,195.6l-0.1-0.4
			c0.6-0.2,1.2-0.3,1.8-0.4l0.1,0.5C108.9,195.3,108.3,195.5,107.7,195.6z M129.7,195.6c-0.6-0.2-1.2-0.3-1.8-0.4l0.1-0.5
			c0.6,0.1,1.2,0.3,1.8,0.4L129.7,195.6z M111,194.9l-0.1-0.5c0.4-0.1,0.8-0.1,1.2-0.2c0.2,0,0.4-0.1,0.6-0.1l0.1,0.5
			c-0.2,0-0.4,0.1-0.6,0.1C111.9,194.8,111.4,194.8,111,194.9z M126.3,194.9c-0.6-0.1-1.2-0.2-1.8-0.3l0.1-0.5
			c0.6,0.1,1.2,0.2,1.8,0.3L126.3,194.9z M114.4,194.5V194c0.6-0.1,1.2-0.1,1.9-0.1v0.5C115.6,194.3,115,194.4,114.4,194.5z
			 M123,194.4c-0.6-0.1-1.2-0.1-1.8-0.1v-0.5c0.6,0,1.2,0.1,1.9,0.1L123,194.4z M117.8,194.2v-0.5c0.6,0,1.2,0,1.9,0v0.5
			C119,194.2,118.4,194.2,117.8,194.2z"/>
		<polygon id="XMLID_401_" class="st9" points="74,251.2 76.4,253.5 77.2,250.2 		"/>
	</g>
</g>
<g id="Arrow-Left-1">
	<g id="XMLID_164_">
		<path id="XMLID_166_" class="st9" d="M20,191.9h-0.4c0-0.2,0-0.4,0.1-0.6H20C20.1,191.5,20.1,191.7,20,191.9z M87.2,191
			c0-0.2-0.1-0.5-0.1-0.7l0.3-0.1c0,0.2,0.1,0.5,0.1,0.7L87.2,191z M20.2,190.3l-0.3-0.1c0-0.2,0.1-0.5,0.1-0.7l0.3,0.1
			C20.3,189.8,20.3,190,20.2,190.3z M86.9,189.2c0-0.2-0.1-0.5-0.1-0.7l0.3-0.1c0,0.2,0.1,0.5,0.1,0.7L86.9,189.2z M20.5,188.5
			l-0.3-0.1c0-0.2,0.1-0.5,0.2-0.7l0.3,0.1C20.6,188,20.6,188.3,20.5,188.5z M86.6,187.5c-0.1-0.2-0.1-0.5-0.2-0.7l0.3-0.1
			c0.1,0.2,0.1,0.5,0.2,0.7L86.6,187.5z M20.9,186.8l-0.3-0.1c0.1-0.2,0.1-0.5,0.2-0.7l0.3,0.1C21.1,186.3,21,186.5,20.9,186.8z
			 M86.1,185.8c-0.1-0.2-0.1-0.5-0.2-0.7l0.3-0.1c0.1,0.2,0.1,0.5,0.2,0.7L86.1,185.8z M21.4,185.1l-0.3-0.1
			c0.1-0.2,0.1-0.5,0.2-0.7l0.3,0.1C21.6,184.6,21.5,184.8,21.4,185.1z M85.6,184.1c-0.1-0.2-0.2-0.4-0.2-0.7l0.3-0.1
			c0.1,0.2,0.2,0.5,0.2,0.7L85.6,184.1z M22,183.4l-0.3-0.1c0.1-0.2,0.2-0.4,0.3-0.7l0.3,0.1C22.2,182.9,22.1,183.2,22,183.4z
			 M85,182.4c-0.1-0.2-0.2-0.4-0.3-0.7l0.3-0.1c0.1,0.2,0.2,0.4,0.3,0.7L85,182.4z M22.7,181.7l-0.3-0.1c0.1-0.2,0.2-0.4,0.3-0.7
			L23,181C22.9,181.3,22.8,181.5,22.7,181.7z M84.2,180.8c-0.1-0.2-0.2-0.4-0.3-0.6l0.3-0.2c0.1,0.2,0.2,0.4,0.3,0.6L84.2,180.8z
			 M23.4,180.1l-0.3-0.2c0.1-0.2,0.2-0.4,0.3-0.6l0.3,0.2C23.7,179.7,23.6,179.9,23.4,180.1z M83.4,179.2c-0.1-0.2-0.2-0.4-0.3-0.6
			l0.3-0.2c0.1,0.2,0.2,0.4,0.4,0.6L83.4,179.2z M24.3,178.6l-0.3-0.2c0.1-0.2,0.2-0.4,0.4-0.6l0.3,0.2
			C24.5,178.1,24.4,178.3,24.3,178.6z M82.5,177.6c-0.1-0.2-0.3-0.4-0.4-0.6l0.3-0.2c0.1,0.2,0.3,0.4,0.4,0.6L82.5,177.6z M25.2,177
			l-0.3-0.2c0.1-0.2,0.3-0.4,0.4-0.6l0.3,0.2C25.5,176.6,25.3,176.8,25.2,177z M81.6,176.1c-0.1-0.2-0.3-0.4-0.4-0.6l0.3-0.2
			c0.1,0.2,0.3,0.4,0.4,0.6L81.6,176.1z M26.2,175.6l-0.3-0.2c0.1-0.2,0.3-0.4,0.4-0.6l0.3,0.2C26.5,175.2,26.3,175.4,26.2,175.6z
			 M80.5,174.7c-0.1-0.2-0.3-0.4-0.4-0.6l0.3-0.2c0.2,0.2,0.3,0.4,0.4,0.6L80.5,174.7z M27.3,174.1l-0.3-0.2
			c0.1-0.2,0.3-0.4,0.5-0.6l0.3,0.2C27.6,173.8,27.4,174,27.3,174.1z M79.4,173.3c-0.2-0.2-0.3-0.4-0.5-0.5l0.3-0.2
			c0.2,0.2,0.3,0.4,0.5,0.5L79.4,173.3z M28.4,172.8l-0.3-0.2c0.2-0.2,0.3-0.4,0.5-0.5l0.3,0.2C28.7,172.4,28.6,172.6,28.4,172.8z
			 M78.2,172c-0.2-0.2-0.3-0.3-0.5-0.5l0.2-0.2c0.2,0.2,0.3,0.3,0.5,0.5L78.2,172z M29.6,171.5l-0.3-0.2c0.2-0.2,0.3-0.3,0.5-0.5
			l0.2,0.3C30,171.1,29.8,171.3,29.6,171.5z M76.9,170.7c-0.2-0.2-0.3-0.3-0.5-0.5l0.2-0.3c0.2,0.2,0.4,0.3,0.5,0.5L76.9,170.7z
			 M30.9,170.2l-0.2-0.3c0.2-0.2,0.4-0.3,0.5-0.5l0.2,0.3C31.3,169.9,31.1,170.1,30.9,170.2z M75.6,169.5c-0.2-0.2-0.4-0.3-0.5-0.5
			l0.2-0.3c0.2,0.2,0.4,0.3,0.6,0.5L75.6,169.5z M32.3,169.1l-0.2-0.3c0.2-0.2,0.4-0.3,0.6-0.5l0.2,0.3
			C32.7,168.8,32.5,168.9,32.3,169.1z M74.2,168.4c-0.2-0.1-0.4-0.3-0.6-0.4l0.2-0.3c0.2,0.1,0.4,0.3,0.6,0.4L74.2,168.4z M33.7,168
			l-0.2-0.3c0.2-0.1,0.4-0.3,0.6-0.4l0.2,0.3C34.1,167.7,33.9,167.8,33.7,168z M72.8,167.4c-0.2-0.1-0.4-0.3-0.6-0.4l0.2-0.3
			c0.2,0.1,0.4,0.3,0.6,0.4L72.8,167.4z M35.2,167l-0.2-0.3c0.2-0.1,0.4-0.3,0.6-0.4l0.2,0.3C35.6,166.7,35.4,166.8,35.2,167z
			 M71.3,166.4c-0.2-0.1-0.4-0.2-0.6-0.4l0.2-0.3c0.2,0.1,0.4,0.2,0.6,0.4L71.3,166.4z M36.7,166l-0.2-0.3c0.2-0.1,0.4-0.2,0.6-0.4
			l0.2,0.3C37.1,165.8,36.9,165.9,36.7,166z M69.7,165.5c-0.2-0.1-0.4-0.2-0.6-0.3l0.2-0.3c0.2,0.1,0.4,0.2,0.6,0.3L69.7,165.5z
			 M38.2,165.2l-0.2-0.3c0.2-0.1,0.4-0.2,0.6-0.3l0.2,0.3C38.7,165,38.5,165.1,38.2,165.2z M68.2,164.7c-0.2-0.1-0.4-0.2-0.6-0.3
			l0.1-0.3c0.2,0.1,0.4,0.2,0.7,0.3L68.2,164.7z M39.9,164.4l-0.1-0.3c0.2-0.1,0.4-0.2,0.7-0.3l0.1,0.3
			C40.3,164.2,40.1,164.3,39.9,164.4z M66.5,164c-0.2-0.1-0.4-0.2-0.7-0.3l0.1-0.3c0.2,0.1,0.4,0.2,0.7,0.3L66.5,164z M41.5,163.7
			l-0.1-0.3c0.2-0.1,0.4-0.2,0.7-0.3l0.1,0.3C41.9,163.5,41.7,163.6,41.5,163.7z M64.9,163.3c-0.2-0.1-0.4-0.2-0.7-0.2l0.1-0.3
			c0.2,0.1,0.5,0.2,0.7,0.2L64.9,163.3z M43.2,163.1l-0.1-0.3c0.2-0.1,0.5-0.1,0.7-0.2l0.1,0.3C43.6,163,43.4,163,43.2,163.1z
			 M63.2,162.8c-0.2-0.1-0.5-0.1-0.7-0.2l0.1-0.3c0.2,0.1,0.5,0.1,0.7,0.2L63.2,162.8z M44.9,162.6l-0.1-0.3
			c0.2-0.1,0.5-0.1,0.7-0.2l0.1,0.3C45.3,162.5,45.1,162.5,44.9,162.6z M61.5,162.3c-0.2-0.1-0.5-0.1-0.7-0.2l0.1-0.3
			c0.2,0.1,0.5,0.1,0.7,0.2L61.5,162.3z M46.6,162.2l-0.1-0.3c0.2,0,0.5-0.1,0.7-0.1l0.1,0.3C47.1,162.1,46.8,162.1,46.6,162.2z
			 M59.7,162c-0.2,0-0.5-0.1-0.7-0.1l0.1-0.3c0.2,0,0.5,0.1,0.7,0.1L59.7,162z M48.4,161.9l-0.1-0.3c0.2,0,0.5-0.1,0.7-0.1v0.3
			C48.8,161.8,48.6,161.8,48.4,161.9z M58,161.7c-0.2,0-0.5-0.1-0.7-0.1v-0.4c0.2,0,0.5,0.1,0.7,0.1V161.7z M50.1,161.6v-0.3
			c0.2,0,0.5,0,0.7-0.1v0.4C50.6,161.6,50.4,161.6,50.1,161.6z M56.2,161.5c-0.2,0-0.5,0-0.7,0v-0.4c0.2,0,0.5,0,0.7,0V161.5z
			 M51.9,161.5v-0.4c0.2,0,0.5,0,0.7,0v0.4C52.4,161.5,52.1,161.5,51.9,161.5z M54.4,161.4c-0.2,0-0.5,0-0.7,0l0,0V161l0,0
			c0.2,0,0.5,0,0.7,0V161.4z"/>
		<polygon id="XMLID_165_" class="st9" points="18.3,191.7 19.6,194.3 21.3,191.8 		"/>
	</g>
</g>
<g id="Arrow-Right-2">
	<g id="XMLID_130_">
		<path id="XMLID_132_" class="st9" d="M425.5,191.1l-0.9-0.1c0.1-0.6,0.1-1.2,0.2-1.8l0.9,0.1C425.6,189.9,425.6,190.6,425.5,191.1
			z M425.9,186.7H425c0-0.6,0.1-1.2,0.1-1.8h0.9C426,185.4,425.9,186.1,425.9,186.7z M425.1,182.2c0-0.6,0-1.2-0.1-1.8l0.9-0.1
			c0,0.6,0.1,1.2,0.1,1.8L425.1,182.2z M424.7,177.7c-0.1-0.6-0.1-1.2-0.2-1.8l0.9-0.1c0.1,0.6,0.2,1.2,0.2,1.8L424.7,177.7z
			 M424.1,173.4c-0.1-0.6-0.2-1.2-0.4-1.7l0.9-0.2c0.1,0.6,0.3,1.2,0.4,1.8L424.1,173.4z M423,169c-0.2-0.6-0.3-1.1-0.5-1.7l0.9-0.3
			c0.2,0.6,0.4,1.2,0.5,1.7L423,169z M421.6,164.8c-0.2-0.5-0.4-1.1-0.7-1.6l0.8-0.3c0.2,0.6,0.5,1.1,0.7,1.7L421.6,164.8z
			 M419.8,160.8c-0.3-0.5-0.5-1.1-0.8-1.6l0.8-0.4c0.3,0.5,0.6,1.1,0.8,1.6L419.8,160.8z M417.8,156.8c-0.3-0.5-0.6-1-0.9-1.5
			l0.8-0.5c0.3,0.5,0.6,1,0.9,1.5L417.8,156.8z M415.3,153.1c-0.3-0.5-0.7-1-1-1.4l0.7-0.5c0.4,0.5,0.7,1,1.1,1.5L415.3,153.1z
			 M412.6,149.6c-0.4-0.5-0.8-0.9-1.2-1.3l0.7-0.6c0.4,0.4,0.8,0.9,1.2,1.4L412.6,149.6z M332.6,147.6l-0.7-0.6
			c0.4-0.4,0.8-0.9,1.2-1.3l0.6,0.6C333.4,146.8,333,147.2,332.6,147.6z M409.7,146.3c-0.4-0.4-0.8-0.8-1.3-1.2l0.6-0.7
			c0.4,0.4,0.9,0.8,1.3,1.3L409.7,146.3z M335.7,144.5l-0.6-0.7c0.4-0.4,0.9-0.8,1.4-1.2l0.6,0.7
			C336.6,143.7,336.2,144.1,335.7,144.5z M406.4,143.3c-0.4-0.4-0.9-0.8-1.4-1.1l0.6-0.7c0.5,0.4,0.9,0.8,1.4,1.2L406.4,143.3z
			 M339.1,141.7l-0.5-0.7c0.5-0.4,1-0.7,1.4-1.1l0.5,0.7C340.1,140.9,339.6,141.3,339.1,141.7z M402.9,140.5c-0.5-0.3-1-0.7-1.5-1
			l0.5-0.7c0.5,0.3,1,0.7,1.5,1L402.9,140.5z M342.7,139.1l-0.5-0.8c0.5-0.3,1-0.6,1.5-1l0.5,0.8
			C343.7,138.4,343.2,138.8,342.7,139.1z M399.2,138.1c-0.5-0.3-1-0.6-1.5-0.9l0.4-0.8c0.5,0.3,1.1,0.6,1.6,0.9L399.2,138.1z
			 M346.6,136.8l-0.4-0.8c0.5-0.3,1.1-0.6,1.6-0.8l0.4,0.8C347.6,136.3,347.1,136.5,346.6,136.8z M395.3,136
			c-0.5-0.3-1.1-0.5-1.6-0.8l0.4-0.8c0.5,0.2,1.1,0.5,1.6,0.8L395.3,136z M350.6,134.9l-0.4-0.8c0.6-0.2,1.1-0.5,1.7-0.7l0.3,0.8
			C351.7,134.4,351.1,134.7,350.6,134.9z M391.2,134.2c-0.5-0.2-1.1-0.4-1.7-0.6l0.3-0.8c0.6,0.2,1.1,0.4,1.7,0.6L391.2,134.2z
			 M354.7,133.3l-0.3-0.8c0.6-0.2,1.1-0.4,1.7-0.5l0.3,0.9C355.8,132.9,355.3,133.1,354.7,133.3z M387,132.7
			c-0.6-0.2-1.1-0.3-1.7-0.5l0.2-0.9c0.6,0.2,1.2,0.3,1.7,0.5L387,132.7z M359,132.1l-0.2-0.9c0.6-0.1,1.2-0.3,1.8-0.4l0.2,0.9
			C360.1,131.8,359.5,131.9,359,132.1z M382.7,131.7c-0.6-0.1-1.2-0.2-1.7-0.3l0.2-0.9c0.6,0.1,1.2,0.2,1.8,0.3L382.7,131.7z
			 M363.3,131.2l-0.1-0.9c0.6-0.1,1.2-0.2,1.8-0.3l0.1,0.9C364.5,131,363.9,131.1,363.3,131.2z M378.4,130.9
			c-0.6-0.1-1.2-0.1-1.8-0.2l0.1-0.9c0.6,0.1,1.2,0.1,1.8,0.2L378.4,130.9z M367.7,130.7l-0.1-0.9c0.6,0,1.2-0.1,1.8-0.1v0.9
			C368.9,130.6,368.3,130.6,367.7,130.7z M373.9,130.6c-0.6,0-1.2,0-1.8,0v-0.9c0.6,0,1.2,0,1.8,0V130.6z"/>
		<polygon id="XMLID_131_" class="st9" points="421.5,186 424.9,193.5 429.8,186.9 		"/>
	</g>
</g>
<g id="Arrow-Right-1">
	<g id="XMLID_372_">
		<g id="XMLID_374_">
			<path id="XMLID_399_" class="st1" d="M236.9,124.2c-0.3,0-0.6-0.1-0.9-0.1l0.2-1.8c0.3,0,0.6,0.1,0.9,0.1L236.9,124.2z"/>
			<path id="XMLID_376_" class="st1" d="M308.4,202.5c0-0.6-0.1-1.2-0.1-1.7l1.8-0.1c0,0.6,0.1,1.2,0.1,1.8H308.4z M308,197.3
				c-0.1-0.6-0.1-1.2-0.2-1.7l1.8-0.2c0.1,0.6,0.2,1.2,0.2,1.8L308,197.3z M307.2,192.2c-0.1-0.6-0.2-1.1-0.3-1.7l1.8-0.4
				c0.1,0.6,0.2,1.2,0.3,1.7L307.2,192.2z M306.1,187.1c-0.1-0.6-0.3-1.1-0.4-1.7l1.7-0.5c0.2,0.6,0.3,1.1,0.4,1.7L306.1,187.1z
				 M304.7,182.1c-0.2-0.6-0.4-1.1-0.5-1.6l1.7-0.6c0.2,0.6,0.4,1.1,0.5,1.7L304.7,182.1z M303,177.1c-0.2-0.5-0.4-1.1-0.6-1.6
				l1.7-0.7c0.2,0.5,0.4,1.1,0.7,1.6L303,177.1z M301,172.3c-0.2-0.5-0.5-1.1-0.7-1.6l1.6-0.8c0.3,0.5,0.5,1.1,0.8,1.6L301,172.3z
				 M298.7,167.7c-0.3-0.5-0.6-1-0.8-1.5l1.6-0.9c0.3,0.5,0.6,1,0.9,1.6L298.7,167.7z M296.1,163.2c-0.3-0.5-0.6-1-0.9-1.5l1.5-1
				c0.3,0.5,0.6,1,0.9,1.5L296.1,163.2z M293.2,158.8c-0.3-0.5-0.7-0.9-1-1.4l1.4-1.1c0.3,0.5,0.7,1,1,1.4L293.2,158.8z M290,154.7
				c-0.4-0.5-0.7-0.9-1.1-1.3l1.4-1.2c0.4,0.4,0.8,0.9,1.1,1.4L290,154.7z M286.6,150.7c-0.4-0.4-0.8-0.9-1.2-1.3l1.3-1.2
				c0.4,0.4,0.8,0.9,1.2,1.3L286.6,150.7z M283,147c-0.4-0.4-0.8-0.8-1.3-1.2l1.2-1.3c0.4,0.4,0.9,0.8,1.3,1.2L283,147z
				 M279.1,143.4c-0.4-0.4-0.9-0.8-1.3-1.1l1.1-1.4c0.5,0.4,0.9,0.8,1.4,1.1L279.1,143.4z M275.1,140.2c-0.5-0.4-0.9-0.7-1.4-1
				l1-1.5c0.5,0.3,1,0.7,1.4,1.1L275.1,140.2z M270.8,137.2c-0.5-0.3-1-0.6-1.5-0.9l1-1.5c0.5,0.3,1,0.6,1.5,1L270.8,137.2z
				 M266.4,134.4c-0.5-0.3-1-0.6-1.5-0.9l0.9-1.6c0.5,0.3,1,0.6,1.6,0.9L266.4,134.4z M261.7,132c-0.5-0.3-1-0.5-1.6-0.8l0.8-1.6
				c0.5,0.3,1.1,0.5,1.6,0.8L261.7,132z M257,129.8c-0.5-0.2-1.1-0.4-1.6-0.7l0.7-1.7c0.5,0.2,1.1,0.4,1.6,0.7L257,129.8z
				 M252.1,127.9c-0.5-0.2-1.1-0.4-1.7-0.6l0.5-1.7c0.6,0.2,1.1,0.4,1.7,0.6L252.1,127.9z M247.1,126.4c-0.6-0.2-1.1-0.3-1.7-0.4
				l0.4-1.7c0.6,0.1,1.1,0.3,1.7,0.5L247.1,126.4z M242,125.1c-0.6-0.1-1.1-0.2-1.7-0.3l0.3-1.8c0.6,0.1,1.2,0.2,1.7,0.3L242,125.1z
				"/>
			<path id="XMLID_375_" class="st1" d="M310.3,206.9h-1.8c0-0.3,0-0.6,0-0.9h1.8C310.3,206.3,310.3,206.6,310.3,206.9z"/>
		</g>
		<polygon id="XMLID_373_" class="st1" points="314.4,206 309.6,214.4 304.7,206 		"/>
	</g>
</g>
<g id="Gear-9">
	<path id="XMLID_321_" class="st2" d="M435.9,216.2v-2.9l-4.6-1.2c-0.2-1-0.6-1.9-1.1-2.7l2.4-4.1l-2-2l-4.1,2.4
		c-0.8-0.5-1.7-0.9-2.7-1.1l-1.2-4.6h-2.9l-1.2,4.6c-1,0.2-1.9,0.6-2.7,1.1l-4.1-2.4l-2,2l2.4,4.1c-0.5,0.8-0.9,1.7-1.1,2.7
		l-4.6,1.2v2.9l4.6,1.2c0.2,1,0.6,1.9,1.1,2.7l-2.4,4.1l2,2l4.1-2.4c0.8,0.5,1.7,0.9,2.7,1.1l1.2,4.6h2.9l1.2-4.6
		c1-0.2,1.9-0.6,2.7-1.1l4.1,2.4l2-2l-2.4-4.1c0.5-0.8,0.9-1.7,1.1-2.7L435.9,216.2z M414.9,214.7c0-3.5,2.8-6.3,6.3-6.3
		s6.3,2.8,6.3,6.3s-2.8,6.3-6.3,6.3S414.9,218.2,414.9,214.7z"/>
</g>
<g id="Gear-8-Inner">
	<g id="XMLID_223_">
		<path id="XMLID_242_" class="st0" d="M371.7,171.3c-6.9,0-12.5,5.6-12.5,12.5s5.6,12.5,12.5,12.5s12.5-5.6,12.5-12.5
			C384.2,176.9,378.6,171.3,371.7,171.3z M371.7,193.5c-5.3,0-9.7-4.3-9.7-9.7c0-5.3,4.3-9.7,9.7-9.7c5.3,0,9.7,4.3,9.7,9.7
			S377,193.5,371.7,193.5z"/>
		<g id="XMLID_239_">
			<polygon id="XMLID_241_" class="st0" points="372.8,168.5 370.6,168.5 369.8,172.3 373.6,172.3 			"/>
			<polygon id="XMLID_240_" class="st0" points="370.6,199.2 372.8,199.2 373.6,195.4 369.8,195.4 			"/>
		</g>
		<g id="XMLID_236_">
			<polygon id="XMLID_238_" class="st0" points="364.9,170 363.1,171.1 364.3,174.8 367.6,172.9 			"/>
			<polygon id="XMLID_237_" class="st0" points="378.4,197.7 380.3,196.6 379.1,192.9 375.8,194.8 			"/>
		</g>
		<g id="XMLID_233_">
			<polygon id="XMLID_235_" class="st0" points="358.9,175.3 357.9,177.1 360.7,179.8 362.7,176.4 			"/>
			<polygon id="XMLID_234_" class="st0" points="384.5,192.5 385.5,190.6 382.6,188 380.7,191.3 			"/>
		</g>
		<g id="XMLID_230_">
			<polygon id="XMLID_232_" class="st0" points="356.3,182.8 356.3,184.9 360.2,185.8 360.2,181.9 			"/>
			<polygon id="XMLID_231_" class="st0" points="387,184.9 387,182.8 383.2,181.9 383.2,185.8 			"/>
		</g>
		<g id="XMLID_227_">
			<polygon id="XMLID_229_" class="st0" points="357.9,190.6 358.9,192.5 362.7,191.3 360.8,188 			"/>
			<polygon id="XMLID_228_" class="st0" points="385.5,177.1 384.4,175.3 380.7,176.4 382.6,179.8 			"/>
		</g>
		<g id="XMLID_224_">
			<polygon id="XMLID_226_" class="st0" points="363.1,196.6 364.9,197.7 367.6,194.8 364.3,192.9 			"/>
			<polygon id="XMLID_225_" class="st0" points="380.3,171.1 378.4,170 375.8,172.9 379.1,174.9 			"/>
		</g>
	</g>
</g>
<g id="Gear-8">
	<path id="XMLID_329_" class="st9" d="M415.5,185.8v-3.7l-6.5-1.5c-0.1-1.7-0.4-3.4-0.8-5.1l5.8-3.4l-1.1-3.5l-6.7,0.6
		c-0.7-1.6-1.4-3.1-2.3-4.6l4.4-5.1l-2.1-3l-6.2,2.6c-1.1-1.3-2.3-2.5-3.6-3.6l2.7-6.2l-3-2.1l-5,4.4c-1.5-0.9-3-1.7-4.5-2.4
		l0.6-6.7l-3.5-1.1l-3.4,5.8c-1.6-0.4-3.3-0.7-5-0.8l-1.5-6.6h-3.7l-1.5,6.5c-1.7,0.1-3.4,0.4-5.1,0.8l-3.4-5.8l-3.5,1.1l0.6,6.7
		c-1.6,0.7-3.1,1.4-4.6,2.3l-5.1-4.4l-3,2.1l2.6,6.2c-1.3,1.1-2.5,2.3-3.6,3.6l-6.2-2.7l-2.1,3l4.4,5c-0.9,1.5-1.7,3-2.4,4.5
		l-6.7-0.6l-1.1,3.5l5.8,3.4c-0.4,1.6-0.7,3.3-0.8,5l-6.6,1.5v3.7l6.5,1.5c0.1,1.7,0.4,3.4,0.8,5.1l-5.8,3.4l1.1,3.5l6.7-0.6
		c0.7,1.6,1.4,3.1,2.3,4.6l-4.5,5.1l2.1,3l6.2-2.6c1.1,1.3,2.3,2.5,3.6,3.6l-2.7,6.2l3,2.1l5-4.4c1.5,0.9,3,1.7,4.5,2.4l-0.6,6.7
		l3.5,1.1l3.4-5.8c1.6,0.4,3.3,0.7,5,0.8l1.5,6.6h3.7l1.5-6.5c1.7-0.1,3.4-0.4,5.1-0.8l3.4,5.8l3.5-1.1l-0.6-6.7
		c1.6-0.7,3.1-1.4,4.6-2.3l5.1,4.4l3-2.1L396,212c1.3-1.1,2.5-2.3,3.6-3.6l6.2,2.7l2.1-3l-4.4-5c0.9-1.5,1.7-3,2.4-4.5l6.7,0.6
		l1.1-3.5l-5.8-3.4c0.4-1.6,0.7-3.3,0.8-5L415.5,185.8z M371.7,211.8c-15.5,0-28.1-12.6-28.1-28.1s12.6-28.1,28.1-28.1
		s28.1,12.6,28.1,28.1S387.2,211.8,371.7,211.8z"/>
</g>
<g id="Gear-7">
	<g id="XMLID_245_">
		<g id="XMLID_264_">
			<path id="XMLID_265_" class="st1" d="M305,141.9c-11.4,0-20.6,9.2-20.6,20.6c0,11.4,9.2,20.6,20.6,20.6
				c11.4,0,20.6-9.2,20.6-20.6C325.7,151.1,316.4,141.9,305,141.9z M305,167.3c-2.6,0-4.8-2.1-4.8-4.8c0-2.6,2.1-4.8,4.8-4.8
				c2.6,0,4.8,2.1,4.8,4.8S307.6,167.3,305,167.3z"/>
		</g>
		<g id="XMLID_261_">
			<polygon id="XMLID_263_" class="st1" points="306.8,137 303.2,137 301.7,143.5 308.3,143.6 			"/>
			<polygon id="XMLID_262_" class="st1" points="306.8,188 303.2,188 301.7,181.5 308.3,181.5 			"/>
		</g>
		<g id="XMLID_258_">
			<polygon id="XMLID_260_" class="st1" points="293.8,139.6 290.7,141.4 292.7,147.7 298.4,144.5 			"/>
			<polygon id="XMLID_259_" class="st1" points="319.3,183.7 316.2,185.5 311.7,180.6 317.3,177.3 			"/>
		</g>
		<g id="XMLID_255_">
			<polygon id="XMLID_257_" class="st1" points="283.9,148.2 282,151.4 286.9,155.9 290.2,150.2 			"/>
			<polygon id="XMLID_256_" class="st1" points="328,173.7 326.2,176.8 319.8,174.9 323.1,169.2 			"/>
		</g>
		<g id="XMLID_252_">
			<polygon id="XMLID_254_" class="st1" points="279.5,160.7 279.5,164.3 286,165.8 286.1,159.3 			"/>
			<polygon id="XMLID_253_" class="st1" points="330.5,160.7 330.5,164.3 324,165.8 324,159.3 			"/>
		</g>
		<g id="XMLID_249_">
			<polygon id="XMLID_251_" class="st1" points="282,173.7 283.9,176.8 290.2,174.9 287,169.2 			"/>
			<polygon id="XMLID_250_" class="st1" points="326.2,148.2 328,151.4 323.1,155.9 319.8,150.2 			"/>
		</g>
		<g id="XMLID_246_">
			<polygon id="XMLID_248_" class="st1" points="290.7,183.7 293.8,185.5 298.4,180.6 292.7,177.3 			"/>
			<polygon id="XMLID_247_" class="st1" points="316.2,139.6 319.3,141.4 317.4,147.7 311.7,144.5 			"/>
		</g>
	</g>
</g>
<g id="Gear-6-Bulb">
	<g id="XMLID_432_">
		<path id="XMLID_444_" class="st1" d="M224.9,148.6c-33.3,0-59.7,27.4-59.7,58.3c0,45.4,39,45.7,39,90.2c1.9,0,7.1,0,20.7,0
			c13.6,0,18.8,0,20.7,0c0-44.4,39-44.8,39-90.2C284.6,176,258.3,148.6,224.9,148.6z"/>
		<g id="XMLID_433_">
			<g id="XMLID_434_">
				<g id="XMLID_438_">
					<g id="XMLID_439_">
						<g id="XMLID_440_">
							<g id="XMLID_441_">
								<g id="XMLID_442_">
									<path id="XMLID_443_" class="st1" d="M208.7,336.8c2.1,7,8.6,12.1,16.3,12.1s14.2-5.1,16.3-12.1H208.7z"/>
								</g>
							</g>
						</g>
					</g>
				</g>
				<path id="XMLID_437_" class="st1" d="M246,299.7h-42.1c-2.7,0-5,2.2-5,5c0,2.7,2.2,5,5,5H246c2.7,0,5-2.2,5-5
					C250.9,302,248.7,299.7,246,299.7z"/>
				<path id="XMLID_436_" class="st1" d="M246,312.1h-42.1c-2.7,0-5,2.2-5,5c0,2.7,2.2,5,5,5H246c2.7,0,5-2.2,5-5
					C250.9,314.4,248.7,312.1,246,312.1z"/>
				<path id="XMLID_435_" class="st1" d="M246,324.5h-42.1c-2.7,0-5,2.2-5,5c0,2.7,2.2,5,5,5H246c2.7,0,5-2.2,5-5
					C250.9,326.7,248.7,324.5,246,324.5z"/>
			</g>
		</g>
	</g>
</g>
<g id="Gear-6-Inner">
	<g id="XMLID_368_">
		<path id="XMLID_369_" class="st0" d="M247.4,200.6l-2-4.1l-7.4,1.6c-1-1.2-2.2-2.2-3.5-3.1l0.6-7.6l-4.3-1.5l-4.2,6.4
			c-1.5-0.1-3.1,0-4.7,0.3l-4.9-5.8l-4.1,2l1.6,7.4c-1.2,1-2.2,2.2-3.1,3.5l-7.6-0.6l-1.5,4.3l6.4,4.2c-0.1,1.5,0,3.1,0.3,4.7
			l-5.8,4.9l2,4.1l7.4-1.6c1,1.2,2.2,2.2,3.5,3.1l-0.6,7.6l4.3,1.5l4.2-6.4c1.5,0.1,3.1,0,4.7-0.3l4.9,5.8l4.1-2l-1.6-7.4
			c1.2-1,2.2-2.2,3.1-3.5l7.6,0.6l1.5-4.3l-6.4-4.2c0.1-1.5,0-3.1-0.3-4.7L247.4,200.6z M216.2,213.3c-2.4-5-0.4-11,4.6-13.4
			s11-0.4,13.4,4.6s0.4,11-4.6,13.4C224.7,220.3,218.7,218.3,216.2,213.3z"/>
	</g>
</g>
<g id="Gear-6">
	<g id="XMLID_268_">
		<path id="XMLID_306_" class="st4" d="M224.8,251c-6,0-11.7-1.2-17.2-3.5c-5.3-2.2-10-5.4-14-9.5c-4.1-4.1-7.2-8.8-9.5-14
			c-2.3-5.4-3.5-11.2-3.5-17.2s1.2-11.7,3.5-17.2c2.2-5.3,5.4-10,9.5-14c4.1-4.1,8.8-7.2,14-9.5c5.4-2.3,11.2-3.5,17.2-3.5
			s11.7,1.2,17.2,3.5c5.3,2.2,10,5.4,14,9.5c4.1,4.1,7.2,8.8,9.5,14c2.3,5.4,3.5,11.2,3.5,17.2s-1.2,11.7-3.5,17.2
			c-2.2,5.3-5.4,10-9.5,14c-4.1,4.1-8.8,7.2-14,9.5C236.5,249.8,230.8,251,224.8,251z M224.8,168.3c-21.3,0-38.6,17.3-38.6,38.6
			s17.3,38.6,38.6,38.6s38.6-17.3,38.6-38.6C263.4,185.6,246.1,168.3,224.8,168.3z"/>
		<g id="XMLID_269_">
			<g id="XMLID_303_">
				<polygon id="XMLID_305_" class="st4" points="226.8,158.2 223.2,158.2 221.8,164.7 228.3,164.7 				"/>
				<polygon id="XMLID_304_" class="st4" points="223.2,255.6 226.8,255.6 228.3,249 221.8,249.1 				"/>
			</g>
			<g id="XMLID_300_">
				<polygon id="XMLID_302_" class="st4" points="214.2,159.4 210.7,160.3 211,167 217.3,165.3 				"/>
				<polygon id="XMLID_301_" class="st4" points="235.9,254.4 239.4,253.4 239.1,246.7 232.8,248.5 				"/>
			</g>
			<g id="XMLID_297_">
				<polygon id="XMLID_299_" class="st4" points="202.3,163.8 199.1,165.6 201.1,172 206.8,168.7 				"/>
				<polygon id="XMLID_298_" class="st4" points="247.8,249.9 250.9,248.1 249,241.7 243.3,245.1 				"/>
			</g>
			<g id="XMLID_294_">
				<polygon id="XMLID_296_" class="st4" points="191.9,171.2 189.3,173.7 192.9,179.3 197.5,174.7 				"/>
				<polygon id="XMLID_295_" class="st4" points="258.2,242.6 260.7,240 257.2,234.4 252.6,239 				"/>
			</g>
			<g id="XMLID_291_">
				<polygon id="XMLID_293_" class="st4" points="183.8,181 182,184.1 186.9,188.6 190.2,183 				"/>
				<polygon id="XMLID_292_" class="st4" points="266.3,232.8 268.1,229.6 263.2,225.1 260,230.8 				"/>
			</g>
			<g id="XMLID_288_">
				<polygon id="XMLID_290_" class="st4" points="178.5,192.5 177.6,196 183.4,199.1 185.2,192.8 				"/>
				<polygon id="XMLID_289_" class="st4" points="271.6,221.2 272.5,217.7 266.6,214.6 265,221 				"/>
			</g>
			<g id="XMLID_285_">
				<polygon id="XMLID_287_" class="st4" points="176,205.1 176,208.7 182.5,210.2 182.6,203.6 				"/>
				<polygon id="XMLID_286_" class="st4" points="273.7,208.7 273.7,205.1 267.2,203.6 267.2,210.2 				"/>
			</g>
			<g id="XMLID_282_">
				<polygon id="XMLID_284_" class="st4" points="177.2,217.8 178.2,221.3 184.8,221 183.2,214.6 				"/>
				<polygon id="XMLID_283_" class="st4" points="272.5,196 271.6,192.5 264.9,192.7 266.6,199.1 				"/>
			</g>
			<g id="XMLID_279_">
				<polygon id="XMLID_281_" class="st4" points="181.7,229.7 183.5,232.9 189.9,230.9 186.6,225.2 				"/>
				<polygon id="XMLID_280_" class="st4" points="268.1,184 266.3,180.9 259.9,182.9 263.2,188.5 				"/>
			</g>
			<g id="XMLID_276_">
				<polygon id="XMLID_278_" class="st4" points="189.1,240.1 191.6,242.7 197.3,239.1 192.6,234.5 				"/>
				<polygon id="XMLID_277_" class="st4" points="260.7,173.6 258.1,171.1 252.5,174.6 257.2,179.3 				"/>
			</g>
			<g id="XMLID_273_">
				<polygon id="XMLID_275_" class="st4" points="199.1,248.1 202.3,249.9 206.8,245.1 201.1,241.7 				"/>
				<polygon id="XMLID_274_" class="st4" points="251,165.6 247.8,163.8 243.3,168.7 249,172 				"/>
			</g>
			<g id="XMLID_270_">
				<polygon id="XMLID_272_" class="st4" points="210.7,253.4 214.2,254.4 217.3,248.5 211,246.7 				"/>
				<polygon id="XMLID_271_" class="st4" points="239.4,160.3 235.9,159.4 232.8,165.3 239.1,167 				"/>
			</g>
		</g>
	</g>
</g>
<g id="Gear-4">
	<g id="XMLID_332_">
		<path id="XMLID_365_" class="st9" d="M122.9,275.7c-19,0-34.4-15.4-34.4-34.4s15.4-34.4,34.4-34.4s34.4,15.4,34.4,34.4
			C157.3,260.3,141.9,275.7,122.9,275.7L122.9,275.7z M122.9,215.3c-14.3,0-26,11.7-26,26s11.7,26,26,26s26-11.7,26-26
			C148.9,227,137.2,215.3,122.9,215.3L122.9,215.3z"/>
		<path id="XMLID_362_" class="st9" d="M122.9,248.9c-4.2,0-7.6-3.4-7.6-7.6c0-4.2,3.4-7.6,7.6-7.6c4.2,0,7.6,3.4,7.6,7.6
			S127.1,248.9,122.9,248.9L122.9,248.9z M122.9,238.2c-1.7,0-3.1,1.4-3.1,3.1c0,1.7,1.4,3.1,3.1,3.1c1.7,0,3.1-1.4,3.1-3.1
			C126,239.6,124.6,238.2,122.9,238.2L122.9,238.2z"/>
		<polygon id="XMLID_361_" class="st9" points="121.9,202.1 124.6,202.1 125.9,207.4 120.5,207.4 		"/>
		<polygon id="XMLID_360_" class="st9" points="132.1,203.2 134.7,203.9 134.6,209.3 129.4,208 		"/>
		<polygon id="XMLID_359_" class="st9" points="141.6,206.9 143.9,208.2 142.5,213.5 137.8,210.8 		"/>
		<polygon id="XMLID_358_" class="st9" points="149.9,212.9 151.8,214.8 149,219.5 145.2,215.7 		"/>
		<polygon id="XMLID_357_" class="st9" points="156.3,220.8 157.7,223.2 153.8,227 151.1,222.3 		"/>
		<polygon id="XMLID_356_" class="st9" points="160.5,230.2 161.2,232.8 156.4,235.5 155,230.3 		"/>
		<polygon id="XMLID_355_" class="st9" points="162.1,240.3 162.1,243 156.8,244.3 156.8,239 		"/>
		<polygon id="XMLID_354_" class="st9" points="161,250.5 160.3,253.1 154.8,253 156.2,247.8 		"/>
		<polygon id="XMLID_353_" class="st9" points="157.3,260 156,262.4 150.7,260.9 153.4,256.2 		"/>
		<polygon id="XMLID_352_" class="st9" points="151.3,268.3 149.4,270.2 144.7,267.4 148.5,263.6 		"/>
		<polygon id="XMLID_351_" class="st9" points="143.4,274.7 141,276.1 137.2,272.2 141.9,269.5 		"/>
		<polygon id="XMLID_350_" class="st9" points="134,278.9 131.4,279.6 128.7,274.8 133.9,273.4 		"/>
		<polygon id="XMLID_349_" class="st9" points="123.9,280.5 121.2,280.5 119.9,275.2 125.2,275.2 		"/>
		<polygon id="XMLID_348_" class="st9" points="113.7,279.4 111.1,278.7 111.2,273.3 116.4,274.7 		"/>
		<polygon id="XMLID_347_" class="st9" points="104.2,275.8 101.8,274.4 103.3,269.2 108,271.9 		"/>
		<polygon id="XMLID_346_" class="st9" points="95.9,269.7 94,267.8 96.8,263.1 100.6,267 		"/>
		<polygon id="XMLID_345_" class="st9" points="89.5,261.8 88.1,259.4 92,255.6 94.7,260.3 		"/>
		<polygon id="XMLID_344_" class="st9" points="85.3,252.4 84.6,249.8 89.4,247.2 90.7,252.4 		"/>
		<polygon id="XMLID_343_" class="st9" points="83.7,242.3 83.7,239.6 89,238.3 89,243.7 		"/>
		<polygon id="XMLID_342_" class="st9" points="84.8,232.1 85.5,229.5 90.9,229.6 89.5,234.8 		"/>
		<polygon id="XMLID_341_" class="st9" points="88.4,222.6 89.8,220.3 95,221.7 92.3,226.4 		"/>
		<polygon id="XMLID_340_" class="st9" points="94.5,214.3 96.4,212.4 101.1,215.2 97.2,219 		"/>
		<polygon id="XMLID_339_" class="st9" points="102.4,207.9 104.8,206.5 108.6,210.4 103.9,213.1 		"/>
		<polygon id="XMLID_338_" class="st9" points="111.8,203.7 114.4,203 117,207.8 111.8,209.2 		"/>
		<rect id="XMLID_337_" x="120.8" y="209.2" class="st9" width="4.1" height="26.8"/>
		
			<rect id="XMLID_336_" x="138.7" y="222.2" transform="matrix(-0.3089 -0.9511 0.9511 -0.3089 -39.8577 442.1444)" class="st9" width="4.1" height="26.8"/>
		
			<rect id="XMLID_335_" x="120.5" y="254.4" transform="matrix(-0.5878 -0.809 0.809 -0.5878 5.2055 515.5517)" class="st9" width="26.8" height="4.1"/>
		
			<rect id="XMLID_334_" x="109.8" y="243.1" transform="matrix(-0.8091 -0.5877 0.5877 -0.8091 51.5644 529.7539)" class="st9" width="4.1" height="26.8"/>
		
			<rect id="XMLID_333_" x="91.6" y="233.5" transform="matrix(-0.9511 -0.309 0.309 -0.9511 132.1407 491.976)" class="st9" width="26.8" height="4.1"/>
	</g>
</g>
<g id="Gear-3">
	<path id="XMLID_315_" class="st0" d="M96.2,210.8v-2.1l-3.3-0.9c-0.2-0.7-0.5-1.4-0.8-2l1.8-3l-1.5-1.5l-3,1.8
		c-0.6-0.4-1.3-0.6-2-0.8l-0.9-3.3h-2.1l-0.9,3.3c-0.7,0.2-1.4,0.5-2,0.8l-3-1.8l-1.5,1.5l1.8,3c-0.4,0.6-0.6,1.3-0.8,2l-3.3,0.9
		v2.1l3.3,0.9c0.2,0.7,0.5,1.4,0.8,2l-1.8,3l1.5,1.5l3-1.8c0.6,0.4,1.3,0.6,2,0.8l0.9,3.3h2.1l0.9-3.3c0.7-0.2,1.4-0.5,2-0.8l3,1.8
		l1.5-1.5l-1.8-3c0.4-0.6,0.6-1.3,0.8-2L96.2,210.8z M81,209.8c0-2.5,2-4.6,4.6-4.6c2.5,0,4.6,2,4.6,4.6c0,2.5-2,4.6-4.6,4.6
		C83,214.3,81,212.3,81,209.8z"/>
</g>
<g id="Gear-2-Inner">
	<path id="XMLID_309_" class="st11" d="M66.1,195.3v-1.1l-1.9-0.4c0-0.5-0.1-1-0.2-1.5l1.7-1l-0.3-1l-2,0.2
		c-0.2-0.5-0.4-0.9-0.7-1.4l1.3-1.5l-0.6-0.9l-1.8,0.8c-0.3-0.4-0.7-0.7-1.1-1.1l0.8-1.8l-0.9-0.6l-1.5,1.3
		c-0.4-0.3-0.9-0.5-1.4-0.7l0.2-2l-1-0.3l-1,1.7c-0.5-0.1-1-0.2-1.5-0.2l-0.4-2h-1.1l-0.4,1.9c-0.5,0-1,0.1-1.5,0.2l-1-1.7l-1,0.3
		l0.2,2c-0.5,0.2-0.9,0.4-1.4,0.7l-1.5-1.3l-0.9,0.6l0.8,1.8c-0.4,0.3-0.7,0.7-1.1,1.1l-1.8-0.8l-0.6,0.9l1.3,1.5
		c-0.3,0.4-0.5,0.9-0.7,1.4l-2-0.2l-0.3,1l1.7,1c-0.1,0.5-0.2,1-0.2,1.5l-2,0.4v1.1l1.9,0.4c0,0.5,0.1,1,0.2,1.5l-1.7,1l0.3,1l2-0.2
		c0.2,0.5,0.4,0.9,0.7,1.4l-1.3,1.5l0.6,0.9l1.8-0.8c0.3,0.4,0.7,0.7,1.1,1.1l-0.8,1.8l0.9,0.6l1.5-1.3c0.4,0.3,0.9,0.5,1.4,0.7
		l-0.2,2l1,0.3l1-1.7c0.5,0.1,1,0.2,1.5,0.2l0.4,2h1.1l0.4-1.9c0.5,0,1-0.1,1.5-0.2l1,1.7l1-0.3l-0.2-2c0.5-0.2,0.9-0.4,1.4-0.7
		l1.5,1.3l0.9-0.6l-0.8-1.8c0.4-0.3,0.7-0.7,1.1-1.1l1.8,0.8l0.6-0.9l-1.3-1.5c0.3-0.4,0.5-0.9,0.7-1.4l2,0.2l0.3-1l-1.7-1
		c0.1-0.5,0.2-1,0.2-1.5L66.1,195.3z M53.1,203.1c-4.6,0-8.4-3.7-8.4-8.4c0-4.6,3.7-8.4,8.4-8.4c4.6,0,8.4,3.7,8.4,8.4
		C61.4,199.3,57.7,203.1,53.1,203.1z"/>
</g>
<g id="Gear-2">
	<path id="XMLID_312_" class="st12" d="M78.3,198l0.3-1.8l-3.4-1.5l0,0c0-1.4-0.1-2.8-0.4-4.1l3.1-1.4l-0.3-1.8l-3.7-0.3
		c-0.5-1.3-1.1-2.5-1.8-3.7l2.4-2.4l-0.9-1.6l-3.6,1l0,0c-0.9-1.1-1.9-2-2.9-2.9l1.5-3.1l-1.4-1.2l-3,2.2l0,0
		c-1.2-0.7-2.4-1.3-3.8-1.7l0.3-3.4l-1.7-0.6l-2.1,3.1H57c-1.3-0.2-2.5-0.3-3.9-0.3c-0.1,0-0.2,0-0.3,0l-0.8-3.3h-1.9l-0.9,3.6h0.1
		c-1.4,0.2-2.7,0.6-4,1.1l-1.9-2.8l-1.7,0.6l0.4,3.7l0,0c-1.2,0.7-2.3,1.5-3.4,2.4l-2.8-2l-1.4,1.2l1.6,3.4l0,0
		c-0.9,1.1-1.7,2.2-2.4,3.4l-3.3-0.9l-0.9,1.6l2.7,2.6l0,0c-0.5,1.3-0.8,2.6-1,4l-3.4,0.3l-0.3,1.8l3.4,1.5l0,0
		c0,1.4,0.1,2.8,0.4,4.1l-3.1,1.4l0.3,1.8l3.7,0.3c0.5,1.3,1.1,2.5,1.8,3.7l-2.4,2.4l0.9,1.6l3.6-1l0,0c0.9,1.1,1.9,2,2.9,2.9
		l-1.5,3.1l1.4,1.2l3-2.2l0,0c1.2,0.7,2.4,1.3,3.8,1.7l-0.3,3.4l1.7,0.6l2.1-3.1l0,0c1.3,0.2,2.5,0.3,3.9,0.3c0.1,0,0.2,0,0.3,0
		l0.8,3.3h1.9l0.9-3.6h-0.1c1.4-0.2,2.7-0.6,4-1.1l1.9,2.8l1.7-0.6l-0.4-3.7l0,0c1.2-0.7,2.3-1.5,3.4-2.4l2.8,2l1.4-1.2l-1.6-3.4
		l0,0c0.9-1.1,1.7-2.2,2.4-3.4l3.3,0.9l0.9-1.6l-2.7-2.6l0,0c0.5-1.3,0.8-2.6,1-4L78.3,198z M53.1,213.4c-10.3,0-18.7-8.4-18.7-18.7
		S42.8,176,53.1,176c10.3,0,18.7,8.4,18.7,18.7C71.7,205,63.4,213.4,53.1,213.4z"/>
</g>
<g id="Gear-1">
	<path id="XMLID_318_" class="st11" d="M32.3,214v-1.8l-3.4-0.9c-0.1-1.1-0.4-2.1-0.8-3.1l2.5-2.4l-0.9-1.5l-3.3,0.9
		c-0.7-0.9-1.4-1.6-2.3-2.3l0.9-3.3l-1.5-0.9l-2.4,2.5c-1-0.4-2-0.7-3.1-0.8l-1-3.4h-1.8l-0.9,3.4c-1.1,0.1-2.1,0.4-3.1,0.8
		l-2.4-2.5l-1.5,0.9l0.9,3.3c-0.9,0.7-1.6,1.4-2.3,2.3l-3.3-0.9l-0.9,1.5l2.5,2.4c-0.4,1-0.7,2-0.8,3.1L0,212.2v1.8l3.4,0.9
		c0.1,1.1,0.4,2.1,0.8,3.1l-2.5,2.4l0.9,1.5l3.3-0.9c0.7,0.9,1.4,1.6,2.3,2.3l-0.9,3.3l1.5,0.9l2.4-2.5c1,0.4,2,0.7,3.1,0.8l0.9,3.4
		H17l0.9-3.4c1.1-0.1,2.1-0.4,3.1-0.8l2.4,2.5l1.5-0.9l-0.9-3.3c0.9-0.7,1.6-1.4,2.3-2.3l3.3,0.9l0.9-1.5L28,218
		c0.4-1,0.7-2,0.8-3.1L32.3,214z M16.2,223c-5.5,0-9.9-4.4-9.9-9.9s4.4-9.9,9.9-9.9s9.9,4.4,9.9,9.9S21.6,223,16.2,223z"/>
</g>
</svg>
