<?xml version="1.0" encoding="utf-8"?>
<!-- Generator: Adobe Illustrator 16.0.0, SVG Export Plug-In . SVG Version: 6.00 Build 0)  -->
<!DOCTYPE svg PUBLIC "-//W3C//DTD SVG 1.1//EN" "http://www.w3.org/Graphics/SVG/1.1/DTD/svg11.dtd">
<svg version="1.1" id="Слой_1" xmlns="http://www.w3.org/2000/svg" xmlns:xlink="http://www.w3.org/1999/xlink" x="0px" y="0px"
	 width="518.711px" height="279.5px" viewBox="139.681 0 518.711 279.5" enable-background="new 139.681 0 518.711 279.5"
	 xml:space="preserve">
<g id="Woman-3-Arm-Left">
	<polygon id="XMLID_128_" fill="#B6E1E9" points="559.201,102.563 549.931,90.163 548.607,91.246 557.395,103.405 561.488,108.701
		563.655,107.498 	"/>
	<g id="XMLID_118_">
		<path id="XMLID_126_" fill="#B6E1E9" d="M549.811,90.163c-0.12,0-0.241-0.12-0.241-0.361l0.121-0.963c0-0.12,0.12-0.24,0.36-0.24
			l0,0c0.121,0,0.241,0.12,0.241,0.36l-0.12,0.964C550.052,90.163,549.931,90.283,549.811,90.163z"/>
		<g id="XMLID_119_">
			<g id="XMLID_120_">
				<path id="XMLID_125_" fill="#B6E1E9" d="M548.246,91.246c0.121,0.121,0.241,0.121,0.481,0l1.324-1.083
					c0.121-0.12,0.121-0.24,0-0.481l-0.602-0.723c-0.12-0.12-0.241-0.12-0.481,0l-1.324,1.084c-0.12,0.12-0.12,0.24,0,0.481
					L548.246,91.246z"/>
				<path id="XMLID_124_" fill="#B6E1E9" d="M549.45,89.441c0.12-0.12,0.12-0.24,0-0.36l-0.723-0.964c-0.12-0.12-0.24-0.12-0.36,0
					c-0.121,0.121-0.121,0.241,0,0.361l0.722,0.963C549.089,89.562,549.33,89.562,549.45,89.441z"/>
				<path id="XMLID_123_" fill="#B6E1E9" d="M548.969,89.802c0.12-0.12,0.12-0.24,0-0.361l-0.723-0.963c-0.12-0.12-0.24-0.12-0.36,0
					c-0.121,0.121-0.121,0.241,0,0.361l0.722,0.963C548.607,89.922,548.848,89.922,548.969,89.802z"/>
				<path id="XMLID_122_" fill="#B6E1E9" d="M548.487,90.163c0.12-0.12,0.12-0.24,0-0.361l-0.723-0.963
					c-0.12-0.12-0.24-0.12-0.361,0c-0.12,0.12-0.12,0.241,0,0.361l0.723,0.963C548.246,90.283,548.367,90.283,548.487,90.163z"/>
				<path id="XMLID_121_" fill="#B6E1E9" d="M548.006,90.525c0.12-0.12,0.12-0.241,0-0.361l-0.723-0.963
					c-0.12-0.12-0.24-0.12-0.361,0c-0.12,0.12-0.12,0.24,0,0.361l0.723,0.963C547.764,90.645,547.885,90.645,548.006,90.525z"/>
			</g>
		</g>
	</g>
</g>
<g id="Woman-3-Arm-Left-Sleeve">
	<polygon id="XMLID_127_" fill="#601A7A" points="568.711,112.915 561.969,105.09 559.682,107.016 566.905,114.961 	"/>
</g>
<g id="Woman-3-Leg-Right">
	<g id="XMLID_113_">
		<path id="XMLID_116_" fill="#B6E1E9" d="M585.804,147.103c1.926,1.203,22.391,12.037,22.391,12.037l-1.324-1.685
			c-3.251-1.565-7.344-4.695-10.112-7.224c-2.769-2.647-3.731-3.129-4.334-3.37c-0.722-0.241-3.37-1.564-3.37-1.564l-5.297-1.084
			L585.804,147.103z"/>
		<path id="XMLID_115_" fill="#601A7A" d="M605.787,156.853c0,0,0.361-0.481,0.963-0.481c0.603,0.723,2.287,1.926,2.287,1.926
			l-0.12,0.241L605.787,156.853z"/>
		<polygon id="XMLID_114_" fill="#601A7A" points="608.195,159.14 607.352,160.946 607.593,158.779 		"/>
	</g>
</g>
<g id="Woman-3-Leg-Left">
	<g id="XMLID_109_">
		<path id="XMLID_112_" fill="#B6E1E9" d="M573.525,147.103c-0.481,2.166-2.527,22.631-2.527,22.631l1.083-1.806
			c0.241-3.611,1.565-8.547,2.89-12.158s1.444-4.574,1.444-5.297s-0.12-3.01-0.12-3.01L573.525,147.103z"/>
		<path id="XMLID_111_" fill="#601A7A" d="M572.202,166.604c0,0,0.602,0.24,0.722,0.722c-0.481,0.723-0.963,2.89-0.963,2.89h-0.24
			L572.202,166.604z"/>
		<polygon id="XMLID_110_" fill="#601A7A" points="570.998,169.734 569.072,169.614 571.118,169.131 		"/>
	</g>
</g>
<g id="Woman-3-Skirt">
	<path id="XMLID_108_" fill="#601A7A" d="M582.313,126.999c0.843,1.204,2.889,1.926,3.973,5.297
		c1.083,3.49,4.454,13.001,4.454,13.001l-18.178,3.009c0,0,4.214-18.418,4.574-20.344
		C577.498,125.675,581.832,126.398,582.313,126.999z"/>
</g>
<path fill="#0D1272" d="M271.256,232.664l0.361,4.454l7.704,1.324c0.24,1.685,0.602,3.37,0.963,5.056l-6.741,3.852l1.204,4.334
	l7.824-0.12c0.036,0.102,0.073,0.195,0.109,0.296h12.923c-11.405-27.524-2.662-60.261,22.841-78.061
	c29.372-20.585,69.939-13.362,90.524,16.011c13.191,18.823,14.945,42.237,6.786,62.05h13.038c0.134-0.42,0.279-0.837,0.399-1.259
	l7.824,0.12l1.204-4.334l-6.861-3.852c0.361-1.686,0.602-3.371,0.843-5.056l7.704-1.204l0.361-4.454l-7.344-2.648
	c0-1.686,0-3.491,0-5.176l7.344-2.528l-0.482-4.454l-7.704-1.324c-0.24-1.686-0.602-3.37-0.963-5.056l6.741-3.853l-1.204-4.333
	l-7.824,0.12c-0.602-1.686-1.083-3.25-1.806-4.815l6.019-4.936l-1.926-3.972l-7.704,1.444c-0.602-1.444-1.444-2.89-2.407-4.454
	l5.056-5.898l-2.528-3.611l-7.343,2.769c-1.084-1.324-2.167-2.648-3.371-3.973l3.973-6.621l-3.13-3.13l-6.741,3.973
	c-1.324-1.203-2.648-2.287-3.973-3.37l2.769-7.223l-3.611-2.528l-5.898,5.056c-1.444-0.963-3.009-1.806-4.454-2.527l1.445-7.584
	l-3.973-1.926l-4.936,6.019c-1.565-0.602-3.25-1.204-4.815-1.686l0.12-7.824l-4.333-1.204l-3.853,6.861
	c-1.686-0.36-3.37-0.602-5.056-0.843l-1.204-7.704l-4.454-0.36l-2.647,7.343c-1.686,0-3.491,0-5.177,0l-2.528-7.343l-4.453,0.36
	l-1.324,7.704c-1.686,0.241-3.371,0.603-5.057,0.964l-3.852-6.741l-4.334,1.083l0.12,7.824c-1.685,0.603-3.25,1.204-4.814,1.806
	l-4.936-6.019l-3.973,1.926l1.444,7.704c-1.564,0.843-3.01,1.686-4.454,2.648l-5.898-5.056l-3.611,2.528l2.769,7.343
	c-1.324,1.083-2.648,2.167-3.973,3.371l-6.62-3.973l-3.13,3.13l3.973,6.741c-1.204,1.324-2.287,2.648-3.371,3.972l-7.223-2.769
	l-2.528,3.611l5.057,5.898c-0.963,1.445-1.806,3.01-2.528,4.454l-7.584-1.444l-1.926,3.973l6.019,4.936
	c-0.602,1.564-1.203,3.25-1.685,4.815l-7.825-0.121l-1.203,4.334l6.861,3.853c-0.361,1.685-0.603,3.37-0.843,5.056l-7.704,1.203
	l-0.361,4.454l7.343,2.648c0,1.686,0,3.491,0,5.177L271.256,232.664z"/>
<g id="Woman-3-Head">
	<g id="XMLID_98_">
		<g id="XMLID_99_">
			<path id="XMLID_106_" fill="#601A7A" d="M563.052,98.229c-1.444,0.723-4.093,3.973-4.093,5.778c0,1.083,1.806,2.527,2.769,2.769
				C562.812,107.016,564.858,97.266,563.052,98.229z"/>
			<g id="XMLID_104_">
				<path id="XMLID_105_" fill="#FFFFFF" d="M566.785,106.656c2.769-2.769,1.083-6.621-0.482-7.825
					c-1.324-0.963-2.407-0.722-3.25-0.361c-1.324,0.603-3.37,4.454-3.37,4.454h0.722c0,0-0.12,1.806,0.361,2.648
					c1.204,2.047,3.371,1.686,6.26,5.056c1.083,1.204,1.083-0.12,1.083-0.722C566.905,108.581,566.062,107.377,566.785,106.656z"/>
			</g>
			<path id="XMLID_103_" fill="#601A7A" d="M562.812,98.71c-0.361,1.324,1.324,2.407,2.769,3.611
				c1.564,1.324,0.963,4.815-0.241,5.537c2.648-0.36,4.936-0.843,6.14-1.203c0.602-6.14-3.731-8.788-5.417-9.028
				c-2.047-0.241-3.491,0.24-4.695,2.407C561.849,99.673,561.969,99.553,562.812,98.71z"/>
			<g id="XMLID_100_">
				<circle id="XMLID_102_" fill="#601A7A" cx="561.728" cy="101.118" r="0.361"/>
				<circle id="XMLID_101_" fill="#601A7A" cx="562.691" cy="101.359" r="0.361"/>
			</g>
		</g>
	</g>
</g>
<g id="Woman-3-Body">
	<path id="XMLID_107_" fill="#55B8CC" d="M566.182,111.23c0.603-0.481,2.287-1.565,3.01-2.047
		c4.213,4.815,6.38,16.011,13.241,17.937c-0.963,0.723-4.694,1.926-5.778,2.648c-0.36-2.047-4.333-6.621-6.62-9.27
		C568.951,120.619,566.905,113.156,566.182,111.23z"/>
	<polygon id="XMLID_97_" fill="#FFFFFF" points="566.302,111.11 567.386,112.674 569.432,117.971 567.868,112.313 568.469,109.664
		"/>
	<path id="XMLID_96_" fill="#601A7A" d="M570.636,108.22l-2.167,1.444l0.723,8.668l-3.01-7.103l-0.481,0.361
		c0,0,2.528,6.5,1.686,8.065c0.602,0.842,1.686,1.323,2.648,0.963c2.407,3.009,5.176,8.306,6.38,10.231
		c0.723-0.481,6.621-3.37,7.584-3.972c-4.093-0.121-9.51-9.149-11.075-14.446C571.841,108.701,570.636,108.22,570.636,108.22z"/>
	<polygon id="XMLID_91_" fill="#0094B3" points="569.432,117.61 570.396,113.276 570.396,113.276 569.192,112.674 570.155,111.951
		568.951,109.785 568.831,109.785 570.155,111.951 569.072,112.674 569.192,112.794 570.396,113.276 	"/>
</g>
<g id="Woman-3-Arm-Right">
	<g id="XMLID_52_">

			<rect id="XMLID_90_" x="586.455" y="112.999" transform="matrix(0.5679 -0.8231 0.8231 0.5679 159.3215 539.4615)" fill="#601A7A" width="13.964" height="9.992"/>
		<polygon id="XMLID_89_" fill="#FFFFFF" points="598.203,113.156 598.203,113.035 590.98,123.388 586.526,120.258 586.526,120.378
			591.101,123.508 		"/>
		<g id="XMLID_86_">
			<path id="XMLID_88_" fill="#601A7A" d="M591.703,113.276l-1.565-1.083c-0.36-0.241-0.843-0.12-1.083,0.24l-2.287,3.251
				c-0.241,0.361-0.241,0.843,0.12,1.083l1.565,1.084l0.36-0.482l-1.564-1.083c-0.12-0.12-0.12-0.24,0-0.361l2.287-3.25
				c0.12-0.12,0.241-0.12,0.361-0.12l1.564,1.083L591.703,113.276z"/>
		</g>
		<g id="XMLID_53_">
			<polygon id="XMLID_85_" fill="#B6E1E9" points="596.638,119.656 585.563,111.591 579.063,110.146 578.822,112.554
				585.082,113.637 595.796,121.101 			"/>
			<path id="XMLID_84_" fill="#601A7A" d="M571.479,107.98c1.204,0.12,12.398,2.647,12.398,2.647l-0.24,3.371
				c0,0-10.834-1.686-12.64-1.926C569.192,111.831,569.432,107.739,571.479,107.98z"/>
			<g id="XMLID_54_">
				<g id="XMLID_55_">
					<path id="XMLID_83_" fill="#B6E1E9" d="M595.916,120.98c0.121,0,0.361,0.121,0.361,0.241l0.241,0.963
						c0,0.12-0.121,0.361-0.241,0.361l0,0c-0.12,0-0.361-0.12-0.361-0.241l-0.24-0.963
						C595.676,121.221,595.796,120.98,595.916,120.98z"/>
					<g id="XMLID_56_">
						<g id="XMLID_57_">
							<path id="XMLID_82_" fill="#B6E1E9" d="M597.12,119.535c-0.12-0.12-0.361,0-0.361,0.121l-0.963,1.444
								c-0.12,0.12,0,0.361,0.12,0.361l0.723,0.481c0.12,0.12,0.361,0,0.361-0.121l0.963-1.444c0.12-0.12,0-0.361-0.121-0.361
								L597.12,119.535z"/>
							<g id="XMLID_58_">
								<path id="XMLID_81_" fill="#B6E1E9" d="M596.879,121.582c-0.12-0.12-0.12-0.241-0.12-0.361c0.12-0.12,0.241-0.12,0.361-0.12
									l0.481,0.361c0.12,0.12,0.12,0.24,0.12,0.36l0,0c-0.12,0.121-0.24,0.121-0.361,0.121L596.879,121.582z"/>
								<path id="XMLID_80_" fill="#B6E1E9" d="M596.638,122.064c-0.12-0.12-0.12-0.241-0.12-0.361c0.12-0.12,0.24-0.12,0.36-0.12
									l0.481,0.361c0.121,0.12,0.121,0.24,0.121,0.36l0,0c-0.121,0.121-0.241,0.121-0.361,0.121L596.638,122.064z"/>
								<path id="XMLID_79_" fill="#B6E1E9" d="M597.12,120.619c0.12-0.121,0.24-0.121,0.361-0.121l0.481,0.361
									c0.12,0.12,0.12,0.241,0.12,0.361l0,0c-0.12,0.12-0.241,0.12-0.361,0.12l-0.481-0.361
									C597.12,120.98,597,120.74,597.12,120.619z"/>
								<path id="XMLID_60_" fill="#B6E1E9" d="M597.601,120.498c-0.12-0.12-0.12-0.24-0.12-0.36c0.12-0.121,0.24-0.121,0.36-0.121
									l0.482,0.361c0.12,0.12,0.12,0.241,0.12,0.361c-0.12,0.12-0.241,0.12-0.361,0.12L597.601,120.498z"/>
							</g>
						</g>
					</g>
				</g>
			</g>
		</g>
	</g>
</g>
<g id="Woman-2-Head">
	<g id="XMLID_622_">
		<g id="XMLID_623_">
			<g id="XMLID_624_">
				<path id="XMLID_632_" fill="#601A7A" d="M399.819,85.589c0.723-0.481,2.408-0.602,3.371,0.481
					C404.273,87.154,398.736,86.311,399.819,85.589z"/>
				<g id="XMLID_630_">
					<path id="XMLID_631_" fill="#FFFFFF" d="M403.792,93.655c-4.333,0.843-6.26-3.01-5.537-5.056
						c0.361-1.084,0.722-2.77,1.564-3.01c1.565-0.361,6.02,1.324,6.02,1.324l-0.603,0.481c0,0,1.445,1.444,1.565,2.528
						c0.361,1.926-0.963,3.852-0.963,7.343c0,1.686-1.324,1.444-1.324,0.12C404.394,96.303,403.912,94.376,403.792,93.655z"/>
				</g>
				<g id="XMLID_627_">
					<path id="XMLID_629_" fill="#601A7A" d="M403.31,86.672c0.241,0.121,0.241,0.361,0.12,0.603c-0.12,0.24-0.36,0.24-0.602,0.12
						c-0.24-0.12-0.24-0.361-0.12-0.602C402.829,86.552,403.07,86.432,403.31,86.672z"/>
					<circle id="XMLID_628_" fill="#601A7A" cx="402.347" cy="87.635" r="0.481"/>
				</g>
				<path id="XMLID_626_" fill="#601A7A" d="M403.792,93.655c-2.889,0.361-4.093-1.324-2.527-1.565c0-2.527,0.24-6.26-1.324-6.5
					c-2.408-0.481-4.695,2.287-4.334,4.936C396.088,93.895,401.143,95.219,403.792,93.655z"/>
				<path id="XMLID_625_" fill="#601A7A" d="M396.93,92.33c0-1.084,0.481-3.731-1.686-4.093c-1.203-0.121-2.407,0.481-2.167,1.685
					C393.559,91.608,395.726,93.173,396.93,92.33z"/>
			</g>
		</g>
	</g>
</g>
<g id="Woman-2-Leg-Right">
	<g id="XMLID_618_">
		<path id="XMLID_621_" fill="#B6E1E9" d="M403.552,137.953l4.574-2.046l0.481,4.814c1.083,1.565,6.019,25.762,6.019,25.762
			l-1.444-1.806c-0.963-3.853-3.13-10.594-5.658-13.964c-2.287-3.01-0.602-6.14-0.842-7.945L403.552,137.953z"/>
		<path id="XMLID_620_" fill="#601A7A" d="M412.82,163.233c0,0-0.602,0.361-0.722,0.843c0.602,0.723,1.564,2.89,1.564,2.89
			l0.241-0.121L412.82,163.233z"/>
		<polygon id="XMLID_619_" fill="#601A7A" points="414.626,166.484 416.793,166.001 414.506,165.761 		"/>
	</g>
</g>
<g id="Woman-2-Leg-Left">
	<g id="XMLID_614_">
		<path id="XMLID_617_" fill="#B6E1E9" d="M399.94,137.352l4.694,1.564l-2.889,3.853c-0.361,1.806-13.001,22.992-13.001,22.992
			l0.12-2.287c1.926-3.491,4.936-9.871,5.417-14.084c0.361-3.853,3.731-4.936,4.815-6.381L399.94,137.352z"/>
		<path id="XMLID_616_" fill="#601A7A" d="M389.588,162.15c0,0-0.723-0.12-1.084,0.12c-0.12,0.963-0.843,3.25-0.843,3.25
			l0.241,0.121L389.588,162.15z"/>
		<polygon id="XMLID_615_" fill="#601A7A" points="388.745,165.881 390.551,166.844 388.985,165.159 		"/>
	</g>
</g>
<g id="Woman-2-Skirt">
	<path id="XMLID_613_" fill="#601A7A" d="M403.31,119.777c-1.806,2.046-3.973,1.686-5.778,5.657
		c-1.685,3.611,0.603,17.094,0.603,17.094l12.158,0.843l-3.732-23.594H403.31z"/>
</g>
<g id="Woman-2-Body">
	<path id="XMLID_609_" fill="#0091D1" d="M406.922,97.747c-0.843-0.12-3.01-0.361-3.973-0.481
		c-4.093,7.103,3.371,10.834,4.574,9.991C408.607,106.896,407.283,100.034,406.922,97.747z"/>
	<polygon id="XMLID_608_" fill="#FFFFFF" points="406.32,97.747 407.283,105.813 403.912,97.386 	"/>
	<path id="XMLID_607_" fill="#601A7A" d="M401.264,97.266c1.083-0.241,2.647,0.12,2.647,0.12l3.732,8.788l-0.723-8.547h0.602
		c0,0,0.843,7.704,2.528,8.667c-0.12,1.083-0.963,2.167-2.046,2.287c0.36,4.454-0.482,9.871,0.24,13.482
		c-0.963,0-8.186-0.361-9.51-0.361c3.731-2.528,2.287-15.408,1.444-21.307C400.06,98.229,400.542,97.386,401.264,97.266z"/>
	<polygon id="XMLID_606_" fill="#0094B3" points="407.523,107.377 402.949,102.201 404.273,100.877 402.709,100.155 403.552,97.627
		403.552,97.627 402.829,100.155 404.394,100.757 403.07,102.201 407.644,107.257 	"/>
</g>
<g id="Woman-2-Arms__x26__Flag_Pole">
	<polygon id="XMLID_610_" fill="#B6E1E9" points="427.868,87.635 414.024,97.266 406.922,97.988 407.163,100.034 414.506,99.312
		428.108,89.08 	"/>
	<g id="Layer_56">

			<rect id="XMLID_602_" x="430.198" y="-0.004" transform="matrix(0.999 0.0456 -0.0456 0.999 2.6764 -19.6043)" fill="#0D1272" width="0.963" height="97.629"/>
	</g>
	<g id="Layer_55">
		<g id="XMLID_596_">
			<path id="XMLID_601_" fill="#B6E1E9" d="M429.432,79.329h0.603c0.12,0,0.24,0.12,0.24,0.24c0,0.121-0.12,0.241-0.24,0.241h-0.603
				c-0.12,0-0.24-0.12-0.24-0.241C429.192,79.449,429.312,79.329,429.432,79.329z"/>
			<path id="XMLID_600_" fill="#B6E1E9" d="M429.432,78.848h0.603c0.12,0,0.24,0.12,0.24,0.24c0,0.121-0.12,0.241-0.24,0.241h-0.603
				c-0.12,0-0.24-0.12-0.24-0.241C429.192,78.968,429.312,78.848,429.432,78.848z"/>
			<path id="XMLID_599_" fill="#B6E1E9" d="M429.432,78.246h0.603c0.12,0,0.24,0.12,0.24,0.24s-0.12,0.241-0.24,0.241h-0.603
				c-0.12,0-0.24-0.121-0.24-0.241S429.312,78.246,429.432,78.246z"/>
			<path id="XMLID_598_" fill="#B6E1E9" d="M428.349,77.764l0.723-0.602c0.12-0.12,0.24-0.12,0.36,0c0.121,0.12,0.121,0.241,0,0.361
				l-0.722,0.602c-0.121,0.121-0.241,0.121-0.361,0C428.229,78.005,428.229,77.885,428.349,77.764z"/>
			<path id="XMLID_597_" fill="#B6E1E9" d="M429.432,77.764h0.603c0.12,0,0.24,0.121,0.24,0.241s-0.12,0.241-0.24,0.241h-0.603
				c-0.12,0-0.24-0.121-0.24-0.241S429.312,77.764,429.432,77.764z"/>
		</g>
	</g>
	<g id="Layer_54">
		<path id="XMLID_595_" fill="#B6E1E9" d="M428.108,87.275h1.084c0.12,0,0.24,0.12,0.24,0.24l-0.12,1.565
			c0,0.12-0.12,0.24-0.24,0.24h-1.084c-0.12,0-0.24-0.12-0.24-0.24l0.12-1.565C427.868,87.395,427.988,87.275,428.108,87.275z"/>
		<g id="XMLID_590_">
			<path id="XMLID_594_" fill="#B6E1E9" d="M428.951,88.839h0.603c0.12,0,0.24,0.12,0.24,0.241c0,0.12-0.12,0.24-0.24,0.24h-0.603
				c-0.12,0-0.24-0.12-0.24-0.24C428.711,88.959,428.831,88.839,428.951,88.839z"/>
			<path id="XMLID_593_" fill="#B6E1E9" d="M428.951,88.358h0.603c0.12,0,0.24,0.12,0.24,0.241c0,0.12-0.12,0.24-0.24,0.24h-0.603
				c-0.12,0-0.24-0.12-0.24-0.24C428.711,88.478,428.831,88.358,428.951,88.358z"/>
			<path id="XMLID_592_" fill="#B6E1E9" d="M429.072,87.876h0.602c0.12,0,0.24,0.12,0.24,0.24c0,0.121-0.12,0.241-0.24,0.241h-0.602
				c-0.121,0-0.241-0.12-0.241-0.241C428.831,87.876,428.951,87.876,429.072,87.876z"/>
			<path id="XMLID_591_" fill="#B6E1E9" d="M429.072,87.275h0.602c0.12,0,0.24,0.12,0.24,0.24s-0.12,0.241-0.24,0.241h-0.602
				c-0.121,0-0.241-0.121-0.241-0.241S428.951,87.275,429.072,87.275z"/>
		</g>
	</g>
	<path id="XMLID_603_" fill="#B6E1E9" d="M427.868,87.275l0.723-0.603c0.12-0.12,0.24-0.12,0.36,0c0.121,0.121,0.121,0.241,0,0.361
		l-0.722,0.602c-0.121,0.121-0.241,0.121-0.361,0C427.748,87.515,427.748,87.395,427.868,87.275z"/>
	<path id="XMLID_604_" fill="#B6E1E9" d="M428.469,77.764h1.084c0.12,0,0.24,0.121,0.24,0.241l-0.12,1.564
		c0,0.121-0.12,0.241-0.241,0.241h-1.083c-0.12,0-0.241-0.12-0.241-0.241l0.121-1.564C428.229,77.764,428.349,77.764,428.469,77.764
		z"/>
	<polygon id="XMLID_612_" fill="#B6E1E9" points="428.229,78.366 414.987,92.571 408.126,97.266 409.57,98.71 416.431,94.376
		429.072,79.449 	"/>
</g>
<g id="Woman-2-Arm-Left-Sleeve">
	<path id="XMLID_611_" fill="#601A7A" d="M404.755,98.229c0.963-0.481,9.51-6.14,9.51-6.14l1.927,3.371c0,0-7.344,4.936-8.908,5.898
		C406.44,101.84,403.672,98.71,404.755,98.229z"/>
</g>
<g id="Woman-2-Arm-Right-Sleeve">
	<path id="XMLID_605_" fill="#601A7A" d="M401.264,97.266c1.083-0.12,11.556-0.481,11.556-0.481l0.481,3.49
		c0,0-9.269,0.843-11.436,0.843C401.143,101.117,400.18,97.506,401.264,97.266z"/>
</g>
<g id="Woman-2-Flag">
	<path id="XMLID_589_" fill="#B6E1E9" d="M432.442,0l-1.806,38.521c-8.547,9.992-23.474,13.362-35.15,4.093
		c-11.437-9.028-26.725-4.694-34.429,5.297c-3.37-6.861,2.769-21.788-2.769-32.141c7.824-10.353,23.835-13.001,37.438-5.417
		C409.45,17.937,423.294,11.436,432.442,0z"/>
</g>
<g id="Woman-1-Arm-Right">
	<polygon id="XMLID_453_" fill="#B6E1E9" points="278.96,179.364 282.33,179.123 276.673,170.817 273.783,170.335 273.663,169.854
		274.506,169.614 273.543,169.252 273.663,168.168 275.469,167.687 277.394,169.011 286.664,179.845 280.043,181.531 	"/>
</g>
<g id="Woman-1-Arm-Right-Sleeve">

		<linearGradient id="XMLID_2_" gradientUnits="userSpaceOnUse" x1="1189.7087" y1="502.0237" x2="1192.1444" y2="506.7669" gradientTransform="matrix(0.4467 -1.1178 1.1178 0.4467 -818.1082 1286.6095)">
		<stop  offset="0" style="stop-color:#84567E"/>
		<stop  offset="1" style="stop-color:#63295C"/>
	</linearGradient>
	<path id="XMLID_451_" fill="url(#XMLID_2_)" d="M266.922,179.725l13.482-0.602l0.602,2.648c0,0-10.353,1.806-12.64,1.685
		C265.959,183.216,266.922,179.725,266.922,179.725z"/>
</g>
<g id="Woman-1-Leg-Right">
	<g id="XMLID_454_">
		<path id="XMLID_457_" fill="#B6E1E9" d="M280.284,214.274c1.564,1.806,14.084,19.621,14.084,19.621l-1.926-1.203
			c-2.047-3.13-5.778-7.103-8.908-9.631c-3.13-2.648-3.731-3.49-4.093-4.213s-1.324-2.89-1.324-2.89L280.284,214.274z"/>
		<path id="XMLID_456_" fill="#601A7A" d="M291.719,231.608c0,0-0.481,0.481-0.361,0.963c0.843,0.481,2.287,2.167,2.287,2.167
			l0.241-0.24L291.719,231.608z"/>
		<polygon id="XMLID_455_" fill="#601A7A" points="294.368,233.895 296.174,232.692 294.007,233.293 		"/>
	</g>
</g>
<g id="Woman-1-Leg-Left">
	<g id="XMLID_458_">
		<path id="XMLID_461_" fill="#B6E1E9" d="M263.07,220.052l3.49-1.324v5.417c-0.481,1.083-20.344,15.408-20.344,15.408l1.084-1.926
			c3.129-2.167,6.981-6.02,9.51-9.149c2.527-3.13,3.37-3.731,4.093-4.093c0.722-0.361,2.769-1.444,2.769-1.444L263.07,220.052z"/>
		<path id="XMLID_460_" fill="#601A7A" d="M248.384,236.663c0,0-0.481-0.481-1.083-0.36c-0.482,0.843-2.167,2.407-2.167,2.407
			l0.24,0.241L248.384,236.663z"/>
		<polygon id="XMLID_459_" fill="#601A7A" points="246.217,239.433 247.301,241.239 246.698,239.072 		"/>
	</g>
</g>
<g id="Woman-1-Skirt">
	<path id="XMLID_452_" fill="#601A7A" d="M263.43,202.837c-0.602,1.445-2.769,2.408-3.25,6.26
		c-0.481,3.732,1.926,13.724,1.926,13.724l20.345-7.584c0,0-11.798-10.232-12.399-12.52S263.792,202.115,263.43,202.837z"/>
</g>
<g id="Woman-1-Body">
	<path id="XMLID_449_" fill="#0091D1" d="M266.32,179.725c-0.843,0.12-2.89,0.241-3.732,0.241
		c-2.527,7.102,5.297,17.334,0.964,23.594c1.324-0.12,5.537-0.361,6.861-0.481c-1.084-1.926-1.204-9.39-0.963-13.121
		C270.172,189.235,267.042,181.772,266.32,179.725z"/>
	<polygon id="XMLID_448_" fill="#FFFFFF" points="265.718,179.725 268.006,187.309 263.43,179.966 	"/>
	<path id="XMLID_447_" fill="#601A7A" d="M262.468,180.086l0.963-0.12l5.177,7.583l-2.287-7.824l0.602-0.12
		c0,0,2.167,7.102,3.973,7.704c0,1.083-0.481,2.167-1.565,2.527c0,4.094,1.324,11.437,1.565,13.724
		c-0.963,0.12-7.824,0.602-9.028,0.723c3.25-2.89,1.686-13.604-0.481-18.899C261.625,181.41,262.468,180.086,262.468,180.086z"/>
	<polygon id="XMLID_446_" fill="#0094B3" points="268.607,188.633 263.31,184.66 264.273,183.095 262.709,182.735 262.949,180.206
		263.07,180.206 262.829,182.614 264.514,182.975 263.43,184.54 	"/>
</g>
<g id="Woman-1-Head">
	<path id="XMLID_481_" fill="#601A7A" d="M259.579,167.928c0.722-0.361,2.407-0.361,3.25,0.843
		C263.552,169.854,258.495,168.409,259.579,167.928z"/>
	<g id="XMLID_479_">
		<path id="XMLID_480_" fill="#FFFFFF" d="M262.347,175.993c-4.213,0.24-5.658-3.491-4.694-5.417
			c0.481-0.963,0.963-2.528,1.806-2.648c1.444-0.241,5.537,1.926,5.537,1.926l-0.602,0.481c0,0,1.203,1.444,1.323,2.528
			c0.121,1.926-1.203,3.37-0.602,6.62c0.361,1.686-1.083,1.565-1.324,0.361C263.43,176.956,262.829,176.475,262.347,175.993z"/>
	</g>
	<g id="XMLID_476_">
		<circle id="XMLID_478_" fill="#601A7A" cx="262.468" cy="169.613" r="0.361"/>
		<circle id="XMLID_477_" fill="#601A7A" cx="261.625" cy="170.215" r="0.361"/>
	</g>
	<path id="XMLID_475_" fill="#601A7A" d="M262.347,175.993c-2.769,0-3.731-1.806-2.287-1.806c0.361-2.408,0.963-5.898-0.602-6.38
		c-2.288-0.723-4.695,1.685-4.575,4.213C255.005,175.512,259.819,177.197,262.347,175.993z"/>
	<path id="XMLID_474_" fill="#601A7A" d="M256.088,173.947c0.12-0.963,0.843-3.491-1.204-4.093c-1.203-0.24-2.407,0.12-2.166,1.444
		C252.958,172.984,254.884,174.669,256.088,173.947z"/>
</g>
<g id="Woman-1-Bag">
	<g id="XMLID_467_">
		<path id="XMLID_468_" fill="#601A7A" d="M233.337,200.31l0.12-0.481l1.686,0.602c0.12,0,0.12,0,0.12,0l0.12-0.12l1.204-3.611
			c0-0.121,0-0.241-0.121-0.361l-1.685-0.602l0.12-0.482l1.686,0.603c0.361,0.12,0.602,0.602,0.481,0.963l-1.204,3.611
			c0,0.241-0.24,0.361-0.361,0.481c-0.24,0.12-0.36,0.12-0.602,0.12L233.337,200.31L233.337,200.31z"/>
	</g>
	<g id="XMLID_463_">
		<path id="XMLID_464_" fill="#601A7A" d="M229.966,190.319c-0.602-0.121-1.204,0.12-1.324,0.722l-2.889,9.148
			c-0.121,0.603,0.12,1.204,0.722,1.324l6.02,1.927c0.602,0.12,1.203-0.121,1.324-0.723l2.889-9.148
			c0.12-0.603-0.12-1.204-0.723-1.324L229.966,190.319z"/>
	</g>
</g>
<g id="Woman-1-Arm-Left">
	<polygon id="XMLID_462_" fill="#B6E1E9" points="235.262,199.226 235.744,197.42 236.948,197.18 239.475,197.781 252.235,191.04
		254.643,188.753 256.208,189.957 253.078,193.087 239.114,199.707 235.744,201.273 235.503,200.791 236.707,199.828 	"/>
</g>
<g id="Woman-1-Arm-Left-Sleeve">
	<path id="XMLID_450_" fill="#601A7A" d="M262.468,179.966c-1.083-0.241-10.353,9.87-10.353,9.87l2.408,2.528
		c0,0,6.38-6.26,6.861-6.981C261.746,184.781,263.552,180.206,262.468,179.966z"/>
</g>
<g id="Arrow-Left-1">
	<g id="XMLID_164_">
		<path id="XMLID_166_" fill="#0091D1" d="M161.711,231.006h-0.481c0-0.241,0-0.481,0.121-0.723h0.36
			C161.832,230.525,161.832,230.765,161.711,231.006z M242.605,229.923c0-0.241-0.12-0.603-0.12-0.843l0.361-0.121
			c0,0.241,0.12,0.603,0.12,0.843L242.605,229.923z M161.952,229.08l-0.361-0.121c0-0.24,0.12-0.602,0.12-0.843l0.361,0.121
			C162.072,228.478,162.072,228.719,161.952,229.08z M242.244,227.756c0-0.241-0.12-0.603-0.12-0.843l0.361-0.12
			c0,0.24,0.12,0.602,0.12,0.842L242.244,227.756z M162.313,226.913l-0.361-0.12c0-0.241,0.12-0.603,0.24-0.843l0.361,0.12
			C162.433,226.311,162.433,226.672,162.313,226.913z M241.883,225.709c-0.12-0.24-0.12-0.602-0.24-0.843l0.361-0.12
			c0.12,0.241,0.12,0.602,0.24,0.843L241.883,225.709z M162.795,224.866l-0.361-0.12c0.12-0.241,0.12-0.602,0.241-0.843l0.36,0.12
			C163.035,224.265,162.915,224.505,162.795,224.866z M241.281,223.663c-0.12-0.241-0.12-0.603-0.24-0.843l0.36-0.121
			c0.121,0.241,0.121,0.603,0.241,0.843L241.281,223.663z M163.396,222.821l-0.361-0.121c0.121-0.24,0.121-0.602,0.241-0.842
			l0.361,0.12C163.637,222.218,163.516,222.459,163.396,222.821z M240.679,221.616c-0.12-0.24-0.241-0.481-0.241-0.843l0.361-0.12
			c0.12,0.24,0.241,0.602,0.241,0.843L240.679,221.616z M164.119,220.774l-0.361-0.12c0.12-0.241,0.24-0.481,0.361-0.843l0.361,0.12
			C164.359,220.172,164.239,220.533,164.119,220.774z M239.957,219.57c-0.12-0.24-0.24-0.481-0.361-0.842l0.361-0.121
			c0.12,0.241,0.241,0.481,0.361,0.843L239.957,219.57z M164.962,218.728l-0.361-0.121c0.12-0.24,0.24-0.481,0.361-0.843l0.36,0.121
			C165.202,218.246,165.082,218.487,164.962,218.728z M238.994,217.644c-0.12-0.24-0.24-0.481-0.361-0.722l0.361-0.241
			c0.12,0.241,0.241,0.481,0.361,0.723L238.994,217.644z M165.803,216.801l-0.36-0.24c0.12-0.241,0.24-0.481,0.36-0.723l0.361,0.241
			C166.165,216.32,166.045,216.561,165.803,216.801z M238.031,215.718c-0.12-0.241-0.241-0.481-0.361-0.723l0.361-0.24
			c0.12,0.24,0.24,0.481,0.481,0.722L238.031,215.718z M166.887,214.995l-0.361-0.24c0.12-0.241,0.241-0.481,0.481-0.723
			l0.361,0.241C167.128,214.394,167.008,214.635,166.887,214.995z M236.948,213.792c-0.121-0.241-0.361-0.481-0.482-0.723
			l0.361-0.24c0.121,0.24,0.361,0.481,0.481,0.722L236.948,213.792z M167.97,213.07l-0.36-0.24c0.12-0.241,0.36-0.482,0.481-0.723
			l0.36,0.24C168.332,212.588,168.092,212.829,167.97,213.07z M235.864,211.987c-0.12-0.241-0.361-0.481-0.481-0.723l0.361-0.24
			c0.12,0.24,0.361,0.481,0.481,0.722L235.864,211.987z M169.175,211.384l-0.361-0.24c0.12-0.241,0.361-0.481,0.481-0.723
			l0.361,0.241C169.536,210.903,169.295,211.144,169.175,211.384z M234.54,210.301c-0.12-0.241-0.361-0.481-0.481-0.723l0.361-0.24
			c0.24,0.24,0.361,0.481,0.481,0.722L234.54,210.301z M170.499,209.578l-0.361-0.24c0.12-0.241,0.361-0.481,0.602-0.723
			l0.361,0.241C170.86,209.218,170.619,209.458,170.499,209.578z M233.216,208.615c-0.24-0.24-0.361-0.481-0.602-0.602l0.361-0.241
			c0.24,0.241,0.361,0.481,0.602,0.603L233.216,208.615z M171.823,208.014l-0.361-0.241c0.241-0.24,0.361-0.481,0.602-0.602
			l0.361,0.241C172.184,207.532,172.063,207.773,171.823,208.014z M231.771,207.051c-0.24-0.241-0.361-0.361-0.602-0.603l0.24-0.24
			c0.241,0.24,0.361,0.361,0.603,0.602L231.771,207.051z M173.267,206.448l-0.361-0.24c0.241-0.241,0.361-0.361,0.603-0.603
			l0.24,0.361C173.749,205.967,173.509,206.208,173.267,206.448z M230.207,205.486c-0.241-0.24-0.361-0.361-0.603-0.602l0.241-0.361
			c0.24,0.241,0.481,0.361,0.602,0.602L230.207,205.486z M174.833,204.884l-0.241-0.361c0.241-0.24,0.481-0.361,0.602-0.602
			l0.241,0.361C175.314,204.523,175.073,204.764,174.833,204.884z M228.641,204.041c-0.24-0.241-0.481-0.361-0.602-0.602l0.24-0.361
			c0.241,0.24,0.481,0.361,0.723,0.602L228.641,204.041z M176.517,203.56l-0.24-0.361c0.24-0.24,0.481-0.361,0.722-0.602
			l0.241,0.361C176.999,203.198,176.759,203.319,176.517,203.56z M226.956,202.717c-0.24-0.12-0.481-0.361-0.722-0.481l0.24-0.361
			c0.241,0.12,0.481,0.361,0.723,0.481L226.956,202.717z M178.203,202.236l-0.241-0.361c0.241-0.12,0.482-0.361,0.723-0.481
			l0.241,0.361C178.684,201.874,178.444,201.994,178.203,202.236z M225.271,201.513c-0.241-0.12-0.481-0.36-0.723-0.481l0.241-0.36
			c0.24,0.12,0.481,0.36,0.722,0.481L225.271,201.513z M180.009,201.031l-0.24-0.36c0.24-0.121,0.481-0.361,0.722-0.482l0.241,0.361
			C180.49,200.671,180.25,200.791,180.009,201.031z M223.466,200.31c-0.241-0.121-0.481-0.241-0.723-0.481l0.241-0.361
			c0.24,0.12,0.481,0.24,0.722,0.481L223.466,200.31z M181.814,199.828l-0.24-0.361c0.24-0.12,0.481-0.241,0.722-0.481l0.241,0.361
			C182.296,199.587,182.055,199.707,181.814,199.828z M221.539,199.226c-0.24-0.12-0.481-0.24-0.722-0.36l0.24-0.361
			c0.241,0.12,0.481,0.24,0.723,0.361L221.539,199.226z M183.62,198.865l-0.24-0.361c0.24-0.121,0.481-0.241,0.722-0.361
			l0.241,0.361C184.221,198.624,183.981,198.744,183.62,198.865z M219.733,198.263c-0.24-0.12-0.481-0.24-0.722-0.361l0.12-0.36
			c0.24,0.12,0.481,0.24,0.843,0.36L219.733,198.263z M185.667,197.902l-0.121-0.36c0.241-0.121,0.481-0.241,0.843-0.361l0.12,0.361
			C186.148,197.661,185.907,197.781,185.667,197.902z M217.687,197.42c-0.241-0.12-0.481-0.24-0.843-0.361l0.12-0.36
			c0.241,0.12,0.481,0.24,0.843,0.36L217.687,197.42z M187.593,197.059l-0.12-0.36c0.24-0.121,0.481-0.241,0.843-0.361l0.12,0.361
			C188.074,196.819,187.833,196.939,187.593,197.059z M215.76,196.577c-0.24-0.12-0.481-0.24-0.842-0.24l0.12-0.361
			c0.24,0.12,0.602,0.241,0.843,0.241L215.76,196.577z M189.638,196.337l-0.12-0.361c0.241-0.12,0.603-0.12,0.843-0.24l0.12,0.36
			C190.121,196.217,189.88,196.217,189.638,196.337z M213.715,195.976c-0.241-0.12-0.602-0.12-0.843-0.24l0.12-0.361
			c0.241,0.12,0.603,0.12,0.843,0.24L213.715,195.976z M191.685,195.736l-0.12-0.361c0.24-0.121,0.602-0.121,0.843-0.241l0.12,0.361
			C192.167,195.615,191.927,195.615,191.685,195.736z M211.668,195.374c-0.24-0.121-0.602-0.121-0.842-0.241l0.12-0.361
			c0.24,0.121,0.602,0.121,0.843,0.241L211.668,195.374z M193.732,195.253l-0.121-0.36c0.241,0,0.603-0.121,0.843-0.121l0.12,0.361
			C194.334,195.133,193.972,195.133,193.732,195.253z M209.502,195.013c-0.241,0-0.603-0.12-0.843-0.12l0.12-0.361
			c0.24,0,0.602,0.12,0.843,0.12L209.502,195.013z M195.898,194.893l-0.12-0.361c0.241,0,0.602-0.12,0.843-0.12v0.36
			C196.38,194.772,196.139,194.772,195.898,194.893z M207.455,194.652c-0.241,0-0.602-0.12-0.843-0.12v-0.481
			c0.241,0,0.602,0.12,0.843,0.12V194.652z M197.945,194.531v-0.361c0.24,0,0.602,0,0.843-0.12v0.481
			C198.547,194.531,198.306,194.531,197.945,194.531z M205.288,194.411c-0.24,0-0.602,0-0.843,0v-0.481c0.241,0,0.603,0,0.843,0
			V194.411z M200.112,194.411v-0.481c0.24,0,0.602,0,0.843,0v0.481C200.714,194.411,200.352,194.411,200.112,194.411z
			 M203.121,194.29c-0.24,0-0.602,0-0.842,0l0,0v-0.481l0,0c0.24,0,0.602,0,0.842,0V194.29z"/>
		<polygon id="XMLID_165_" fill="#0091D1" points="159.665,230.765 161.229,233.895 163.276,230.886 		"/>
	</g>
</g>
<g id="Arrow-Right-2">
	<g id="XMLID_130_">
		<path id="XMLID_132_" fill="#0091D1" d="M649.845,230.043l-1.083-0.12c0.12-0.723,0.12-1.445,0.24-2.167l1.084,0.12
			C649.966,228.599,649.966,229.441,649.845,230.043z M650.327,224.746h-1.083c0-0.723,0.12-1.444,0.12-2.167h1.083
			C650.447,223.182,650.327,224.024,650.327,224.746z M649.364,219.329c0-0.723,0-1.444-0.12-2.167l1.083-0.12
			c0,0.722,0.12,1.444,0.12,2.167L649.364,219.329z M648.883,213.912c-0.12-0.723-0.12-1.444-0.241-2.167l1.084-0.12
			c0.12,0.722,0.24,1.444,0.24,2.167L648.883,213.912z M648.16,208.736c-0.12-0.722-0.24-1.444-0.481-2.046l1.084-0.241
			c0.12,0.723,0.36,1.445,0.481,2.167L648.16,208.736z M646.836,203.44c-0.24-0.723-0.36-1.324-0.602-2.047l1.083-0.361
			c0.241,0.723,0.481,1.445,0.603,2.047L646.836,203.44z M645.151,198.383c-0.241-0.602-0.481-1.324-0.843-1.926l0.963-0.361
			c0.24,0.723,0.602,1.324,0.843,2.047L645.151,198.383z M642.984,193.569c-0.361-0.603-0.603-1.324-0.963-1.927l0.963-0.481
			c0.361,0.603,0.722,1.324,0.963,1.927L642.984,193.569z M640.576,188.753c-0.36-0.602-0.722-1.204-1.083-1.806l0.963-0.602
			c0.361,0.602,0.723,1.203,1.084,1.806L640.576,188.753z M637.567,184.299c-0.361-0.602-0.843-1.204-1.204-1.686l0.843-0.602
			c0.481,0.602,0.843,1.204,1.324,1.806L637.567,184.299z M634.317,180.086c-0.481-0.603-0.964-1.084-1.445-1.565l0.843-0.722
			c0.481,0.481,0.963,1.083,1.444,1.685L634.317,180.086z M538.014,177.678l-0.843-0.722c0.481-0.481,0.963-1.084,1.444-1.565
			l0.723,0.723C538.977,176.715,538.496,177.197,538.014,177.678z M630.826,176.114c-0.481-0.481-0.963-0.963-1.565-1.444
			l0.723-0.843c0.481,0.481,1.083,0.963,1.564,1.564L630.826,176.114z M541.746,173.947l-0.723-0.843
			c0.481-0.481,1.084-0.963,1.686-1.444l0.723,0.843C542.829,172.984,542.347,173.465,541.746,173.947z M626.853,172.502
			c-0.481-0.481-1.083-0.963-1.686-1.324l0.723-0.843c0.602,0.481,1.083,0.963,1.686,1.444L626.853,172.502z M545.839,170.576
			l-0.602-0.843c0.602-0.481,1.203-0.843,1.685-1.324l0.603,0.843C547.043,169.614,546.44,170.095,545.839,170.576z M622.64,169.131
			c-0.603-0.36-1.204-0.842-1.806-1.203l0.602-0.843c0.602,0.361,1.204,0.843,1.806,1.204L622.64,169.131z M550.173,167.447
			l-0.603-0.963c0.603-0.361,1.204-0.723,1.806-1.204l0.603,0.963C551.376,166.604,550.774,167.085,550.173,167.447z
			 M618.186,166.242c-0.603-0.361-1.204-0.723-1.806-1.083l0.481-0.963c0.602,0.36,1.324,0.722,1.926,1.083L618.186,166.242z
			 M554.867,164.678l-0.481-0.964c0.602-0.36,1.324-0.722,1.926-0.963l0.481,0.963C556.071,164.075,555.469,164.317,554.867,164.678
			z M613.491,163.714c-0.602-0.36-1.324-0.602-1.926-0.963l0.481-0.963c0.602,0.241,1.324,0.602,1.926,0.963L613.491,163.714z
			 M559.682,162.39l-0.481-0.963c0.722-0.24,1.324-0.602,2.046-0.843l0.361,0.964C561.007,161.788,560.284,162.15,559.682,162.39z
			 M608.555,161.548c-0.602-0.241-1.324-0.481-2.046-0.723l0.361-0.963c0.722,0.24,1.324,0.481,2.046,0.722L608.555,161.548z
			 M564.618,160.464l-0.361-0.963c0.723-0.24,1.324-0.481,2.046-0.602l0.361,1.083C565.942,159.983,565.34,160.224,564.618,160.464z
			 M603.5,159.742c-0.723-0.241-1.324-0.361-2.047-0.603l0.241-1.083c0.723,0.24,1.444,0.361,2.047,0.602L603.5,159.742z
			 M569.794,159.02l-0.24-1.083c0.722-0.121,1.444-0.361,2.166-0.481l0.241,1.083C571.118,158.658,570.396,158.779,569.794,159.02z
			 M598.324,158.538c-0.723-0.12-1.445-0.241-2.047-0.361l0.241-1.083c0.722,0.12,1.444,0.24,2.166,0.361L598.324,158.538z
			 M574.97,157.937l-0.121-1.084c0.723-0.12,1.445-0.24,2.167-0.361l0.12,1.084C576.415,157.696,575.692,157.816,574.97,157.937z
			 M593.147,157.575c-0.723-0.12-1.444-0.12-2.167-0.241l0.121-1.083c0.722,0.12,1.444,0.12,2.166,0.24L593.147,157.575z
			 M580.267,157.334l-0.121-1.083c0.723,0,1.444-0.12,2.167-0.12v1.083C581.712,157.214,580.989,157.214,580.267,157.334z
			 M587.73,157.214c-0.723,0-1.444,0-2.167,0v-1.083c0.723,0,1.444,0,2.167,0V157.214z"/>
		<polygon id="XMLID_131_" fill="#0091D1" points="645.03,223.904 649.123,232.932 655.021,224.988 		"/>
	</g>
</g>
<g id="Gear-8-Inner">
	<g id="XMLID_223_">
		<path id="XMLID_242_" fill="#0D1272" d="M585.082,206.208c-8.306,0-15.047,6.741-15.047,15.047
			c0,8.307,6.741,15.048,15.047,15.048c8.307,0,15.048-6.741,15.048-15.048C600.13,212.949,593.388,206.208,585.082,206.208z
			 M585.082,232.932c-6.38,0-11.677-5.176-11.677-11.677c0-6.38,5.177-11.677,11.677-11.677c6.38,0,11.677,5.177,11.677,11.677
			C596.759,227.756,591.462,232.932,585.082,232.932z"/>
		<g id="XMLID_239_">
			<polygon id="XMLID_241_" fill="#0D1272" points="586.406,202.837 583.758,202.837 582.795,207.412 587.369,207.412 			"/>
			<polygon id="XMLID_240_" fill="#0D1272" points="583.758,239.793 586.406,239.793 587.369,235.219 582.795,235.219 			"/>
		</g>
		<g id="XMLID_236_">
			<polygon id="XMLID_238_" fill="#0D1272" points="576.896,204.643 574.729,205.967 576.174,210.421 580.146,208.134 			"/>
			<polygon id="XMLID_237_" fill="#0D1272" points="593.147,237.988 595.434,236.663 593.99,232.21 590.017,234.497 			"/>
		</g>
		<g id="XMLID_233_">
			<polygon id="XMLID_235_" fill="#0D1272" points="569.674,211.024 568.469,213.19 571.841,216.441 574.248,212.347 			"/>
			<polygon id="XMLID_234_" fill="#0D1272" points="600.49,231.729 601.694,229.441 598.203,226.311 595.916,230.283 			"/>
		</g>
		<g id="XMLID_230_">
			<polygon id="XMLID_232_" fill="#0D1272" points="566.544,220.052 566.544,222.579 571.238,223.663 571.238,218.968 			"/>
			<polygon id="XMLID_231_" fill="#0D1272" points="603.5,222.579 603.5,220.052 598.926,218.968 598.926,223.663 			"/>
		</g>
		<g id="XMLID_227_">
			<polygon id="XMLID_229_" fill="#0D1272" points="568.469,229.441 569.674,231.729 574.248,230.283 571.961,226.311 			"/>
			<polygon id="XMLID_228_" fill="#0D1272" points="601.694,213.19 600.37,211.024 595.916,212.347 598.203,216.441 			"/>
		</g>
		<g id="XMLID_224_">
			<polygon id="XMLID_226_" fill="#0D1272" points="574.729,236.663 576.896,237.988 580.146,234.497 576.174,232.21 			"/>
			<polygon id="XMLID_225_" fill="#0D1272" points="595.434,205.967 593.147,204.643 590.017,208.134 593.99,210.541 			"/>
		</g>
	</g>
</g>
<g id="Gear-7">
	<g id="XMLID_245_">
		<g id="XMLID_264_">
			<path id="XMLID_265_" fill="#B6E1E9" d="M504.79,170.817c-13.724,0-24.798,11.075-24.798,24.798
				c0,13.724,11.074,24.798,24.798,24.798c13.723,0,24.798-11.074,24.798-24.798C529.708,181.892,518.512,170.817,504.79,170.817z
				 M504.79,201.393c-3.13,0-5.778-2.527-5.778-5.778c0-3.13,2.528-5.778,5.778-5.778c3.13,0,5.778,2.528,5.778,5.778
				C510.568,198.865,507.92,201.393,504.79,201.393z"/>
		</g>
		<g id="XMLID_261_">
			<polygon id="XMLID_263_" fill="#B6E1E9" points="506.957,164.918 502.623,164.918 500.817,172.742 508.762,172.864 			"/>
			<polygon id="XMLID_262_" fill="#B6E1E9" points="506.957,226.311 502.623,226.311 500.817,218.487 508.762,218.487 			"/>
		</g>
		<g id="XMLID_258_">
			<polygon id="XMLID_260_" fill="#B6E1E9" points="491.307,168.048 487.576,170.215 489.983,177.799 496.844,173.947 			"/>
			<polygon id="XMLID_259_" fill="#B6E1E9" points="522.004,221.135 518.272,223.302 512.855,217.404 519.596,213.431 			"/>
		</g>
		<g id="XMLID_255_">
			<polygon id="XMLID_257_" fill="#B6E1E9" points="479.389,178.401 477.102,182.253 483.001,187.67 486.973,180.808 			"/>
			<polygon id="XMLID_256_" fill="#B6E1E9" points="532.476,209.097 530.31,212.829 522.605,210.541 526.578,203.68 			"/>
		</g>
		<g id="XMLID_252_">
			<polygon id="XMLID_254_" fill="#B6E1E9" points="474.094,193.448 474.094,197.781 481.918,199.587 482.038,191.763 			"/>
			<polygon id="XMLID_253_" fill="#B6E1E9" points="535.486,193.448 535.486,197.781 527.662,199.587 527.662,191.763 			"/>
		</g>
		<g id="XMLID_249_">
			<polygon id="XMLID_251_" fill="#B6E1E9" points="477.102,209.097 479.389,212.829 486.973,210.541 483.122,203.68 			"/>
			<polygon id="XMLID_250_" fill="#B6E1E9" points="530.31,178.401 532.476,182.253 526.578,187.67 522.605,180.808 			"/>
		</g>
		<g id="XMLID_246_">
			<polygon id="XMLID_248_" fill="#B6E1E9" points="487.576,221.135 491.307,223.302 496.844,217.404 489.983,213.431 			"/>
			<polygon id="XMLID_247_" fill="#B6E1E9" points="518.272,168.048 522.004,170.215 519.717,177.799 512.855,173.947 			"/>
		</g>
	</g>
</g>
<path fill="#B6E1E9" d="M480.23,249.06c0,0.98-0.021,1.94-0.051,2.891H336.55c-0.03-0.95-0.05-1.91-0.05-2.891
	c0-37.189,31.78-70.18,71.87-70.18C448.57,178.88,480.23,211.87,480.23,249.06z"/>
<path id="XMLID_369_" fill="#0D1272" d="M435.452,240.153l-2.408-4.936l-8.907,1.926c-1.204-1.444-2.648-2.647-4.214-3.731
	l0.723-9.148l-5.177-1.806l-5.056,7.704c-1.806-0.12-3.731,0-5.658,0.361l-5.898-6.982l-4.936,2.408l1.927,8.907
	c-1.445,1.204-2.648,2.648-3.732,4.214l-9.148-0.723l-1.806,5.177l7.704,5.056c-0.12,1.806,0,3.731,0.361,5.657l-6.982,5.899
	l2.408,4.936l8.907-1.927c1.204,1.444,2.648,2.648,4.214,3.732l-0.723,9.148l5.177,1.806l5.056-7.704
	c1.806,0.12,3.731,0,5.657-0.361l5.899,6.981l4.936-2.407l-1.926-8.908c1.444-1.203,2.647-2.648,3.731-4.213l9.148,0.723
	l1.806-5.177l-7.704-5.056c0.12-1.806,0-3.731-0.361-5.658L435.452,240.153z M397.893,255.441
	c-2.889-6.019-0.481-13.241,5.537-16.131c6.02-2.889,13.242-0.481,16.131,5.538c2.89,6.019,0.481,13.241-5.537,16.13
	C408.126,263.867,400.903,261.46,397.893,255.441z"/>
<g id="Gear-2-Inner">
	<path id="XMLID_309_" fill="#C6E7EE" d="M217.206,235.099v-1.324l-2.287-0.481c0-0.602-0.121-1.204-0.241-1.806l2.047-1.204
		l-0.361-1.203l-2.408,0.24c-0.24-0.602-0.481-1.083-0.842-1.686l1.564-1.806l-0.723-1.083l-2.166,0.963
		c-0.361-0.481-0.843-0.843-1.324-1.324l0.963-2.167l-1.084-0.722l-1.806,1.564c-0.481-0.361-1.083-0.602-1.685-0.843l0.24-2.407
		l-1.203-0.361l-1.204,2.047c-0.602-0.12-1.204-0.241-1.806-0.241l-0.481-2.407h-1.324l-0.481,2.287
		c-0.603,0-1.204,0.12-1.806,0.241l-1.204-2.047l-1.204,0.361l0.241,2.407c-0.602,0.241-1.083,0.481-1.686,0.843l-1.806-1.564
		l-1.083,0.722l0.963,2.167c-0.481,0.361-0.843,0.843-1.324,1.324l-2.167-0.963l-0.722,1.083l1.564,1.806
		c-0.361,0.481-0.602,1.084-0.843,1.686l-2.407-0.241l-0.361,1.204l2.047,1.204c-0.121,0.602-0.241,1.203-0.241,1.806l-2.407,0.481
		v1.324l2.287,0.481c0,0.602,0.12,1.203,0.24,1.806l-2.046,1.203l0.361,1.204l2.407-0.24c0.24,0.602,0.481,1.083,0.843,1.685
		l-1.565,1.806l0.723,1.084l2.167-0.963c0.361,0.481,0.843,0.842,1.324,1.324l-0.963,2.166l1.083,0.723l1.806-1.564
		c0.481,0.36,1.083,0.602,1.686,0.842l-0.241,2.408l1.204,0.361l1.203-2.047c0.603,0.12,1.204,0.241,1.806,0.241l0.482,2.407h1.324
		l0.481-2.287c0.602,0,1.203-0.12,1.806-0.241l1.203,2.047l1.204-0.361l-0.241-2.407c0.603-0.241,1.084-0.481,1.686-0.843
		l1.806,1.564l1.084-0.722l-0.964-2.167c0.482-0.361,0.843-0.843,1.324-1.324l2.167,0.963l0.723-1.083l-1.565-1.806
		c0.361-0.481,0.603-1.084,0.843-1.686l2.408,0.24l0.36-1.203l-2.046-1.204c0.12-0.602,0.24-1.204,0.24-1.806L217.206,235.099z
		 M201.556,244.489c-5.537,0-10.112-4.454-10.112-10.112c0-5.537,4.454-10.111,10.112-10.111c5.537,0,10.111,4.454,10.111,10.111
		C211.548,239.914,207.094,244.489,201.556,244.489z"/>
</g>
<g>
	<g>
		<g>
			<g>
				<path fill="#C6E7EE" d="M142.064,251.801h3.86c1.642-4.61,6.012-7.885,11.212-7.885c5.201,0,9.571,3.274,11.213,7.885h3.739
					c-0.167-0.633-0.38-1.25-0.627-1.866l3.01-2.889l-1.084-1.806l-3.972,1.083c-0.843-1.083-1.686-1.926-2.77-2.769l1.084-3.973
					l-1.806-1.083l-2.89,3.01c-1.203-0.481-2.407-0.843-3.731-0.963l-1.204-4.093h-2.166l-1.084,4.093
					c-1.324,0.12-2.527,0.481-3.731,0.963l-2.89-3.01l-1.806,1.083l1.084,3.973c-1.084,0.843-1.926,1.686-2.769,2.769l-3.973-1.083
					l-1.084,1.806l3.01,2.889C142.445,250.551,142.231,251.168,142.064,251.801z"/>
			</g>
		</g>
	</g>
</g>
<path fill="#601A7A" d="M640.957,251.831c1.096-0.611,2.359-0.963,3.713-0.963s2.617,0.352,3.712,0.963h7.264l2.747-4.694
	l-2.407-2.408l-4.936,2.89c-0.963-0.603-2.047-1.084-3.251-1.324l-1.444-5.537h-3.491l-1.444,5.537
	c-1.203,0.24-2.287,0.722-3.25,1.324l-4.936-2.89l-2.407,2.408l2.747,4.694H640.957z"/>
<path fill="#0091D1" d="M541.023,230.886l-6.981,4.093l1.324,4.213l8.065-0.723c0.842,1.927,1.685,3.732,2.769,5.538l-5.417,6.139
	l1.18,1.686h5.94l2.871-1.204c0.354,0.418,0.737,0.804,1.107,1.204h19.009c-11.583-5.374-19.635-17.105-19.635-30.696
	c0-18.658,15.168-33.826,33.826-33.826c18.659,0,33.826,15.168,33.826,33.826c0,13.591-8.052,25.322-19.635,30.696h18.509
	c0.293-0.323,0.604-0.629,0.886-0.963l2.211,0.963h6.854l0.927-1.324l-5.297-6.019c1.084-1.806,2.047-3.611,2.89-5.417l8.065,0.722
	l1.323-4.213l-6.981-4.093c0.481-1.926,0.843-3.973,0.963-6.019l8.186-1.806v-4.454l-7.824-1.806
	c-0.12-2.047-0.481-4.093-0.963-6.14l6.981-4.093l-1.324-4.213l-8.065,0.722c-0.843-1.926-1.685-3.731-2.769-5.537l5.297-6.14
	l-2.528-3.611l-7.463,3.13c-1.324-1.564-2.769-3.009-4.334-4.333l3.25-7.464l-3.611-2.528l-6.019,5.297
	c-1.806-1.083-3.611-2.046-5.417-2.889l0.723-8.065l-4.214-1.324l-4.093,6.981c-1.926-0.481-3.973-0.842-6.019-0.963l-1.806-7.944
	h-4.454l-1.806,7.824c-2.047,0.12-4.093,0.481-6.14,0.963l-4.093-6.981l-4.213,1.324l0.722,8.064
	c-1.926,0.843-3.731,1.686-5.537,2.77l-6.14-5.297l-3.611,2.527l3.13,7.464c-1.564,1.324-3.009,2.769-4.333,4.334l-7.464-3.251
	l-2.527,3.611l5.296,6.02c-1.083,1.806-2.046,3.611-2.889,5.417l-8.065-0.723l-1.324,4.214l6.981,4.093
	c-0.481,1.926-0.842,3.973-0.963,6.019l-7.944,1.806v4.454l7.824,1.806C540.18,226.793,540.542,228.839,541.023,230.886z"/>
<g>
	<path fill="#0091D1" d="M299.673,251.526l-0.008,0.426h1.108C300.407,251.807,300.043,251.659,299.673,251.526z"/>
	<path fill="#0091D1" d="M272.219,251.279c-0.617,0.21-1.227,0.435-1.831,0.673h12.665v-0.12h4.936v0.12h11.677l-6.26-1.564
		l0.294-0.523c-1.51-0.301-3.052-0.512-4.616-0.643l0.109,0.443h-6.501l0.132-0.5c-1.55,0.102-3.076,0.291-4.574,0.559l0.229,0.423
		l-6.26,1.686V251.279z"/>
</g>
<g>
	<path fill="#0091D1" d="M277.635,234.016v-0.603c-0.843,0-1.565,0-2.287,0.121v0.602
		C276.07,234.016,276.793,233.895,277.635,234.016z"/>
	<path fill="#0091D1" d="M272.7,234.376c0.24,0,0.481-0.12,0.723-0.12l-0.121-0.602c-0.24,0-0.481,0.12-0.722,0.12
		c-0.481,0.12-0.963,0.12-1.445,0.241l0.121,0.602C271.737,234.497,272.339,234.497,272.7,234.376z"/>
	<path fill="#0091D1" d="M281.728,233.173c-0.843,0-1.564,0-2.287,0v0.602c0.723,0,1.444,0,2.287,0V233.173z"/>
	<path fill="#0091D1" d="M269.45,235.099l-0.121-0.602c-0.722,0.12-1.444,0.24-2.166,0.481l0.12,0.481
		C268.006,235.34,268.727,235.099,269.45,235.099z"/>
	<path fill="#0091D1" d="M293.886,234.858c-0.723-0.12-1.444-0.36-2.167-0.481l-0.12,0.603c0.723,0.12,1.444,0.24,2.167,0.481
		L293.886,234.858z"/>
	<path fill="#0091D1" d="M289.794,234.016c-0.723-0.121-1.444-0.241-2.167-0.361l-0.12,0.602c0.722,0.12,1.444,0.241,2.167,0.361
		L289.794,234.016z"/>
	<path fill="#0091D1" d="M285.821,233.413c-0.843,0-1.564-0.12-2.287-0.12v0.602c0.723,0,1.444,0,2.167,0.121L285.821,233.413z"/>
	<path fill="#0091D1" d="M254.282,240.636l-0.24-0.481c-0.603,0.481-1.324,0.843-1.927,1.204l0.241,0.481
		C252.958,241.479,253.68,241.117,254.282,240.636z"/>
	<path fill="#0091D1" d="M265.597,235.942l-0.12-0.481c-0.723,0.24-1.444,0.481-2.167,0.722l0.12,0.481
		C264.153,236.423,264.876,236.182,265.597,235.942z"/>
	<path fill="#0091D1" d="M244.411,247.859l-0.361-0.36c-0.481,0.481-1.083,1.083-1.564,1.564l0.361,0.361
		C243.328,248.943,243.809,248.34,244.411,247.859z"/>
	<path fill="#0091D1" d="M240.462,251.951c0.344-0.432,0.677-0.853,0.939-1.203l-0.36-0.361c-0.447,0.559-0.895,1.021-1.342,1.564
		H240.462z"/>
	<path fill="#0091D1" d="M247.421,245.21l-0.361-0.481c-0.481,0.481-1.083,0.964-1.686,1.445l0.361,0.481
		C246.337,246.174,246.939,245.693,247.421,245.21z"/>
	<path fill="#0091D1" d="M261.625,237.266l-0.24-0.481c-0.603,0.24-1.324,0.602-2.047,0.843l0.241,0.481
		C260.301,237.747,261.023,237.506,261.625,237.266z"/>
	<path fill="#0091D1" d="M258.013,238.83l-0.24-0.481c-0.723,0.241-1.324,0.603-2.047,0.963l0.241,0.481
		C256.569,239.433,257.292,239.192,258.013,238.83z"/>
	<path fill="#0091D1" d="M250.791,242.803l-0.361-0.481c-0.602,0.481-1.203,0.843-1.806,1.324l0.361,0.481
		C249.588,243.646,250.189,243.284,250.791,242.803z"/>
</g>
<path fill="#0071BC" d="M175.314,239.312l-3.732,1.686l0.361,2.167l4.454,0.361c0.602,1.564,1.324,3.009,2.167,4.454l-2.89,2.889
	l0.609,1.083h3.51l1.298-0.36c0.103,0.125,0.211,0.239,0.315,0.36h6.118c-5.161-4.131-8.479-10.476-8.479-17.575
	c0-12.398,10.111-22.511,22.511-22.511c12.398,0,22.511,10.112,22.511,22.511c-0.069,7.1-3.377,13.444-8.518,17.575h6.64
	l-0.169-0.36c1.084-1.324,2.047-2.648,2.89-4.093l3.973,1.083l1.083-1.926l-3.25-3.13c0.602-1.565,0.963-3.13,1.203-4.815
	l3.973-0.361l0.361-2.167l-4.093-1.806c0-1.685-0.12-3.37-0.481-4.936l3.731-1.685l-0.361-2.167l-4.453-0.361
	c-0.603-1.564-1.324-3.01-2.167-4.454l2.889-2.889l-1.083-1.927l-4.334,1.204c-1.083-1.324-2.287-2.407-3.491-3.491l1.806-3.731
	l-1.685-1.444l-3.611,2.648c-1.445-0.843-2.89-1.565-4.575-2.047l0.361-4.093l-2.046-0.722l-2.518,3.716
	c-1.522-0.23-2.939-0.346-4.584-0.346c-0.12,0-0.241,0-0.361,0l-0.963-3.973h-2.287l-1.084,4.334h0.121
	c-1.686,0.24-3.25,0.722-4.815,1.324l-2.287-3.371l-2.047,0.723l0.481,4.454c-1.444,0.843-2.769,1.806-4.093,2.889l-3.37-2.407
	l-1.686,1.444l1.926,4.093c-1.083,1.324-2.046,2.648-2.889,4.093l-3.973-1.083l-1.083,1.926l3.25,3.13
	c-0.602,1.565-0.963,3.13-1.204,4.815l-4.093,0.361l-0.361,2.166l4.094,1.806C174.833,236.062,174.953,237.747,175.314,239.312z"/>
<path fill="#0D1272" d="M227.558,251.23v0.722h7.618c0.296-2.737,2.584-4.936,5.503-4.936c2.813,0,5.204,2.104,5.504,4.936h7.255
	v-0.722l-3.973-1.084c-0.24-0.842-0.602-1.685-0.963-2.407l2.167-3.611l-1.806-1.806l-3.611,2.167
	c-0.723-0.481-1.565-0.723-2.407-0.963l-1.084-3.973h-2.527l-1.084,3.973c-0.843,0.24-1.686,0.602-2.407,0.963l-3.611-2.167
	l-1.806,1.806l2.167,3.611c-0.481,0.723-0.723,1.565-0.964,2.407L227.558,251.23z"/>
<path fill="none" d="M408.246,202.597c-25.641,0-46.466,20.825-46.466,46.466c0,0.969,0.04,1.929,0.098,2.883h92.737
	c0.059-0.954,0.098-1.914,0.098-2.883C454.713,223.422,433.886,202.597,408.246,202.597z"/>
<path fill="#FFFFFF" d="M461.334,245.563c-0.146-2.325-0.439-4.622-0.885-6.88l-1.885,0.99l-2.046-7.704l2.108-0.063
	c-0.422-1.237-0.873-2.464-1.387-3.669c-0.403-0.912-0.834-1.807-1.278-2.692l-1.49,1.368l-3.973-6.741l1.987-0.621
	c-1.262-1.895-2.654-3.711-4.17-5.452l-1.067,1.739l-5.658-5.657l1.782-1.114c-1.685-1.517-3.454-2.921-5.315-4.191l-0.68,2.176
	l-6.861-3.973l1.556-1.694c-1.022-0.508-2.058-0.995-3.121-1.436c-1.12-0.468-2.25-0.885-3.385-1.277l-0.105,2.36l-7.585-2.046
	l1.125-2.141c-2.327-0.486-4.692-0.803-7.093-0.968l0.551,2.386h-7.824l0.523-2.431c-2.409,0.139-4.787,0.44-7.125,0.898
	l1.185,2.255l-7.584,2.046l-0.115-2.575c-1.342,0.448-2.672,0.936-3.978,1.492c-0.905,0.4-1.793,0.827-2.673,1.268l1.71,1.862
	l-6.861,3.973l-0.755-2.417c-1.979,1.312-3.875,2.762-5.687,4.349l2.108,1.318l-5.537,5.537l-1.374-2.137
	c-1.647,1.819-3.157,3.74-4.516,5.767l2.64,0.824l-3.973,6.741l-1.983-1.821c-0.49,0.991-0.96,1.995-1.388,3.025
	c-0.516,1.233-0.97,2.479-1.393,3.73l2.717,0.121l-2.167,7.584l-2.315-1.237c-0.479,2.354-0.787,4.746-0.939,7.175l2.292-0.521
	l-0.104,6.855h4.536c-0.059-0.954-0.098-1.914-0.098-2.883c0-25.641,20.825-46.466,46.466-46.466s46.467,20.825,46.467,46.466
	c0,0.969-0.039,1.929-0.098,2.883h4.672v-6.855L461.334,245.563z"/>
<polygon fill="#FFFFFF" points="412.459,198.263 411.908,195.877 410.653,190.439 406.32,190.439 405.158,195.832 404.635,198.263
	"/>
<polygon fill="#FFFFFF" points="399.218,198.986 398.033,196.731 395.486,191.883 391.272,192.966 391.518,198.457 391.634,201.031
	"/>
<polygon fill="#FFFFFF" points="386.578,203.078 384.868,201.217 381.161,197.18 377.308,199.347 378.961,204.634 379.717,207.051
	"/>
<polygon fill="#FFFFFF" points="375.383,210.301 373.274,208.983 368.641,206.088 365.511,209.097 368.471,213.701 369.845,215.838
	"/>
<polygon fill="#FFFFFF" points="366.595,220.292 363.956,219.468 358.89,217.885 356.724,221.616 360.639,225.212 362.623,227.033
	"/>
<polygon fill="#FFFFFF" points="360.576,232.089 357.859,231.968 352.51,231.729 351.427,235.942 356.094,238.436 358.409,239.673
	"/>
<polygon fill="#FFFFFF" points="355.155,245.611 349.502,246.896 349.502,251.23 352.603,251.946 357.343,251.946 357.446,245.09
	"/>
<polygon fill="#FFFFFF" points="467.111,246.896 461.334,245.563 459.287,245.09 459.287,251.946 464.01,251.946 467.111,251.23 "/>
<polygon fill="#FFFFFF" points="458.564,239.673 460.449,238.683 465.667,235.942 464.583,231.729 458.627,231.906 456.518,231.969
	"/>
<polygon fill="#FFFFFF" points="454.471,226.913 455.962,225.545 460.37,221.496 458.203,217.764 452.486,219.551 450.499,220.172
	"/>
<polygon fill="#FFFFFF" points="447.249,215.838 448.316,214.099 451.462,208.977 448.332,205.967 443.373,209.067 441.591,210.181
	"/>
<polygon fill="#FFFFFF" points="437.378,207.051 438.057,204.875 439.785,199.347 435.933,197.18 432.072,201.385 430.516,203.078
	"/>
<polygon fill="#FFFFFF" points="425.461,201.031 425.566,198.672 425.821,192.966 421.608,191.883 419.001,196.844 417.876,198.986
	"/>
<path fill="#B6E1E9" d="M421.728,149.39c0.361,0,0.723,0.12,1.084,0.12l0.24-2.167c-0.361,0-0.722-0.12-1.083-0.12L421.728,149.39z"
	/>
<path fill="#B6E1E9" d="M492.993,194.652c0.36,0.602,0.722,1.204,1.083,1.806l1.806-1.204c-0.361-0.602-0.723-1.203-1.083-1.806
	L492.993,194.652z"/>
<path fill="#B6E1E9" d="M498.169,198.986l-1.926,1.083c0.24,0.603,0.602,1.204,0.963,1.806l2.046-0.963
	C498.891,200.189,498.53,199.587,498.169,198.986z"/>
<path fill="#B6E1E9" d="M489.382,189.476c0.36,0.602,0.842,1.083,1.203,1.685l1.686-1.324c-0.361-0.481-0.843-1.083-1.204-1.685
	L489.382,189.476z"/>
<path fill="#B6E1E9" d="M481.195,179.845c0.481,0.481,0.964,1.084,1.445,1.565l1.564-1.444c-0.481-0.482-0.963-1.084-1.444-1.565
	L481.195,179.845z"/>
<path fill="#B6E1E9" d="M485.409,184.66c0.481,0.481,0.843,0.963,1.324,1.564l1.685-1.324c-0.36-0.602-0.842-1.203-1.324-1.685
	L485.409,184.66z"/>
<path fill="#B6E1E9" d="M501.058,204.523l-1.927,0.963c0.241,0.603,0.603,1.324,0.843,1.927l2.047-0.964
	C501.66,205.847,501.419,205.124,501.058,204.523z"/>
<path fill="#B6E1E9" d="M476.742,175.512c0.602,0.481,1.083,0.963,1.564,1.444l1.444-1.565c-0.481-0.481-1.083-0.963-1.564-1.444
	L476.742,175.512z"/>
<path fill="#B6E1E9" d="M508.762,241.72c0,0.602,0.12,1.324,0.12,2.046h2.167c0-0.722-0.121-1.444-0.121-2.167L508.762,241.72z"/>
<path fill="#B6E1E9" d="M510.327,235.219l-2.167,0.241c0.121,0.602,0.121,1.324,0.241,2.046l2.167-0.12
	C510.568,236.663,510.447,235.942,510.327,235.219z"/>
<path fill="#B6E1E9" d="M507.678,222.579l-2.046,0.603c0.12,0.722,0.36,1.323,0.481,2.046l2.046-0.602
	C508.04,223.904,507.92,223.302,507.678,222.579z"/>
<path fill="#B6E1E9" d="M509.244,228.839l-2.167,0.481c0.12,0.723,0.24,1.324,0.361,2.047l2.166-0.481
	C509.484,230.283,509.364,229.562,509.244,228.839z"/>
<path fill="#B6E1E9" d="M505.873,216.561l-2.046,0.722c0.12,0.603,0.36,1.204,0.602,1.927l2.047-0.603
	C506.354,217.885,506.114,217.282,505.873,216.561z"/>
<path fill="#B6E1E9" d="M503.706,210.421l-2.046,0.843c0.24,0.602,0.481,1.324,0.722,1.926l2.167-0.843
	C504.187,211.745,503.947,211.024,503.706,210.421z"/>
<path fill="#B6E1E9" d="M439.063,153.241c0.722,0.241,1.444,0.481,2.046,0.723l0.603-2.047c-0.723-0.24-1.324-0.481-2.047-0.722
	L439.063,153.241z"/>
<path fill="#B6E1E9" d="M445.082,155.408c0.602,0.361,1.324,0.602,1.926,0.843l0.843-2.047c-0.602-0.36-1.324-0.602-1.926-0.843
	L445.082,155.408z"/>
<path fill="#B6E1E9" d="M433.044,151.677c0.723,0.12,1.324,0.24,2.047,0.481l0.481-1.927c-0.723-0.24-1.324-0.481-2.047-0.602
	L433.044,151.677z"/>
<path fill="#B6E1E9" d="M472.047,171.298c0.481,0.361,1.083,0.843,1.565,1.324l1.444-1.686c-0.603-0.36-1.084-0.842-1.686-1.323
	L472.047,171.298z"/>
<path fill="#B6E1E9" d="M426.905,150.232c0.722,0.121,1.324,0.241,2.046,0.361l0.361-2.167c-0.602-0.12-1.324-0.24-2.046-0.36
	L426.905,150.232z"/>
<path fill="#B6E1E9" d="M467.111,167.567c0.602,0.361,1.084,0.723,1.686,1.204l1.203-1.686c-0.481-0.481-1.083-0.963-1.685-1.324
	L467.111,167.567z"/>
<path fill="#B6E1E9" d="M461.814,164.075c0.603,0.361,1.204,0.723,1.806,1.084l1.204-1.686c-0.602-0.481-1.204-0.843-1.806-1.204
	L461.814,164.075z"/>
<path fill="#B6E1E9" d="M456.518,160.705c0.602,0.361,1.203,0.722,1.806,1.083l1.203-1.926c-0.722-0.361-1.324-0.723-1.926-1.084
	L456.518,160.705z"/>
<path fill="#B6E1E9" d="M450.74,157.937c0.722,0.36,1.324,0.602,1.926,0.963l0.963-1.927c-0.602-0.36-1.324-0.602-1.926-0.963
	L450.74,157.937z"/>
<polygon fill="#B6E1E9" points="511.17,247.98 509.003,247.98 504.428,247.98 506.676,251.831 513.904,251.831 516.105,247.98 "/>
<circle fill="#B6E1E9" cx="408.816" cy="250.178" r="12.08"/>
</svg>
