<?xml version="1.0" encoding="utf-8"?>
<!-- Generator: Adobe Illustrator 19.0.0, SVG Export Plug-In . SVG Version: 6.00 Build 0)  -->
<svg version="1.1" xmlns="http://www.w3.org/2000/svg" xmlns:xlink="http://www.w3.org/1999/xlink" x="0px" y="0px"
	 viewBox="0 0 513 541" style="enable-background:new 0 0 513 541;" xml:space="preserve">
<style type="text/css">
	.st0{fill:#B6E1E9;}
	.st1{fill:#FFFFFF;}
	.st2{fill:#601A7A;}
	.st3{fill:#0D1272;}
</style>
<g id="Arm__x26__Hand">
	<g id="XMLID_71_">
		<path id="XMLID_79_" class="st0" d="M96.5,18.4c0.7,0.4,1.2,1.2,1.2,2.1c0,1.3-1.1,2.4-2.4,2.4l-21.3,0c-1.3,0-2.4-1.1-2.4-2.4
			c0-1.3,1.1-2.4,2.4-2.4l21.3,0C95.7,18.1,96.1,18.2,96.5,18.4z"/>
		<path id="XMLID_78_" class="st0" d="M70,33.8c0.6,0,1.2-0.2,1.6-0.6c2.8-2.7,10.5-7.9,18.8-8.9c1.3-0.1,2.3-1.3,2.1-2.7
			c-0.1-1.3-1.3-2.3-2.7-2.1c-9.6,1.1-18.1,6.9-21.6,10.2c-1,0.9-1,2.4-0.1,3.4C68.7,33.6,69.4,33.8,70,33.8z"/>
		<path id="XMLID_77_" class="st0" d="M76.5,44.4c1.3,0,2.4-1.1,2.4-2.4c0-6.4,3.1-11.2,11.9-18.5c1-0.8,1.2-2.4,0.3-3.4
			c-0.8-1-2.4-1.2-3.4-0.3c-8.4,7-13.7,13.1-13.7,22.2C74.1,43.3,75.1,44.4,76.5,44.4z"/>
		<path id="XMLID_76_" class="st0" d="M82.5,26.9c3.3,0,21.9,0,32.7,0c0.6-1.7,1.6-5,6.2-5c3.8,0,9.8,7.7,9.8,7.7l14.1-14.1
			c-4-4-10.7-13.5-24-13.5c-10.2,0-22.5,7.9-27.7,11.9C88.3,17.8,85.1,22.4,82.5,26.9z"/>
		<g id="XMLID_73_">
			<path id="XMLID_75_" class="st0" d="M115.1,18.5c1.4,0.5,2.2,2,1.7,3.5l-7.3,22.3c-0.5,1.4-2,2.2-3.5,1.7c-1.4-0.5-2.2-2-1.7-3.5
				l7.3-22.3C112.1,18.8,113.6,18,115.1,18.5z"/>
			<path id="XMLID_74_" class="st0" d="M103.4,26.9c2.4,0,4.9,3.6,4,6.2l1,0.3l3.2-9.8l-5.6-1.9L103.4,26.9z"/>
		</g>
		<path id="XMLID_72_" class="st0" d="M91.3,43.9c0,0.4-0.1,0.9-0.4,1.3c-0.7,1.1-2.2,1.5-3.3,0.8c-4-2.5-6.6-6.8-6.9-11.2
			c-0.3-4.7,1.8-9.2,6-12.8c1-0.9,2.5-0.7,3.4,0.3c0.9,1,3,4.7,1.7,4.7c-3.1,0-6.5,4.3-6.3,7.4c0.2,3,2,5.8,4.7,7.5
			C90.9,42.3,91.3,43.1,91.3,43.9z"/>
	</g>
	
		<rect id="XMLID_70_" x="130.2" y="5.9" transform="matrix(0.7071 0.7071 -0.7071 0.7071 51.6173 -89.079)" class="st1" width="6.3" height="23.8"/>
	<path id="XMLID_69_" class="st2" d="M232.3,141.7l56.5-7.2C249.4,102.9,182.2,49.1,142.1,9l-17.7,17.7
		C153.5,55.8,194.9,111.7,232.3,141.7z"/>
</g>
<g id="Body__x26__Plate">
	<g id="XMLID_139_">
		<g id="XMLID_140_">
			<polygon id="XMLID_141_" class="st0" points="121.4,264.7 126.8,264.7 126.8,244 121.4,244 118.6,254.3 			"/>
		</g>
	</g>
	<g id="XMLID_130_">
		<g id="XMLID_134_">
			<g id="XMLID_135_">
				<g id="XMLID_137_">
					<path id="XMLID_138_" class="st3" d="M359,225.8c8.7,93,14.2,196.1,22.5,291.3c2.9-0.1,11.2-0.4,14.7-0.6
						c9.5-92.3,21.2-187.6,25.4-292.2C423.4,177.4,354.4,177,359,225.8z"/>
				</g>
				<path id="XMLID_136_" class="st2" d="M381.7,522.4c-1.3,2.4-9.3,5.2-12.9,3.2c-3.6-2-11.2,1.6-5,5.4c6.2,3.8,19.8,2.5,22.5-0.9
					c0,1.4,0,2.9,0,2.9l10.7,0l-1.1-10.7L381.7,522.4z"/>
			</g>
		</g>
	</g>
	<g id="XMLID_57_">
		<g id="XMLID_58_">
			<g id="XMLID_59_">
				<g id="XMLID_81_">
					<path id="XMLID_82_" class="st3" d="M414.1,225.8c8.7,93,24.5,193.5,40.3,291.3c2.9-0.1,11.2-0.4,14.7-0.6
						c0.9-92.3,3.4-187.6,7.6-292.2C478.5,177.4,409.5,177,414.1,225.8z"/>
				</g>
				<path id="XMLID_80_" class="st2" d="M454.6,522.4c-1.3,2.4-9.3,5.2-12.9,3.2c-3.6-2-11.2,1.6-5,5.4c6.2,3.8,19.8,2.5,22.5-0.9
					c0,1.4,0,2.9,0,2.9l10.7,0l-1.1-10.7L454.6,522.4z"/>
			</g>
		</g>
	</g>
	<g id="XMLID_50_">
		<g id="XMLID_52_">
			<g id="XMLID_55_">
				<path id="XMLID_56_" class="st0" d="M240.1,132.9c-26-14.1-38.8-45-39.6-60c-2.4-0.1-6.6-0.2-6.6-0.2s3-7.7,7.2-16.5
					c4.2-8.8,12.1-12,24.2-11.7c13.8,0.3,21.9,12.6,22.5,24.2c0.4,8,11.2,14,17.1,16.3C282.1,91.7,252.2,139.5,240.1,132.9z"/>
			</g>
			<path id="XMLID_54_" class="st2" d="M205.1,60.4c-0.5,1.4,0.3,3,1.7,3.4c1.4,0.5,3-0.3,3.4-1.7c0.5-1.4-0.3-3-1.7-3.4
				C207.1,58.2,205.5,59,205.1,60.4z"/>
			<path id="XMLID_53_" class="st2" d="M211.3,60.5c-0.5,1.4,0.3,3,1.7,3.4c1.4,0.5,3-0.3,3.4-1.7c0.5-1.4-0.3-3-1.7-3.4
				C213.3,58.4,211.8,59.1,211.3,60.5z"/>
		</g>
		<path id="XMLID_51_" class="st2" d="M244.8,45.9c0.3-6.3-6-11.7-12.3-10.6c-6.3,1-11.5-1.1-10.7-4.1c-5.6,3.8-6.1,12.4-1.3,16.2
			c4.8,3.7,14.8,5.1,21.8,5.2c-1.5,3.2,2,16.1,5.6,16.3C253.9,63.6,254.1,47.3,244.8,45.9z"/>
	</g>
	<g id="XMLID_48_">
		<path id="XMLID_49_" class="st2" d="M257,97.6c-0.3,10.7-10.1,30.8-19.3,34c-2.4,4.3-4.2,7.5-5.4,10.2
			c13.7,12.2,71.2,56.5,109.7,90.8c5.2,4.6,12.1,16.2,15.6,35.2c0,0,114.9-30.3,149.4-42.8c-12-19.5-31.5-40.6-51.8-51.5
			c-59.4-74.3-123-98.7-172.9-98.7C272.6,74.8,267.7,79,257,97.6z"/>
	</g>
	<path id="XMLID_47_" class="st1" d="M255.8,99.5l-18.1,32.1c5.7,14.1,13.7,27.1,24,35.5c10.3,8.4,40.7,31.8,40.7,31.8l17.8,2.6
		l-1.3-19.9C301.7,163.1,259.1,108.9,255.8,99.5z"/>
	<g id="XMLID_45_">
		<path id="XMLID_46_" class="st3" d="M239.4,128.5c4.5,8.9,8.5,19.5,23.7,33.3c16,14.5,49.6,38.1,78.9,70.7
			c-30.7-26.4-92.6-59.7-92.6-59.7l1.9-8.7c0,0-2.6,1.2-5.7,3c-3.9-10.1-8.5-23.9-9.9-31.6C236.4,133.9,238.8,129.6,239.4,128.5z"/>
	</g>
	<g id="XMLID_41_">
		
			<rect id="XMLID_44_" x="242.5" y="114.9" transform="matrix(-0.5786 0.8156 -0.8156 -0.5786 484.3873 -13.0703)" class="st2" width="6" height="7.4"/>
		<polygon id="XMLID_43_" class="st2" points="246.2,130.1 246.1,122.7 241.5,119.4 234.7,122 		"/>
		<polygon id="XMLID_42_" class="st2" points="256.7,115.4 249.6,117.8 245,114.5 245.2,107.2 		"/>
	</g>
	<g id="XMLID_17_">
		<g id="XMLID_24_">
			<g id="XMLID_31_">
				<g id="XMLID_32_">
					<g id="XMLID_39_">
						<path id="XMLID_40_" class="st0" d="M95.6,253c0.5,0,1-0.1,1.4-0.4c1.4-0.8,1.9-2.5,1.1-3.9l-11.7-20.5
							c-0.8-1.4-2.5-1.9-3.9-1.1c-1.4,0.8-1.9,2.5-1.1,3.9l11.7,20.5C93.6,252.5,94.6,253,95.6,253z"/>
					</g>
					<g id="XMLID_37_">
						<path id="XMLID_38_" class="st0" d="M100.8,253.4c0.3,0,0.6-0.1,0.8-0.2c1.5-0.5,2.3-2.2,1.7-3.7l-7.6-20.8
							c-0.5-1.5-2.2-2.3-3.7-1.7c-1.5,0.5-2.3,2.2-1.7,3.7l7.6,20.8C98.4,252.7,99.6,253.4,100.8,253.4z"/>
					</g>
					<g id="XMLID_35_">
						<path id="XMLID_36_" class="st0" d="M106.7,253.2c0.1,0,0.2,0,0.2-0.1c1.5-0.4,2.4-2,2-3.5l-5.8-20.7c-0.4-1.5-2-2.4-3.5-2
							c-1.5,0.4-2.4,2-2,3.5l5.8,20.7C103.8,252.6,105.3,253.5,106.7,253.2z"/>
					</g>
					<g id="XMLID_33_">
						<path id="XMLID_34_" class="st0" d="M90.5,250c0.8,0,1.5-0.3,2.1-0.9c1.1-1.2,1-3-0.2-4.1l-18.9-17.5c-1.2-1.1-3-1-4.1,0.2
							c-1.1,1.2-1,3,0.2,4.1l18.9,17.5C89.1,249.8,89.8,250,90.5,250z"/>
					</g>
				</g>
			</g>
			<g id="XMLID_27_">
				<g id="XMLID_29_">
					<path id="XMLID_30_" class="st0" d="M117.1,250.7c1.3,0,2.5-0.8,2.9-2.1l5.6-17.9c0.5-1.6-0.4-3.3-2-3.8
						c-1.6-0.5-3.3,0.4-3.8,2l-5.6,17.9c-0.5,1.6,0.4,3.3,2,3.8C116.5,250.7,116.8,250.7,117.1,250.7z"/>
				</g>
				<path id="XMLID_28_" class="st0" d="M116,240.8h6.4l-1,3.2h-10C113.5,244,115.4,242.9,116,240.8z"/>
			</g>
			<g id="XMLID_25_">
				<path id="XMLID_26_" class="st0" d="M88,240.9c3.3,3,14.9,3.1,18.4,3.1c1.3,0,4.1,0,5.1,0h10v0v20.7c-14.2,0-23.9-7.3-32.9-15.4
					C87.4,248.2,85.6,238.7,88,240.9z"/>
			</g>
		</g>
		<polygon id="XMLID_23_" class="st1" points="97.6,221.2 163.6,221.2 162.1,226.7 97.6,226.7 33.1,226.7 31.5,221.2 		"/>
		<rect id="XMLID_22_" x="29.6" y="218.1" class="st1" width="135.9" height="3.6"/>
		<rect id="XMLID_21_" x="124.1" y="242.9" class="st1" width="6.3" height="23.8"/>
		<path id="XMLID_20_" class="st3" d="M254,102.6c9,31.6,97.5,114.8,97.7,115c-11.7-14.2-46.6-58.6-57.2-86.1
			c-3.7,0.5-12.4,1.8-12.4,1.8l4.7-11c0,0-22.5-18.6-29.7-24.7C255.9,99.2,254,102.6,254,102.6z"/>
		<g id="XMLID_18_">
			<path id="XMLID_19_" class="st2" d="M309.1,103.4c-16.5,106.8-88.3,163.8-181.8,163.8l0-24.9c91.2-8.2,126-65.2,136.8-149.8
				C267.2,67.8,313.3,76.6,309.1,103.4z"/>
		</g>
	</g>
</g>
<g id="Lid">
	<g id="XMLID_61_">
		<path id="XMLID_68_" class="st2" d="M92.2,52.3c0,0.8,0.7,1.5,1.5,1.5h8.1c0.8,0,1.5-0.7,1.5-1.5c0-0.8-0.7-1.5-1.5-1.5h-8.1
			C92.8,50.8,92.2,51.5,92.2,52.3z"/>
		<path id="XMLID_67_" class="st2" d="M97.7,39.2c2.8,0,6.4,1.1,6.4,4.6c0,2.9-1.9,3.5-3.1,4.2c-1.3,0.7-1.3,1.9-1.3,2.8
			c-0.7,0-2,0-2,0s-1.3,0-2,0c0-0.9,0-2.1-1.3-2.8c-1.3-0.7-3.1-1.2-3.1-4.2C91.3,40.2,94.9,39.2,97.7,39.2z"/>
		<path id="XMLID_66_" class="st2" d="M154.9,110.9c0-31.7-25.7-57.4-57.4-57.4c-31.7,0-57.4,25.7-57.4,57.4h57.4H154.9z"/>
		<path id="XMLID_62_" class="st1" d="M106.6,58.2c7,3.8,23.2,20.5,26.2,36.3c3.1,0,9.7,0,9.7,0C139.5,77.2,120.3,61.6,106.6,58.2z"
			/>
	</g>
</g>
<g id="Graph">
	<g id="XMLID_3_">
		<polygon id="XMLID_8_" class="st1" points="93.9,175.1 101.7,184.3 116.3,163.9 120.6,166.9 121.9,152.9 109.1,158.7 113.4,161.8 
			101.5,178.6 93.5,169.1 81.2,188.9 76.9,183.3 74.1,185.5 81.5,195.1 		"/>
		<polygon id="XMLID_4_" class="st0" points="71.9,197.2 71.9,149.6 67.2,149.6 67.2,201.9 126.6,201.9 126.6,197.2 		"/>
	</g>
</g>
</svg>
